%TF.GenerationSoftware,KiCad,Pcbnew,(5.1.9)-1*%
%TF.CreationDate,2021-05-29T14:53:35+02:00*%
%TF.ProjectId,Speed_sensor,53706565-645f-4736-956e-736f722e6b69,1.0*%
%TF.SameCoordinates,Original*%
%TF.FileFunction,Copper,L1,Top*%
%TF.FilePolarity,Positive*%
%FSLAX46Y46*%
G04 Gerber Fmt 4.6, Leading zero omitted, Abs format (unit mm)*
G04 Created by KiCad (PCBNEW (5.1.9)-1) date 2021-05-29 14:53:35*
%MOMM*%
%LPD*%
G01*
G04 APERTURE LIST*
%TA.AperFunction,EtchedComponent*%
%ADD10C,0.152400*%
%TD*%
%TA.AperFunction,SMDPad,CuDef*%
%ADD11R,0.400000X1.500000*%
%TD*%
%TA.AperFunction,SMDPad,CuDef*%
%ADD12R,1.000000X1.800000*%
%TD*%
%TA.AperFunction,SMDPad,CuDef*%
%ADD13R,0.900000X1.200000*%
%TD*%
%TA.AperFunction,SMDPad,CuDef*%
%ADD14R,1.400000X0.230000*%
%TD*%
%TA.AperFunction,SMDPad,CuDef*%
%ADD15R,0.914400X1.498600*%
%TD*%
%TA.AperFunction,ComponentPad*%
%ADD16C,0.508000*%
%TD*%
%TA.AperFunction,SMDPad,CuDef*%
%ADD17R,4.600000X4.600000*%
%TD*%
%TA.AperFunction,SMDPad,CuDef*%
%ADD18R,0.750000X0.350000*%
%TD*%
%TA.AperFunction,SMDPad,CuDef*%
%ADD19R,0.350000X0.750000*%
%TD*%
%TA.AperFunction,SMDPad,CuDef*%
%ADD20R,0.800000X0.900000*%
%TD*%
%TA.AperFunction,ComponentPad*%
%ADD21C,3.000000*%
%TD*%
%TA.AperFunction,ComponentPad*%
%ADD22O,2.000000X0.900000*%
%TD*%
%TA.AperFunction,ComponentPad*%
%ADD23O,1.700000X0.900000*%
%TD*%
%TA.AperFunction,SMDPad,CuDef*%
%ADD24R,1.460000X0.300000*%
%TD*%
%TA.AperFunction,SMDPad,CuDef*%
%ADD25R,1.460000X0.600000*%
%TD*%
%TA.AperFunction,SMDPad,CuDef*%
%ADD26R,0.600000X1.000000*%
%TD*%
%TA.AperFunction,SMDPad,CuDef*%
%ADD27R,0.203200X1.263600*%
%TD*%
%TA.AperFunction,SMDPad,CuDef*%
%ADD28R,1.263600X0.203200*%
%TD*%
%TA.AperFunction,ViaPad*%
%ADD29C,0.400000*%
%TD*%
%TA.AperFunction,ViaPad*%
%ADD30C,0.600000*%
%TD*%
%TA.AperFunction,Conductor*%
%ADD31C,0.300000*%
%TD*%
%TA.AperFunction,Conductor*%
%ADD32C,0.200000*%
%TD*%
%TA.AperFunction,Conductor*%
%ADD33C,0.250000*%
%TD*%
%TA.AperFunction,Conductor*%
%ADD34C,0.500000*%
%TD*%
%TA.AperFunction,Conductor*%
%ADD35C,0.293370*%
%TD*%
%TA.AperFunction,Conductor*%
%ADD36C,0.400000*%
%TD*%
%TA.AperFunction,Conductor*%
%ADD37C,0.150000*%
%TD*%
%TA.AperFunction,Conductor*%
%ADD38C,0.254000*%
%TD*%
%TA.AperFunction,Conductor*%
%ADD39C,0.100000*%
%TD*%
G04 APERTURE END LIST*
D10*
%TO.C,U1*%
X47675800Y-38849300D02*
X47675800Y-38849300D01*
X47675800Y-38849300D02*
X47675800Y-38849300D01*
X47675800Y-38849300D02*
X47675800Y-38849300D01*
X47675800Y-38849300D02*
X47675800Y-38849300D01*
X47675800Y-38849300D02*
X47675800Y-38849300D01*
X47675800Y-38849300D02*
X47675800Y-38849300D01*
X47675800Y-38849300D02*
X47675800Y-38849300D01*
X47675800Y-38849300D02*
X47675800Y-38849300D01*
X47675800Y-40347900D02*
X47675800Y-40347900D01*
X47675800Y-40347900D02*
X47675800Y-40347900D01*
X47675800Y-40347900D02*
X47675800Y-40347900D01*
X47675800Y-40347900D02*
X47675800Y-40347900D01*
X47675800Y-40347900D02*
X47675800Y-40347900D01*
X47675800Y-40347900D02*
X47675800Y-40347900D01*
X47675800Y-40347900D02*
X47675800Y-40347900D01*
X47675800Y-40347900D02*
X47675800Y-40347900D01*
%TD*%
%TO.P,R2,2*%
%TO.N,GND*%
%TA.AperFunction,SMDPad,CuDef*%
G36*
G01*
X43958500Y-40303000D02*
X44433500Y-40303000D01*
G75*
G02*
X44671000Y-40540500I0J-237500D01*
G01*
X44671000Y-41040500D01*
G75*
G02*
X44433500Y-41278000I-237500J0D01*
G01*
X43958500Y-41278000D01*
G75*
G02*
X43721000Y-41040500I0J237500D01*
G01*
X43721000Y-40540500D01*
G75*
G02*
X43958500Y-40303000I237500J0D01*
G01*
G37*
%TD.AperFunction*%
%TO.P,R2,1*%
%TO.N,BQ_ISET*%
%TA.AperFunction,SMDPad,CuDef*%
G36*
G01*
X43958500Y-38478000D02*
X44433500Y-38478000D01*
G75*
G02*
X44671000Y-38715500I0J-237500D01*
G01*
X44671000Y-39215500D01*
G75*
G02*
X44433500Y-39453000I-237500J0D01*
G01*
X43958500Y-39453000D01*
G75*
G02*
X43721000Y-39215500I0J237500D01*
G01*
X43721000Y-38715500D01*
G75*
G02*
X43958500Y-38478000I237500J0D01*
G01*
G37*
%TD.AperFunction*%
%TD*%
%TO.P,C22,1*%
%TO.N,GND*%
%TA.AperFunction,SMDPad,CuDef*%
G36*
G01*
X66175747Y-43051544D02*
X65956544Y-43270747D01*
G75*
G02*
X65737340Y-43270747I-109602J109602D01*
G01*
X65436819Y-42970226D01*
G75*
G02*
X65436819Y-42751022I109602J109602D01*
G01*
X65656022Y-42531819D01*
G75*
G02*
X65875226Y-42531819I109602J-109602D01*
G01*
X66175747Y-42832340D01*
G75*
G02*
X66175747Y-43051544I-109602J-109602D01*
G01*
G37*
%TD.AperFunction*%
%TO.P,C22,2*%
%TO.N,Net-(AE1-Pad4)*%
%TA.AperFunction,SMDPad,CuDef*%
G36*
G01*
X65373181Y-42248978D02*
X65153978Y-42468181D01*
G75*
G02*
X64934774Y-42468181I-109602J109602D01*
G01*
X64634253Y-42167660D01*
G75*
G02*
X64634253Y-41948456I109602J109602D01*
G01*
X64853456Y-41729253D01*
G75*
G02*
X65072660Y-41729253I109602J-109602D01*
G01*
X65373181Y-42029774D01*
G75*
G02*
X65373181Y-42248978I-109602J-109602D01*
G01*
G37*
%TD.AperFunction*%
%TD*%
D11*
%TO.P,U6,5*%
%TO.N,+BATT*%
X38212000Y-49470000D03*
%TO.P,U6,4*%
%TO.N,EN*%
X39512000Y-49470000D03*
%TO.P,U6,3*%
%TO.N,Net-(D4-Pad1)*%
X39512000Y-52130000D03*
%TO.P,U6,2*%
%TO.N,GND*%
X38862000Y-52130000D03*
%TO.P,U6,1*%
%TO.N,Net-(R7-Pad2)*%
X38212000Y-52130000D03*
%TD*%
D12*
%TO.P,Y1,2*%
%TO.N,XL2*%
X62526000Y-54785000D03*
%TO.P,Y1,1*%
%TO.N,XL1*%
X60026000Y-54785000D03*
%TD*%
%TO.P,C1,2*%
%TO.N,GND*%
%TA.AperFunction,SMDPad,CuDef*%
G36*
G01*
X46198500Y-37550100D02*
X46198500Y-37075100D01*
G75*
G02*
X46436000Y-36837600I237500J0D01*
G01*
X47036000Y-36837600D01*
G75*
G02*
X47273500Y-37075100I0J-237500D01*
G01*
X47273500Y-37550100D01*
G75*
G02*
X47036000Y-37787600I-237500J0D01*
G01*
X46436000Y-37787600D01*
G75*
G02*
X46198500Y-37550100I0J237500D01*
G01*
G37*
%TD.AperFunction*%
%TO.P,C1,1*%
%TO.N,+5V*%
%TA.AperFunction,SMDPad,CuDef*%
G36*
G01*
X44473500Y-37550100D02*
X44473500Y-37075100D01*
G75*
G02*
X44711000Y-36837600I237500J0D01*
G01*
X45311000Y-36837600D01*
G75*
G02*
X45548500Y-37075100I0J-237500D01*
G01*
X45548500Y-37550100D01*
G75*
G02*
X45311000Y-37787600I-237500J0D01*
G01*
X44711000Y-37787600D01*
G75*
G02*
X44473500Y-37550100I0J237500D01*
G01*
G37*
%TD.AperFunction*%
%TD*%
%TO.P,C2,1*%
%TO.N,+BATT*%
%TA.AperFunction,SMDPad,CuDef*%
G36*
G01*
X50776500Y-37075100D02*
X50776500Y-37550100D01*
G75*
G02*
X50539000Y-37787600I-237500J0D01*
G01*
X49939000Y-37787600D01*
G75*
G02*
X49701500Y-37550100I0J237500D01*
G01*
X49701500Y-37075100D01*
G75*
G02*
X49939000Y-36837600I237500J0D01*
G01*
X50539000Y-36837600D01*
G75*
G02*
X50776500Y-37075100I0J-237500D01*
G01*
G37*
%TD.AperFunction*%
%TO.P,C2,2*%
%TO.N,GND*%
%TA.AperFunction,SMDPad,CuDef*%
G36*
G01*
X49051500Y-37075100D02*
X49051500Y-37550100D01*
G75*
G02*
X48814000Y-37787600I-237500J0D01*
G01*
X48214000Y-37787600D01*
G75*
G02*
X47976500Y-37550100I0J237500D01*
G01*
X47976500Y-37075100D01*
G75*
G02*
X48214000Y-36837600I237500J0D01*
G01*
X48814000Y-36837600D01*
G75*
G02*
X49051500Y-37075100I0J-237500D01*
G01*
G37*
%TD.AperFunction*%
%TD*%
%TO.P,C4,1*%
%TO.N,+BATT*%
%TA.AperFunction,SMDPad,CuDef*%
G36*
G01*
X43036500Y-55756000D02*
X42561500Y-55756000D01*
G75*
G02*
X42324000Y-55518500I0J237500D01*
G01*
X42324000Y-54918500D01*
G75*
G02*
X42561500Y-54681000I237500J0D01*
G01*
X43036500Y-54681000D01*
G75*
G02*
X43274000Y-54918500I0J-237500D01*
G01*
X43274000Y-55518500D01*
G75*
G02*
X43036500Y-55756000I-237500J0D01*
G01*
G37*
%TD.AperFunction*%
%TO.P,C4,2*%
%TO.N,GND*%
%TA.AperFunction,SMDPad,CuDef*%
G36*
G01*
X43036500Y-54031000D02*
X42561500Y-54031000D01*
G75*
G02*
X42324000Y-53793500I0J237500D01*
G01*
X42324000Y-53193500D01*
G75*
G02*
X42561500Y-52956000I237500J0D01*
G01*
X43036500Y-52956000D01*
G75*
G02*
X43274000Y-53193500I0J-237500D01*
G01*
X43274000Y-53793500D01*
G75*
G02*
X43036500Y-54031000I-237500J0D01*
G01*
G37*
%TD.AperFunction*%
%TD*%
%TO.P,C6,2*%
%TO.N,GND*%
%TA.AperFunction,SMDPad,CuDef*%
G36*
G01*
X49220000Y-51545500D02*
X49220000Y-51070500D01*
G75*
G02*
X49457500Y-50833000I237500J0D01*
G01*
X50057500Y-50833000D01*
G75*
G02*
X50295000Y-51070500I0J-237500D01*
G01*
X50295000Y-51545500D01*
G75*
G02*
X50057500Y-51783000I-237500J0D01*
G01*
X49457500Y-51783000D01*
G75*
G02*
X49220000Y-51545500I0J237500D01*
G01*
G37*
%TD.AperFunction*%
%TO.P,C6,1*%
%TO.N,BUCK_Vout2*%
%TA.AperFunction,SMDPad,CuDef*%
G36*
G01*
X47495000Y-51545500D02*
X47495000Y-51070500D01*
G75*
G02*
X47732500Y-50833000I237500J0D01*
G01*
X48332500Y-50833000D01*
G75*
G02*
X48570000Y-51070500I0J-237500D01*
G01*
X48570000Y-51545500D01*
G75*
G02*
X48332500Y-51783000I-237500J0D01*
G01*
X47732500Y-51783000D01*
G75*
G02*
X47495000Y-51545500I0J237500D01*
G01*
G37*
%TD.AperFunction*%
%TD*%
%TO.P,C7,2*%
%TO.N,GND*%
%TA.AperFunction,SMDPad,CuDef*%
G36*
G01*
X49220000Y-53577500D02*
X49220000Y-53102500D01*
G75*
G02*
X49457500Y-52865000I237500J0D01*
G01*
X50057500Y-52865000D01*
G75*
G02*
X50295000Y-53102500I0J-237500D01*
G01*
X50295000Y-53577500D01*
G75*
G02*
X50057500Y-53815000I-237500J0D01*
G01*
X49457500Y-53815000D01*
G75*
G02*
X49220000Y-53577500I0J237500D01*
G01*
G37*
%TD.AperFunction*%
%TO.P,C7,1*%
%TO.N,+3V0*%
%TA.AperFunction,SMDPad,CuDef*%
G36*
G01*
X47495000Y-53577500D02*
X47495000Y-53102500D01*
G75*
G02*
X47732500Y-52865000I237500J0D01*
G01*
X48332500Y-52865000D01*
G75*
G02*
X48570000Y-53102500I0J-237500D01*
G01*
X48570000Y-53577500D01*
G75*
G02*
X48332500Y-53815000I-237500J0D01*
G01*
X47732500Y-53815000D01*
G75*
G02*
X47495000Y-53577500I0J237500D01*
G01*
G37*
%TD.AperFunction*%
%TD*%
%TO.P,C8,1*%
%TO.N,+3V0*%
%TA.AperFunction,SMDPad,CuDef*%
G36*
G01*
X55958500Y-52115000D02*
X56433500Y-52115000D01*
G75*
G02*
X56671000Y-52352500I0J-237500D01*
G01*
X56671000Y-52952500D01*
G75*
G02*
X56433500Y-53190000I-237500J0D01*
G01*
X55958500Y-53190000D01*
G75*
G02*
X55721000Y-52952500I0J237500D01*
G01*
X55721000Y-52352500D01*
G75*
G02*
X55958500Y-52115000I237500J0D01*
G01*
G37*
%TD.AperFunction*%
%TO.P,C8,2*%
%TO.N,GND*%
%TA.AperFunction,SMDPad,CuDef*%
G36*
G01*
X55958500Y-53840000D02*
X56433500Y-53840000D01*
G75*
G02*
X56671000Y-54077500I0J-237500D01*
G01*
X56671000Y-54677500D01*
G75*
G02*
X56433500Y-54915000I-237500J0D01*
G01*
X55958500Y-54915000D01*
G75*
G02*
X55721000Y-54677500I0J237500D01*
G01*
X55721000Y-54077500D01*
G75*
G02*
X55958500Y-53840000I237500J0D01*
G01*
G37*
%TD.AperFunction*%
%TD*%
%TO.P,C9,2*%
%TO.N,GND*%
%TA.AperFunction,SMDPad,CuDef*%
G36*
G01*
X64677000Y-51615500D02*
X64987000Y-51615500D01*
G75*
G02*
X65142000Y-51770500I0J-155000D01*
G01*
X65142000Y-52195500D01*
G75*
G02*
X64987000Y-52350500I-155000J0D01*
G01*
X64677000Y-52350500D01*
G75*
G02*
X64522000Y-52195500I0J155000D01*
G01*
X64522000Y-51770500D01*
G75*
G02*
X64677000Y-51615500I155000J0D01*
G01*
G37*
%TD.AperFunction*%
%TO.P,C9,1*%
%TO.N,+3V0*%
%TA.AperFunction,SMDPad,CuDef*%
G36*
G01*
X64677000Y-50480500D02*
X64987000Y-50480500D01*
G75*
G02*
X65142000Y-50635500I0J-155000D01*
G01*
X65142000Y-51060500D01*
G75*
G02*
X64987000Y-51215500I-155000J0D01*
G01*
X64677000Y-51215500D01*
G75*
G02*
X64522000Y-51060500I0J155000D01*
G01*
X64522000Y-50635500D01*
G75*
G02*
X64677000Y-50480500I155000J0D01*
G01*
G37*
%TD.AperFunction*%
%TD*%
%TO.P,C10,2*%
%TO.N,GND*%
%TA.AperFunction,SMDPad,CuDef*%
G36*
G01*
X55204000Y-44716000D02*
X55204000Y-45026000D01*
G75*
G02*
X55049000Y-45181000I-155000J0D01*
G01*
X54624000Y-45181000D01*
G75*
G02*
X54469000Y-45026000I0J155000D01*
G01*
X54469000Y-44716000D01*
G75*
G02*
X54624000Y-44561000I155000J0D01*
G01*
X55049000Y-44561000D01*
G75*
G02*
X55204000Y-44716000I0J-155000D01*
G01*
G37*
%TD.AperFunction*%
%TO.P,C10,1*%
%TO.N,+3V0*%
%TA.AperFunction,SMDPad,CuDef*%
G36*
G01*
X56339000Y-44716000D02*
X56339000Y-45026000D01*
G75*
G02*
X56184000Y-45181000I-155000J0D01*
G01*
X55759000Y-45181000D01*
G75*
G02*
X55604000Y-45026000I0J155000D01*
G01*
X55604000Y-44716000D01*
G75*
G02*
X55759000Y-44561000I155000J0D01*
G01*
X56184000Y-44561000D01*
G75*
G02*
X56339000Y-44716000I0J-155000D01*
G01*
G37*
%TD.AperFunction*%
%TD*%
%TO.P,C11,2*%
%TO.N,GND*%
%TA.AperFunction,SMDPad,CuDef*%
G36*
G01*
X58215000Y-40948000D02*
X57905000Y-40948000D01*
G75*
G02*
X57750000Y-40793000I0J155000D01*
G01*
X57750000Y-40368000D01*
G75*
G02*
X57905000Y-40213000I155000J0D01*
G01*
X58215000Y-40213000D01*
G75*
G02*
X58370000Y-40368000I0J-155000D01*
G01*
X58370000Y-40793000D01*
G75*
G02*
X58215000Y-40948000I-155000J0D01*
G01*
G37*
%TD.AperFunction*%
%TO.P,C11,1*%
%TO.N,Net-(C11-Pad1)*%
%TA.AperFunction,SMDPad,CuDef*%
G36*
G01*
X58215000Y-42083000D02*
X57905000Y-42083000D01*
G75*
G02*
X57750000Y-41928000I0J155000D01*
G01*
X57750000Y-41503000D01*
G75*
G02*
X57905000Y-41348000I155000J0D01*
G01*
X58215000Y-41348000D01*
G75*
G02*
X58370000Y-41503000I0J-155000D01*
G01*
X58370000Y-41928000D01*
G75*
G02*
X58215000Y-42083000I-155000J0D01*
G01*
G37*
%TD.AperFunction*%
%TD*%
%TO.P,C12,1*%
%TO.N,Net-(C12-Pad1)*%
%TA.AperFunction,SMDPad,CuDef*%
G36*
G01*
X59485000Y-41480000D02*
X59175000Y-41480000D01*
G75*
G02*
X59020000Y-41325000I0J155000D01*
G01*
X59020000Y-40900000D01*
G75*
G02*
X59175000Y-40745000I155000J0D01*
G01*
X59485000Y-40745000D01*
G75*
G02*
X59640000Y-40900000I0J-155000D01*
G01*
X59640000Y-41325000D01*
G75*
G02*
X59485000Y-41480000I-155000J0D01*
G01*
G37*
%TD.AperFunction*%
%TO.P,C12,2*%
%TO.N,GND*%
%TA.AperFunction,SMDPad,CuDef*%
G36*
G01*
X59485000Y-40345000D02*
X59175000Y-40345000D01*
G75*
G02*
X59020000Y-40190000I0J155000D01*
G01*
X59020000Y-39765000D01*
G75*
G02*
X59175000Y-39610000I155000J0D01*
G01*
X59485000Y-39610000D01*
G75*
G02*
X59640000Y-39765000I0J-155000D01*
G01*
X59640000Y-40190000D01*
G75*
G02*
X59485000Y-40345000I-155000J0D01*
G01*
G37*
%TD.AperFunction*%
%TD*%
%TO.P,C13,1*%
%TO.N,Net-(C13-Pad1)*%
%TA.AperFunction,SMDPad,CuDef*%
G36*
G01*
X57395000Y-52131000D02*
X57705000Y-52131000D01*
G75*
G02*
X57860000Y-52286000I0J-155000D01*
G01*
X57860000Y-52711000D01*
G75*
G02*
X57705000Y-52866000I-155000J0D01*
G01*
X57395000Y-52866000D01*
G75*
G02*
X57240000Y-52711000I0J155000D01*
G01*
X57240000Y-52286000D01*
G75*
G02*
X57395000Y-52131000I155000J0D01*
G01*
G37*
%TD.AperFunction*%
%TO.P,C13,2*%
%TO.N,GND*%
%TA.AperFunction,SMDPad,CuDef*%
G36*
G01*
X57395000Y-53266000D02*
X57705000Y-53266000D01*
G75*
G02*
X57860000Y-53421000I0J-155000D01*
G01*
X57860000Y-53846000D01*
G75*
G02*
X57705000Y-54001000I-155000J0D01*
G01*
X57395000Y-54001000D01*
G75*
G02*
X57240000Y-53846000I0J155000D01*
G01*
X57240000Y-53421000D01*
G75*
G02*
X57395000Y-53266000I155000J0D01*
G01*
G37*
%TD.AperFunction*%
%TD*%
%TO.P,C14,2*%
%TO.N,GND*%
%TA.AperFunction,SMDPad,CuDef*%
G36*
G01*
X51832500Y-52014000D02*
X52307500Y-52014000D01*
G75*
G02*
X52545000Y-52251500I0J-237500D01*
G01*
X52545000Y-52851500D01*
G75*
G02*
X52307500Y-53089000I-237500J0D01*
G01*
X51832500Y-53089000D01*
G75*
G02*
X51595000Y-52851500I0J237500D01*
G01*
X51595000Y-52251500D01*
G75*
G02*
X51832500Y-52014000I237500J0D01*
G01*
G37*
%TD.AperFunction*%
%TO.P,C14,1*%
%TO.N,Net-(C14-Pad1)*%
%TA.AperFunction,SMDPad,CuDef*%
G36*
G01*
X51832500Y-50289000D02*
X52307500Y-50289000D01*
G75*
G02*
X52545000Y-50526500I0J-237500D01*
G01*
X52545000Y-51126500D01*
G75*
G02*
X52307500Y-51364000I-237500J0D01*
G01*
X51832500Y-51364000D01*
G75*
G02*
X51595000Y-51126500I0J237500D01*
G01*
X51595000Y-50526500D01*
G75*
G02*
X51832500Y-50289000I237500J0D01*
G01*
G37*
%TD.AperFunction*%
%TD*%
%TO.P,C15,1*%
%TO.N,XL1*%
%TA.AperFunction,SMDPad,CuDef*%
G36*
G01*
X60433000Y-52804000D02*
X60433000Y-53114000D01*
G75*
G02*
X60278000Y-53269000I-155000J0D01*
G01*
X59853000Y-53269000D01*
G75*
G02*
X59698000Y-53114000I0J155000D01*
G01*
X59698000Y-52804000D01*
G75*
G02*
X59853000Y-52649000I155000J0D01*
G01*
X60278000Y-52649000D01*
G75*
G02*
X60433000Y-52804000I0J-155000D01*
G01*
G37*
%TD.AperFunction*%
%TO.P,C15,2*%
%TO.N,GND*%
%TA.AperFunction,SMDPad,CuDef*%
G36*
G01*
X59298000Y-52804000D02*
X59298000Y-53114000D01*
G75*
G02*
X59143000Y-53269000I-155000J0D01*
G01*
X58718000Y-53269000D01*
G75*
G02*
X58563000Y-53114000I0J155000D01*
G01*
X58563000Y-52804000D01*
G75*
G02*
X58718000Y-52649000I155000J0D01*
G01*
X59143000Y-52649000D01*
G75*
G02*
X59298000Y-52804000I0J-155000D01*
G01*
G37*
%TD.AperFunction*%
%TD*%
%TO.P,C16,1*%
%TO.N,XL2*%
%TA.AperFunction,SMDPad,CuDef*%
G36*
G01*
X63915000Y-53850000D02*
X64225000Y-53850000D01*
G75*
G02*
X64380000Y-54005000I0J-155000D01*
G01*
X64380000Y-54430000D01*
G75*
G02*
X64225000Y-54585000I-155000J0D01*
G01*
X63915000Y-54585000D01*
G75*
G02*
X63760000Y-54430000I0J155000D01*
G01*
X63760000Y-54005000D01*
G75*
G02*
X63915000Y-53850000I155000J0D01*
G01*
G37*
%TD.AperFunction*%
%TO.P,C16,2*%
%TO.N,GND*%
%TA.AperFunction,SMDPad,CuDef*%
G36*
G01*
X63915000Y-54985000D02*
X64225000Y-54985000D01*
G75*
G02*
X64380000Y-55140000I0J-155000D01*
G01*
X64380000Y-55565000D01*
G75*
G02*
X64225000Y-55720000I-155000J0D01*
G01*
X63915000Y-55720000D01*
G75*
G02*
X63760000Y-55565000I0J155000D01*
G01*
X63760000Y-55140000D01*
G75*
G02*
X63915000Y-54985000I155000J0D01*
G01*
G37*
%TD.AperFunction*%
%TD*%
%TO.P,C17,2*%
%TO.N,Net-(C17-Pad2)*%
%TA.AperFunction,SMDPad,CuDef*%
G36*
G01*
X61064000Y-43003000D02*
X61064000Y-42693000D01*
G75*
G02*
X61219000Y-42538000I155000J0D01*
G01*
X61644000Y-42538000D01*
G75*
G02*
X61799000Y-42693000I0J-155000D01*
G01*
X61799000Y-43003000D01*
G75*
G02*
X61644000Y-43158000I-155000J0D01*
G01*
X61219000Y-43158000D01*
G75*
G02*
X61064000Y-43003000I0J155000D01*
G01*
G37*
%TD.AperFunction*%
%TO.P,C17,1*%
%TO.N,GND*%
%TA.AperFunction,SMDPad,CuDef*%
G36*
G01*
X59929000Y-43003000D02*
X59929000Y-42693000D01*
G75*
G02*
X60084000Y-42538000I155000J0D01*
G01*
X60509000Y-42538000D01*
G75*
G02*
X60664000Y-42693000I0J-155000D01*
G01*
X60664000Y-43003000D01*
G75*
G02*
X60509000Y-43158000I-155000J0D01*
G01*
X60084000Y-43158000D01*
G75*
G02*
X59929000Y-43003000I0J155000D01*
G01*
G37*
%TD.AperFunction*%
%TD*%
%TO.P,C18,1*%
%TO.N,Net-(C18-Pad1)*%
%TA.AperFunction,SMDPad,CuDef*%
G36*
G01*
X54469000Y-39184000D02*
X54469000Y-38874000D01*
G75*
G02*
X54624000Y-38719000I155000J0D01*
G01*
X55049000Y-38719000D01*
G75*
G02*
X55204000Y-38874000I0J-155000D01*
G01*
X55204000Y-39184000D01*
G75*
G02*
X55049000Y-39339000I-155000J0D01*
G01*
X54624000Y-39339000D01*
G75*
G02*
X54469000Y-39184000I0J155000D01*
G01*
G37*
%TD.AperFunction*%
%TO.P,C18,2*%
%TO.N,GND*%
%TA.AperFunction,SMDPad,CuDef*%
G36*
G01*
X55604000Y-39184000D02*
X55604000Y-38874000D01*
G75*
G02*
X55759000Y-38719000I155000J0D01*
G01*
X56184000Y-38719000D01*
G75*
G02*
X56339000Y-38874000I0J-155000D01*
G01*
X56339000Y-39184000D01*
G75*
G02*
X56184000Y-39339000I-155000J0D01*
G01*
X55759000Y-39339000D01*
G75*
G02*
X55604000Y-39184000I0J155000D01*
G01*
G37*
%TD.AperFunction*%
%TD*%
%TO.P,C19,2*%
%TO.N,GND*%
%TA.AperFunction,SMDPad,CuDef*%
G36*
G01*
X55204000Y-43446000D02*
X55204000Y-43756000D01*
G75*
G02*
X55049000Y-43911000I-155000J0D01*
G01*
X54624000Y-43911000D01*
G75*
G02*
X54469000Y-43756000I0J155000D01*
G01*
X54469000Y-43446000D01*
G75*
G02*
X54624000Y-43291000I155000J0D01*
G01*
X55049000Y-43291000D01*
G75*
G02*
X55204000Y-43446000I0J-155000D01*
G01*
G37*
%TD.AperFunction*%
%TO.P,C19,1*%
%TO.N,Net-(C19-Pad1)*%
%TA.AperFunction,SMDPad,CuDef*%
G36*
G01*
X56339000Y-43446000D02*
X56339000Y-43756000D01*
G75*
G02*
X56184000Y-43911000I-155000J0D01*
G01*
X55759000Y-43911000D01*
G75*
G02*
X55604000Y-43756000I0J155000D01*
G01*
X55604000Y-43446000D01*
G75*
G02*
X55759000Y-43291000I155000J0D01*
G01*
X56184000Y-43291000D01*
G75*
G02*
X56339000Y-43446000I0J-155000D01*
G01*
G37*
%TD.AperFunction*%
%TD*%
%TO.P,C20,1*%
%TO.N,+3V0*%
%TA.AperFunction,SMDPad,CuDef*%
G36*
G01*
X51897000Y-48796000D02*
X51897000Y-48486000D01*
G75*
G02*
X52052000Y-48331000I155000J0D01*
G01*
X52477000Y-48331000D01*
G75*
G02*
X52632000Y-48486000I0J-155000D01*
G01*
X52632000Y-48796000D01*
G75*
G02*
X52477000Y-48951000I-155000J0D01*
G01*
X52052000Y-48951000D01*
G75*
G02*
X51897000Y-48796000I0J155000D01*
G01*
G37*
%TD.AperFunction*%
%TO.P,C20,2*%
%TO.N,GND*%
%TA.AperFunction,SMDPad,CuDef*%
G36*
G01*
X53032000Y-48796000D02*
X53032000Y-48486000D01*
G75*
G02*
X53187000Y-48331000I155000J0D01*
G01*
X53612000Y-48331000D01*
G75*
G02*
X53767000Y-48486000I0J-155000D01*
G01*
X53767000Y-48796000D01*
G75*
G02*
X53612000Y-48951000I-155000J0D01*
G01*
X53187000Y-48951000D01*
G75*
G02*
X53032000Y-48796000I0J155000D01*
G01*
G37*
%TD.AperFunction*%
%TD*%
%TO.P,C21,1*%
%TO.N,+3V0*%
%TA.AperFunction,SMDPad,CuDef*%
G36*
G01*
X51311000Y-48403500D02*
X51311000Y-48878500D01*
G75*
G02*
X51073500Y-49116000I-237500J0D01*
G01*
X50473500Y-49116000D01*
G75*
G02*
X50236000Y-48878500I0J237500D01*
G01*
X50236000Y-48403500D01*
G75*
G02*
X50473500Y-48166000I237500J0D01*
G01*
X51073500Y-48166000D01*
G75*
G02*
X51311000Y-48403500I0J-237500D01*
G01*
G37*
%TD.AperFunction*%
%TO.P,C21,2*%
%TO.N,GND*%
%TA.AperFunction,SMDPad,CuDef*%
G36*
G01*
X49586000Y-48403500D02*
X49586000Y-48878500D01*
G75*
G02*
X49348500Y-49116000I-237500J0D01*
G01*
X48748500Y-49116000D01*
G75*
G02*
X48511000Y-48878500I0J237500D01*
G01*
X48511000Y-48403500D01*
G75*
G02*
X48748500Y-48166000I237500J0D01*
G01*
X49348500Y-48166000D01*
G75*
G02*
X49586000Y-48403500I0J-237500D01*
G01*
G37*
%TD.AperFunction*%
%TD*%
%TO.P,D1,1*%
%TO.N,Net-(D1-Pad1)*%
%TA.AperFunction,SMDPad,CuDef*%
G36*
G01*
X42545500Y-39674000D02*
X42070500Y-39674000D01*
G75*
G02*
X41833000Y-39436500I0J237500D01*
G01*
X41833000Y-38861500D01*
G75*
G02*
X42070500Y-38624000I237500J0D01*
G01*
X42545500Y-38624000D01*
G75*
G02*
X42783000Y-38861500I0J-237500D01*
G01*
X42783000Y-39436500D01*
G75*
G02*
X42545500Y-39674000I-237500J0D01*
G01*
G37*
%TD.AperFunction*%
%TO.P,D1,2*%
%TO.N,+5V*%
%TA.AperFunction,SMDPad,CuDef*%
G36*
G01*
X42545500Y-37924000D02*
X42070500Y-37924000D01*
G75*
G02*
X41833000Y-37686500I0J237500D01*
G01*
X41833000Y-37111500D01*
G75*
G02*
X42070500Y-36874000I237500J0D01*
G01*
X42545500Y-36874000D01*
G75*
G02*
X42783000Y-37111500I0J-237500D01*
G01*
X42783000Y-37686500D01*
G75*
G02*
X42545500Y-37924000I-237500J0D01*
G01*
G37*
%TD.AperFunction*%
%TD*%
%TO.P,D2,1*%
%TO.N,~BQ_PG~*%
%TA.AperFunction,SMDPad,CuDef*%
G36*
G01*
X45463000Y-42198300D02*
X45463000Y-41723300D01*
G75*
G02*
X45700500Y-41485800I237500J0D01*
G01*
X46275500Y-41485800D01*
G75*
G02*
X46513000Y-41723300I0J-237500D01*
G01*
X46513000Y-42198300D01*
G75*
G02*
X46275500Y-42435800I-237500J0D01*
G01*
X45700500Y-42435800D01*
G75*
G02*
X45463000Y-42198300I0J237500D01*
G01*
G37*
%TD.AperFunction*%
%TO.P,D2,2*%
%TO.N,Net-(D2-Pad2)*%
%TA.AperFunction,SMDPad,CuDef*%
G36*
G01*
X47213000Y-42198300D02*
X47213000Y-41723300D01*
G75*
G02*
X47450500Y-41485800I237500J0D01*
G01*
X48025500Y-41485800D01*
G75*
G02*
X48263000Y-41723300I0J-237500D01*
G01*
X48263000Y-42198300D01*
G75*
G02*
X48025500Y-42435800I-237500J0D01*
G01*
X47450500Y-42435800D01*
G75*
G02*
X47213000Y-42198300I0J237500D01*
G01*
G37*
%TD.AperFunction*%
%TD*%
%TO.P,D3,2*%
%TO.N,Net-(D3-Pad2)*%
%TA.AperFunction,SMDPad,CuDef*%
G36*
G01*
X51324500Y-40597600D02*
X51799500Y-40597600D01*
G75*
G02*
X52037000Y-40835100I0J-237500D01*
G01*
X52037000Y-41410100D01*
G75*
G02*
X51799500Y-41647600I-237500J0D01*
G01*
X51324500Y-41647600D01*
G75*
G02*
X51087000Y-41410100I0J237500D01*
G01*
X51087000Y-40835100D01*
G75*
G02*
X51324500Y-40597600I237500J0D01*
G01*
G37*
%TD.AperFunction*%
%TO.P,D3,1*%
%TO.N,~BQ_CHG~*%
%TA.AperFunction,SMDPad,CuDef*%
G36*
G01*
X51324500Y-38847600D02*
X51799500Y-38847600D01*
G75*
G02*
X52037000Y-39085100I0J-237500D01*
G01*
X52037000Y-39660100D01*
G75*
G02*
X51799500Y-39897600I-237500J0D01*
G01*
X51324500Y-39897600D01*
G75*
G02*
X51087000Y-39660100I0J237500D01*
G01*
X51087000Y-39085100D01*
G75*
G02*
X51324500Y-38847600I237500J0D01*
G01*
G37*
%TD.AperFunction*%
%TD*%
D13*
%TO.P,D4,1*%
%TO.N,Net-(D4-Pad1)*%
X38480000Y-54864000D03*
%TO.P,D4,2*%
%TO.N,GND*%
X35180000Y-54864000D03*
%TD*%
%TO.P,D5,2*%
%TO.N,+3V0*%
%TA.AperFunction,SMDPad,CuDef*%
G36*
G01*
X50850000Y-54962500D02*
X50850000Y-55437500D01*
G75*
G02*
X50612500Y-55675000I-237500J0D01*
G01*
X50037500Y-55675000D01*
G75*
G02*
X49800000Y-55437500I0J237500D01*
G01*
X49800000Y-54962500D01*
G75*
G02*
X50037500Y-54725000I237500J0D01*
G01*
X50612500Y-54725000D01*
G75*
G02*
X50850000Y-54962500I0J-237500D01*
G01*
G37*
%TD.AperFunction*%
%TO.P,D5,1*%
%TO.N,Net-(D5-Pad1)*%
%TA.AperFunction,SMDPad,CuDef*%
G36*
G01*
X52600000Y-54962500D02*
X52600000Y-55437500D01*
G75*
G02*
X52362500Y-55675000I-237500J0D01*
G01*
X51787500Y-55675000D01*
G75*
G02*
X51550000Y-55437500I0J237500D01*
G01*
X51550000Y-54962500D01*
G75*
G02*
X51787500Y-54725000I237500J0D01*
G01*
X52362500Y-54725000D01*
G75*
G02*
X52600000Y-54962500I0J-237500D01*
G01*
G37*
%TD.AperFunction*%
%TD*%
%TO.P,L2,1*%
%TO.N,Net-(L2-Pad1)*%
%TA.AperFunction,SMDPad,CuDef*%
G36*
G01*
X55057000Y-51910000D02*
X55057000Y-52230000D01*
G75*
G02*
X54897000Y-52390000I-160000J0D01*
G01*
X54452000Y-52390000D01*
G75*
G02*
X54292000Y-52230000I0J160000D01*
G01*
X54292000Y-51910000D01*
G75*
G02*
X54452000Y-51750000I160000J0D01*
G01*
X54897000Y-51750000D01*
G75*
G02*
X55057000Y-51910000I0J-160000D01*
G01*
G37*
%TD.AperFunction*%
%TO.P,L2,2*%
%TO.N,Net-(C14-Pad1)*%
%TA.AperFunction,SMDPad,CuDef*%
G36*
G01*
X53912000Y-51910000D02*
X53912000Y-52230000D01*
G75*
G02*
X53752000Y-52390000I-160000J0D01*
G01*
X53307000Y-52390000D01*
G75*
G02*
X53147000Y-52230000I0J160000D01*
G01*
X53147000Y-51910000D01*
G75*
G02*
X53307000Y-51750000I160000J0D01*
G01*
X53752000Y-51750000D01*
G75*
G02*
X53912000Y-51910000I0J-160000D01*
G01*
G37*
%TD.AperFunction*%
%TD*%
%TO.P,L3,1*%
%TO.N,Net-(L3-Pad1)*%
%TA.AperFunction,SMDPad,CuDef*%
G36*
G01*
X56137000Y-50308500D02*
X56137000Y-50783500D01*
G75*
G02*
X55899500Y-51021000I-237500J0D01*
G01*
X55324500Y-51021000D01*
G75*
G02*
X55087000Y-50783500I0J237500D01*
G01*
X55087000Y-50308500D01*
G75*
G02*
X55324500Y-50071000I237500J0D01*
G01*
X55899500Y-50071000D01*
G75*
G02*
X56137000Y-50308500I0J-237500D01*
G01*
G37*
%TD.AperFunction*%
%TO.P,L3,2*%
%TO.N,Net-(L2-Pad1)*%
%TA.AperFunction,SMDPad,CuDef*%
G36*
G01*
X54387000Y-50308500D02*
X54387000Y-50783500D01*
G75*
G02*
X54149500Y-51021000I-237500J0D01*
G01*
X53574500Y-51021000D01*
G75*
G02*
X53337000Y-50783500I0J237500D01*
G01*
X53337000Y-50308500D01*
G75*
G02*
X53574500Y-50071000I237500J0D01*
G01*
X54149500Y-50071000D01*
G75*
G02*
X54387000Y-50308500I0J-237500D01*
G01*
G37*
%TD.AperFunction*%
%TD*%
%TO.P,L4,2*%
%TO.N,Net-(C17-Pad2)*%
%TA.AperFunction,SMDPad,CuDef*%
G36*
G01*
X63056000Y-42688000D02*
X63056000Y-43008000D01*
G75*
G02*
X62896000Y-43168000I-160000J0D01*
G01*
X62451000Y-43168000D01*
G75*
G02*
X62291000Y-43008000I0J160000D01*
G01*
X62291000Y-42688000D01*
G75*
G02*
X62451000Y-42528000I160000J0D01*
G01*
X62896000Y-42528000D01*
G75*
G02*
X63056000Y-42688000I0J-160000D01*
G01*
G37*
%TD.AperFunction*%
%TO.P,L4,1*%
%TO.N,Net-(AE1-Pad4)*%
%TA.AperFunction,SMDPad,CuDef*%
G36*
G01*
X64201000Y-42688000D02*
X64201000Y-43008000D01*
G75*
G02*
X64041000Y-43168000I-160000J0D01*
G01*
X63596000Y-43168000D01*
G75*
G02*
X63436000Y-43008000I0J160000D01*
G01*
X63436000Y-42688000D01*
G75*
G02*
X63596000Y-42528000I160000J0D01*
G01*
X64041000Y-42528000D01*
G75*
G02*
X64201000Y-42688000I0J-160000D01*
G01*
G37*
%TD.AperFunction*%
%TD*%
%TO.P,R3,1*%
%TO.N,GND*%
%TA.AperFunction,SMDPad,CuDef*%
G36*
G01*
X54357100Y-37100500D02*
X54357100Y-37575500D01*
G75*
G02*
X54119600Y-37813000I-237500J0D01*
G01*
X53619600Y-37813000D01*
G75*
G02*
X53382100Y-37575500I0J237500D01*
G01*
X53382100Y-37100500D01*
G75*
G02*
X53619600Y-36863000I237500J0D01*
G01*
X54119600Y-36863000D01*
G75*
G02*
X54357100Y-37100500I0J-237500D01*
G01*
G37*
%TD.AperFunction*%
%TO.P,R3,2*%
%TO.N,BQ_TS*%
%TA.AperFunction,SMDPad,CuDef*%
G36*
G01*
X52532100Y-37100500D02*
X52532100Y-37575500D01*
G75*
G02*
X52294600Y-37813000I-237500J0D01*
G01*
X51794600Y-37813000D01*
G75*
G02*
X51557100Y-37575500I0J237500D01*
G01*
X51557100Y-37100500D01*
G75*
G02*
X51794600Y-36863000I237500J0D01*
G01*
X52294600Y-36863000D01*
G75*
G02*
X52532100Y-37100500I0J-237500D01*
G01*
G37*
%TD.AperFunction*%
%TD*%
%TO.P,R6,1*%
%TO.N,+BATT*%
%TA.AperFunction,SMDPad,CuDef*%
G36*
G01*
X34605000Y-53246000D02*
X34605000Y-52926000D01*
G75*
G02*
X34765000Y-52766000I160000J0D01*
G01*
X35160000Y-52766000D01*
G75*
G02*
X35320000Y-52926000I0J-160000D01*
G01*
X35320000Y-53246000D01*
G75*
G02*
X35160000Y-53406000I-160000J0D01*
G01*
X34765000Y-53406000D01*
G75*
G02*
X34605000Y-53246000I0J160000D01*
G01*
G37*
%TD.AperFunction*%
%TO.P,R6,2*%
%TO.N,Net-(D4-Pad1)*%
%TA.AperFunction,SMDPad,CuDef*%
G36*
G01*
X35800000Y-53246000D02*
X35800000Y-52926000D01*
G75*
G02*
X35960000Y-52766000I160000J0D01*
G01*
X36355000Y-52766000D01*
G75*
G02*
X36515000Y-52926000I0J-160000D01*
G01*
X36515000Y-53246000D01*
G75*
G02*
X36355000Y-53406000I-160000J0D01*
G01*
X35960000Y-53406000D01*
G75*
G02*
X35800000Y-53246000I0J160000D01*
G01*
G37*
%TD.AperFunction*%
%TD*%
%TO.P,R7,2*%
%TO.N,Net-(R7-Pad2)*%
%TA.AperFunction,SMDPad,CuDef*%
G36*
G01*
X35800000Y-51976000D02*
X35800000Y-51656000D01*
G75*
G02*
X35960000Y-51496000I160000J0D01*
G01*
X36355000Y-51496000D01*
G75*
G02*
X36515000Y-51656000I0J-160000D01*
G01*
X36515000Y-51976000D01*
G75*
G02*
X36355000Y-52136000I-160000J0D01*
G01*
X35960000Y-52136000D01*
G75*
G02*
X35800000Y-51976000I0J160000D01*
G01*
G37*
%TD.AperFunction*%
%TO.P,R7,1*%
%TO.N,+BATT*%
%TA.AperFunction,SMDPad,CuDef*%
G36*
G01*
X34605000Y-51976000D02*
X34605000Y-51656000D01*
G75*
G02*
X34765000Y-51496000I160000J0D01*
G01*
X35160000Y-51496000D01*
G75*
G02*
X35320000Y-51656000I0J-160000D01*
G01*
X35320000Y-51976000D01*
G75*
G02*
X35160000Y-52136000I-160000J0D01*
G01*
X34765000Y-52136000D01*
G75*
G02*
X34605000Y-51976000I0J160000D01*
G01*
G37*
%TD.AperFunction*%
%TD*%
%TO.P,R8,1*%
%TO.N,Net-(R7-Pad2)*%
%TA.AperFunction,SMDPad,CuDef*%
G36*
G01*
X36515000Y-50386000D02*
X36515000Y-50706000D01*
G75*
G02*
X36355000Y-50866000I-160000J0D01*
G01*
X35960000Y-50866000D01*
G75*
G02*
X35800000Y-50706000I0J160000D01*
G01*
X35800000Y-50386000D01*
G75*
G02*
X35960000Y-50226000I160000J0D01*
G01*
X36355000Y-50226000D01*
G75*
G02*
X36515000Y-50386000I0J-160000D01*
G01*
G37*
%TD.AperFunction*%
%TO.P,R8,2*%
%TO.N,GND*%
%TA.AperFunction,SMDPad,CuDef*%
G36*
G01*
X35320000Y-50386000D02*
X35320000Y-50706000D01*
G75*
G02*
X35160000Y-50866000I-160000J0D01*
G01*
X34765000Y-50866000D01*
G75*
G02*
X34605000Y-50706000I0J160000D01*
G01*
X34605000Y-50386000D01*
G75*
G02*
X34765000Y-50226000I160000J0D01*
G01*
X35160000Y-50226000D01*
G75*
G02*
X35320000Y-50386000I0J-160000D01*
G01*
G37*
%TD.AperFunction*%
%TD*%
%TO.P,R9,1*%
%TO.N,EN*%
%TA.AperFunction,SMDPad,CuDef*%
G36*
G01*
X37023000Y-49243000D02*
X37023000Y-49563000D01*
G75*
G02*
X36863000Y-49723000I-160000J0D01*
G01*
X36468000Y-49723000D01*
G75*
G02*
X36308000Y-49563000I0J160000D01*
G01*
X36308000Y-49243000D01*
G75*
G02*
X36468000Y-49083000I160000J0D01*
G01*
X36863000Y-49083000D01*
G75*
G02*
X37023000Y-49243000I0J-160000D01*
G01*
G37*
%TD.AperFunction*%
%TO.P,R9,2*%
%TO.N,Net-(R7-Pad2)*%
%TA.AperFunction,SMDPad,CuDef*%
G36*
G01*
X35828000Y-49243000D02*
X35828000Y-49563000D01*
G75*
G02*
X35668000Y-49723000I-160000J0D01*
G01*
X35273000Y-49723000D01*
G75*
G02*
X35113000Y-49563000I0J160000D01*
G01*
X35113000Y-49243000D01*
G75*
G02*
X35273000Y-49083000I160000J0D01*
G01*
X35668000Y-49083000D01*
G75*
G02*
X35828000Y-49243000I0J-160000D01*
G01*
G37*
%TD.AperFunction*%
%TD*%
%TO.P,R10,2*%
%TO.N,GND*%
%TA.AperFunction,SMDPad,CuDef*%
G36*
G01*
X42051000Y-50640000D02*
X42051000Y-50960000D01*
G75*
G02*
X41891000Y-51120000I-160000J0D01*
G01*
X41496000Y-51120000D01*
G75*
G02*
X41336000Y-50960000I0J160000D01*
G01*
X41336000Y-50640000D01*
G75*
G02*
X41496000Y-50480000I160000J0D01*
G01*
X41891000Y-50480000D01*
G75*
G02*
X42051000Y-50640000I0J-160000D01*
G01*
G37*
%TD.AperFunction*%
%TO.P,R10,1*%
%TO.N,Net-(R10-Pad1)*%
%TA.AperFunction,SMDPad,CuDef*%
G36*
G01*
X43246000Y-50640000D02*
X43246000Y-50960000D01*
G75*
G02*
X43086000Y-51120000I-160000J0D01*
G01*
X42691000Y-51120000D01*
G75*
G02*
X42531000Y-50960000I0J160000D01*
G01*
X42531000Y-50640000D01*
G75*
G02*
X42691000Y-50480000I160000J0D01*
G01*
X43086000Y-50480000D01*
G75*
G02*
X43246000Y-50640000I0J-160000D01*
G01*
G37*
%TD.AperFunction*%
%TD*%
%TO.P,R12,2*%
%TO.N,+3V0*%
%TA.AperFunction,SMDPad,CuDef*%
G36*
G01*
X47865000Y-50134500D02*
X47865000Y-49814500D01*
G75*
G02*
X48025000Y-49654500I160000J0D01*
G01*
X48420000Y-49654500D01*
G75*
G02*
X48580000Y-49814500I0J-160000D01*
G01*
X48580000Y-50134500D01*
G75*
G02*
X48420000Y-50294500I-160000J0D01*
G01*
X48025000Y-50294500D01*
G75*
G02*
X47865000Y-50134500I0J160000D01*
G01*
G37*
%TD.AperFunction*%
%TO.P,R12,1*%
%TO.N,BUCK_PGOOD*%
%TA.AperFunction,SMDPad,CuDef*%
G36*
G01*
X46670000Y-50134500D02*
X46670000Y-49814500D01*
G75*
G02*
X46830000Y-49654500I160000J0D01*
G01*
X47225000Y-49654500D01*
G75*
G02*
X47385000Y-49814500I0J-160000D01*
G01*
X47385000Y-50134500D01*
G75*
G02*
X47225000Y-50294500I-160000J0D01*
G01*
X46830000Y-50294500D01*
G75*
G02*
X46670000Y-50134500I0J160000D01*
G01*
G37*
%TD.AperFunction*%
%TD*%
D14*
%TO.P,U1,1*%
%TO.N,+5V*%
X46275800Y-38798599D03*
%TO.P,U1,2*%
%TO.N,BQ_ISET*%
X46275800Y-39198601D03*
%TO.P,U1,3*%
%TO.N,GND*%
X46275800Y-39598600D03*
%TO.P,U1,4*%
%TO.N,Net-(U1-Pad4)*%
X46275800Y-39998599D03*
%TO.P,U1,5*%
%TO.N,~BQ_PG~*%
X46275800Y-40398601D03*
%TO.P,U1,6*%
%TO.N,Net-(U1-Pad6)*%
X49075800Y-40398601D03*
%TO.P,U1,7*%
%TO.N,GND*%
X49075800Y-39998599D03*
%TO.P,U1,8*%
%TO.N,~BQ_CHG~*%
X49075800Y-39598600D03*
%TO.P,U1,9*%
%TO.N,BQ_TS*%
X49075800Y-39198601D03*
%TO.P,U1,10*%
%TO.N,+BATT*%
X49075800Y-38798599D03*
D15*
%TO.P,U1,11*%
%TO.N,N/C*%
X47675800Y-39598600D03*
D16*
%TO.P,U1,V*%
X47675800Y-39598600D03*
%TD*%
%TO.P,U4,1*%
%TO.N,Net-(C13-Pad1)*%
%TA.AperFunction,SMDPad,CuDef*%
G36*
G01*
X58351300Y-51412840D02*
X58251300Y-51412840D01*
G75*
G02*
X58201300Y-51362840I0J50000D01*
G01*
X58201300Y-50262840D01*
G75*
G02*
X58251300Y-50212840I50000J0D01*
G01*
X58351300Y-50212840D01*
G75*
G02*
X58401300Y-50262840I0J-50000D01*
G01*
X58401300Y-51362840D01*
G75*
G02*
X58351300Y-51412840I-50000J0D01*
G01*
G37*
%TD.AperFunction*%
%TO.P,U4,2*%
%TO.N,XL1*%
%TA.AperFunction,SMDPad,CuDef*%
G36*
G01*
X58751300Y-51412840D02*
X58651300Y-51412840D01*
G75*
G02*
X58601300Y-51362840I0J50000D01*
G01*
X58601300Y-50262840D01*
G75*
G02*
X58651300Y-50212840I50000J0D01*
G01*
X58751300Y-50212840D01*
G75*
G02*
X58801300Y-50262840I0J-50000D01*
G01*
X58801300Y-51362840D01*
G75*
G02*
X58751300Y-51412840I-50000J0D01*
G01*
G37*
%TD.AperFunction*%
%TO.P,U4,3*%
%TO.N,XL2*%
%TA.AperFunction,SMDPad,CuDef*%
G36*
G01*
X59151300Y-51412840D02*
X59051300Y-51412840D01*
G75*
G02*
X59001300Y-51362840I0J50000D01*
G01*
X59001300Y-50262840D01*
G75*
G02*
X59051300Y-50212840I50000J0D01*
G01*
X59151300Y-50212840D01*
G75*
G02*
X59201300Y-50262840I0J-50000D01*
G01*
X59201300Y-51362840D01*
G75*
G02*
X59151300Y-51412840I-50000J0D01*
G01*
G37*
%TD.AperFunction*%
%TO.P,U4,4*%
%TO.N,Net-(U4-Pad4)*%
%TA.AperFunction,SMDPad,CuDef*%
G36*
G01*
X59551300Y-51412840D02*
X59451300Y-51412840D01*
G75*
G02*
X59401300Y-51362840I0J50000D01*
G01*
X59401300Y-50262840D01*
G75*
G02*
X59451300Y-50212840I50000J0D01*
G01*
X59551300Y-50212840D01*
G75*
G02*
X59601300Y-50262840I0J-50000D01*
G01*
X59601300Y-51362840D01*
G75*
G02*
X59551300Y-51412840I-50000J0D01*
G01*
G37*
%TD.AperFunction*%
%TO.P,U4,5*%
%TO.N,AIN1*%
%TA.AperFunction,SMDPad,CuDef*%
G36*
G01*
X59951300Y-51412840D02*
X59851300Y-51412840D01*
G75*
G02*
X59801300Y-51362840I0J50000D01*
G01*
X59801300Y-50262840D01*
G75*
G02*
X59851300Y-50212840I50000J0D01*
G01*
X59951300Y-50212840D01*
G75*
G02*
X60001300Y-50262840I0J-50000D01*
G01*
X60001300Y-51362840D01*
G75*
G02*
X59951300Y-51412840I-50000J0D01*
G01*
G37*
%TD.AperFunction*%
%TO.P,U4,6*%
%TO.N,AIN2*%
%TA.AperFunction,SMDPad,CuDef*%
G36*
G01*
X60351300Y-51412840D02*
X60251300Y-51412840D01*
G75*
G02*
X60201300Y-51362840I0J50000D01*
G01*
X60201300Y-50262840D01*
G75*
G02*
X60251300Y-50212840I50000J0D01*
G01*
X60351300Y-50212840D01*
G75*
G02*
X60401300Y-50262840I0J-50000D01*
G01*
X60401300Y-51362840D01*
G75*
G02*
X60351300Y-51412840I-50000J0D01*
G01*
G37*
%TD.AperFunction*%
%TO.P,U4,7*%
%TO.N,AIN3*%
%TA.AperFunction,SMDPad,CuDef*%
G36*
G01*
X60751300Y-51412840D02*
X60651300Y-51412840D01*
G75*
G02*
X60601300Y-51362840I0J50000D01*
G01*
X60601300Y-50262840D01*
G75*
G02*
X60651300Y-50212840I50000J0D01*
G01*
X60751300Y-50212840D01*
G75*
G02*
X60801300Y-50262840I0J-50000D01*
G01*
X60801300Y-51362840D01*
G75*
G02*
X60751300Y-51412840I-50000J0D01*
G01*
G37*
%TD.AperFunction*%
%TO.P,U4,8*%
%TO.N,Net-(U4-Pad8)*%
%TA.AperFunction,SMDPad,CuDef*%
G36*
G01*
X61151300Y-51412840D02*
X61051300Y-51412840D01*
G75*
G02*
X61001300Y-51362840I0J50000D01*
G01*
X61001300Y-50262840D01*
G75*
G02*
X61051300Y-50212840I50000J0D01*
G01*
X61151300Y-50212840D01*
G75*
G02*
X61201300Y-50262840I0J-50000D01*
G01*
X61201300Y-51362840D01*
G75*
G02*
X61151300Y-51412840I-50000J0D01*
G01*
G37*
%TD.AperFunction*%
%TO.P,U4,9*%
%TO.N,Net-(U4-Pad9)*%
%TA.AperFunction,SMDPad,CuDef*%
G36*
G01*
X61551300Y-51412840D02*
X61451300Y-51412840D01*
G75*
G02*
X61401300Y-51362840I0J50000D01*
G01*
X61401300Y-50262840D01*
G75*
G02*
X61451300Y-50212840I50000J0D01*
G01*
X61551300Y-50212840D01*
G75*
G02*
X61601300Y-50262840I0J-50000D01*
G01*
X61601300Y-51362840D01*
G75*
G02*
X61551300Y-51412840I-50000J0D01*
G01*
G37*
%TD.AperFunction*%
%TO.P,U4,10*%
%TO.N,Net-(U4-Pad10)*%
%TA.AperFunction,SMDPad,CuDef*%
G36*
G01*
X61951300Y-51412840D02*
X61851300Y-51412840D01*
G75*
G02*
X61801300Y-51362840I0J50000D01*
G01*
X61801300Y-50262840D01*
G75*
G02*
X61851300Y-50212840I50000J0D01*
G01*
X61951300Y-50212840D01*
G75*
G02*
X62001300Y-50262840I0J-50000D01*
G01*
X62001300Y-51362840D01*
G75*
G02*
X61951300Y-51412840I-50000J0D01*
G01*
G37*
%TD.AperFunction*%
%TO.P,U4,11*%
%TO.N,Net-(U4-Pad11)*%
%TA.AperFunction,SMDPad,CuDef*%
G36*
G01*
X62351300Y-51412840D02*
X62251300Y-51412840D01*
G75*
G02*
X62201300Y-51362840I0J50000D01*
G01*
X62201300Y-50262840D01*
G75*
G02*
X62251300Y-50212840I50000J0D01*
G01*
X62351300Y-50212840D01*
G75*
G02*
X62401300Y-50262840I0J-50000D01*
G01*
X62401300Y-51362840D01*
G75*
G02*
X62351300Y-51412840I-50000J0D01*
G01*
G37*
%TD.AperFunction*%
%TO.P,U4,12*%
%TO.N,Net-(U4-Pad12)*%
%TA.AperFunction,SMDPad,CuDef*%
G36*
G01*
X62751300Y-51412840D02*
X62651300Y-51412840D01*
G75*
G02*
X62601300Y-51362840I0J50000D01*
G01*
X62601300Y-50262840D01*
G75*
G02*
X62651300Y-50212840I50000J0D01*
G01*
X62751300Y-50212840D01*
G75*
G02*
X62801300Y-50262840I0J-50000D01*
G01*
X62801300Y-51362840D01*
G75*
G02*
X62751300Y-51412840I-50000J0D01*
G01*
G37*
%TD.AperFunction*%
%TO.P,U4,13*%
%TO.N,+3V0*%
%TA.AperFunction,SMDPad,CuDef*%
G36*
G01*
X64201300Y-49962840D02*
X63101300Y-49962840D01*
G75*
G02*
X63051300Y-49912840I0J50000D01*
G01*
X63051300Y-49812840D01*
G75*
G02*
X63101300Y-49762840I50000J0D01*
G01*
X64201300Y-49762840D01*
G75*
G02*
X64251300Y-49812840I0J-50000D01*
G01*
X64251300Y-49912840D01*
G75*
G02*
X64201300Y-49962840I-50000J0D01*
G01*
G37*
%TD.AperFunction*%
%TO.P,U4,14*%
%TO.N,Net-(U4-Pad14)*%
%TA.AperFunction,SMDPad,CuDef*%
G36*
G01*
X64201300Y-49562840D02*
X63101300Y-49562840D01*
G75*
G02*
X63051300Y-49512840I0J50000D01*
G01*
X63051300Y-49412840D01*
G75*
G02*
X63101300Y-49362840I50000J0D01*
G01*
X64201300Y-49362840D01*
G75*
G02*
X64251300Y-49412840I0J-50000D01*
G01*
X64251300Y-49512840D01*
G75*
G02*
X64201300Y-49562840I-50000J0D01*
G01*
G37*
%TD.AperFunction*%
%TO.P,U4,15*%
%TO.N,Net-(U4-Pad15)*%
%TA.AperFunction,SMDPad,CuDef*%
G36*
G01*
X64201300Y-49162840D02*
X63101300Y-49162840D01*
G75*
G02*
X63051300Y-49112840I0J50000D01*
G01*
X63051300Y-49012840D01*
G75*
G02*
X63101300Y-48962840I50000J0D01*
G01*
X64201300Y-48962840D01*
G75*
G02*
X64251300Y-49012840I0J-50000D01*
G01*
X64251300Y-49112840D01*
G75*
G02*
X64201300Y-49162840I-50000J0D01*
G01*
G37*
%TD.AperFunction*%
%TO.P,U4,16*%
%TO.N,Net-(U4-Pad16)*%
%TA.AperFunction,SMDPad,CuDef*%
G36*
G01*
X64201300Y-48762840D02*
X63101300Y-48762840D01*
G75*
G02*
X63051300Y-48712840I0J50000D01*
G01*
X63051300Y-48612840D01*
G75*
G02*
X63101300Y-48562840I50000J0D01*
G01*
X64201300Y-48562840D01*
G75*
G02*
X64251300Y-48612840I0J-50000D01*
G01*
X64251300Y-48712840D01*
G75*
G02*
X64201300Y-48762840I-50000J0D01*
G01*
G37*
%TD.AperFunction*%
%TO.P,U4,17*%
%TO.N,Net-(U4-Pad17)*%
%TA.AperFunction,SMDPad,CuDef*%
G36*
G01*
X64201300Y-48362840D02*
X63101300Y-48362840D01*
G75*
G02*
X63051300Y-48312840I0J50000D01*
G01*
X63051300Y-48212840D01*
G75*
G02*
X63101300Y-48162840I50000J0D01*
G01*
X64201300Y-48162840D01*
G75*
G02*
X64251300Y-48212840I0J-50000D01*
G01*
X64251300Y-48312840D01*
G75*
G02*
X64201300Y-48362840I-50000J0D01*
G01*
G37*
%TD.AperFunction*%
%TO.P,U4,18*%
%TO.N,Net-(U4-Pad18)*%
%TA.AperFunction,SMDPad,CuDef*%
G36*
G01*
X64201300Y-47962840D02*
X63101300Y-47962840D01*
G75*
G02*
X63051300Y-47912840I0J50000D01*
G01*
X63051300Y-47812840D01*
G75*
G02*
X63101300Y-47762840I50000J0D01*
G01*
X64201300Y-47762840D01*
G75*
G02*
X64251300Y-47812840I0J-50000D01*
G01*
X64251300Y-47912840D01*
G75*
G02*
X64201300Y-47962840I-50000J0D01*
G01*
G37*
%TD.AperFunction*%
%TO.P,U4,19*%
%TO.N,Net-(U4-Pad19)*%
%TA.AperFunction,SMDPad,CuDef*%
G36*
G01*
X64201300Y-47562840D02*
X63101300Y-47562840D01*
G75*
G02*
X63051300Y-47512840I0J50000D01*
G01*
X63051300Y-47412840D01*
G75*
G02*
X63101300Y-47362840I50000J0D01*
G01*
X64201300Y-47362840D01*
G75*
G02*
X64251300Y-47412840I0J-50000D01*
G01*
X64251300Y-47512840D01*
G75*
G02*
X64201300Y-47562840I-50000J0D01*
G01*
G37*
%TD.AperFunction*%
%TO.P,U4,20*%
%TO.N,Net-(U4-Pad20)*%
%TA.AperFunction,SMDPad,CuDef*%
G36*
G01*
X64201300Y-47162840D02*
X63101300Y-47162840D01*
G75*
G02*
X63051300Y-47112840I0J50000D01*
G01*
X63051300Y-47012840D01*
G75*
G02*
X63101300Y-46962840I50000J0D01*
G01*
X64201300Y-46962840D01*
G75*
G02*
X64251300Y-47012840I0J-50000D01*
G01*
X64251300Y-47112840D01*
G75*
G02*
X64201300Y-47162840I-50000J0D01*
G01*
G37*
%TD.AperFunction*%
%TO.P,U4,21*%
%TO.N,SWO*%
%TA.AperFunction,SMDPad,CuDef*%
G36*
G01*
X64201300Y-46762840D02*
X63101300Y-46762840D01*
G75*
G02*
X63051300Y-46712840I0J50000D01*
G01*
X63051300Y-46612840D01*
G75*
G02*
X63101300Y-46562840I50000J0D01*
G01*
X64201300Y-46562840D01*
G75*
G02*
X64251300Y-46612840I0J-50000D01*
G01*
X64251300Y-46712840D01*
G75*
G02*
X64201300Y-46762840I-50000J0D01*
G01*
G37*
%TD.AperFunction*%
%TO.P,U4,22*%
%TO.N,Net-(U4-Pad22)*%
%TA.AperFunction,SMDPad,CuDef*%
G36*
G01*
X64201300Y-46362840D02*
X63101300Y-46362840D01*
G75*
G02*
X63051300Y-46312840I0J50000D01*
G01*
X63051300Y-46212840D01*
G75*
G02*
X63101300Y-46162840I50000J0D01*
G01*
X64201300Y-46162840D01*
G75*
G02*
X64251300Y-46212840I0J-50000D01*
G01*
X64251300Y-46312840D01*
G75*
G02*
X64201300Y-46362840I-50000J0D01*
G01*
G37*
%TD.AperFunction*%
%TO.P,U4,23*%
%TO.N,Net-(U4-Pad23)*%
%TA.AperFunction,SMDPad,CuDef*%
G36*
G01*
X64201300Y-45962840D02*
X63101300Y-45962840D01*
G75*
G02*
X63051300Y-45912840I0J50000D01*
G01*
X63051300Y-45812840D01*
G75*
G02*
X63101300Y-45762840I50000J0D01*
G01*
X64201300Y-45762840D01*
G75*
G02*
X64251300Y-45812840I0J-50000D01*
G01*
X64251300Y-45912840D01*
G75*
G02*
X64201300Y-45962840I-50000J0D01*
G01*
G37*
%TD.AperFunction*%
%TO.P,U4,24*%
%TO.N,~RESET~*%
%TA.AperFunction,SMDPad,CuDef*%
G36*
G01*
X64201300Y-45562840D02*
X63101300Y-45562840D01*
G75*
G02*
X63051300Y-45512840I0J50000D01*
G01*
X63051300Y-45412840D01*
G75*
G02*
X63101300Y-45362840I50000J0D01*
G01*
X64201300Y-45362840D01*
G75*
G02*
X64251300Y-45412840I0J-50000D01*
G01*
X64251300Y-45512840D01*
G75*
G02*
X64201300Y-45562840I-50000J0D01*
G01*
G37*
%TD.AperFunction*%
%TO.P,U4,25*%
%TO.N,SWDCLK*%
%TA.AperFunction,SMDPad,CuDef*%
G36*
G01*
X62751300Y-45112840D02*
X62651300Y-45112840D01*
G75*
G02*
X62601300Y-45062840I0J50000D01*
G01*
X62601300Y-43962840D01*
G75*
G02*
X62651300Y-43912840I50000J0D01*
G01*
X62751300Y-43912840D01*
G75*
G02*
X62801300Y-43962840I0J-50000D01*
G01*
X62801300Y-45062840D01*
G75*
G02*
X62751300Y-45112840I-50000J0D01*
G01*
G37*
%TD.AperFunction*%
%TO.P,U4,26*%
%TO.N,SWDIO*%
%TA.AperFunction,SMDPad,CuDef*%
G36*
G01*
X62351300Y-45112840D02*
X62251300Y-45112840D01*
G75*
G02*
X62201300Y-45062840I0J50000D01*
G01*
X62201300Y-43962840D01*
G75*
G02*
X62251300Y-43912840I50000J0D01*
G01*
X62351300Y-43912840D01*
G75*
G02*
X62401300Y-43962840I0J-50000D01*
G01*
X62401300Y-45062840D01*
G75*
G02*
X62351300Y-45112840I-50000J0D01*
G01*
G37*
%TD.AperFunction*%
%TO.P,U4,27*%
%TO.N,Net-(U4-Pad27)*%
%TA.AperFunction,SMDPad,CuDef*%
G36*
G01*
X61951300Y-45112840D02*
X61851300Y-45112840D01*
G75*
G02*
X61801300Y-45062840I0J50000D01*
G01*
X61801300Y-43962840D01*
G75*
G02*
X61851300Y-43912840I50000J0D01*
G01*
X61951300Y-43912840D01*
G75*
G02*
X62001300Y-43962840I0J-50000D01*
G01*
X62001300Y-45062840D01*
G75*
G02*
X61951300Y-45112840I-50000J0D01*
G01*
G37*
%TD.AperFunction*%
%TO.P,U4,28*%
%TO.N,Net-(U4-Pad28)*%
%TA.AperFunction,SMDPad,CuDef*%
G36*
G01*
X61551300Y-45112840D02*
X61451300Y-45112840D01*
G75*
G02*
X61401300Y-45062840I0J50000D01*
G01*
X61401300Y-43962840D01*
G75*
G02*
X61451300Y-43912840I50000J0D01*
G01*
X61551300Y-43912840D01*
G75*
G02*
X61601300Y-43962840I0J-50000D01*
G01*
X61601300Y-45062840D01*
G75*
G02*
X61551300Y-45112840I-50000J0D01*
G01*
G37*
%TD.AperFunction*%
%TO.P,U4,29*%
%TO.N,Net-(U4-Pad29)*%
%TA.AperFunction,SMDPad,CuDef*%
G36*
G01*
X61151300Y-45112840D02*
X61051300Y-45112840D01*
G75*
G02*
X61001300Y-45062840I0J50000D01*
G01*
X61001300Y-43962840D01*
G75*
G02*
X61051300Y-43912840I50000J0D01*
G01*
X61151300Y-43912840D01*
G75*
G02*
X61201300Y-43962840I0J-50000D01*
G01*
X61201300Y-45062840D01*
G75*
G02*
X61151300Y-45112840I-50000J0D01*
G01*
G37*
%TD.AperFunction*%
%TO.P,U4,30*%
%TO.N,Net-(C17-Pad2)*%
%TA.AperFunction,SMDPad,CuDef*%
G36*
G01*
X60751300Y-45112840D02*
X60651300Y-45112840D01*
G75*
G02*
X60601300Y-45062840I0J50000D01*
G01*
X60601300Y-43962840D01*
G75*
G02*
X60651300Y-43912840I50000J0D01*
G01*
X60751300Y-43912840D01*
G75*
G02*
X60801300Y-43962840I0J-50000D01*
G01*
X60801300Y-45062840D01*
G75*
G02*
X60751300Y-45112840I-50000J0D01*
G01*
G37*
%TD.AperFunction*%
%TO.P,U4,31*%
%TO.N,GND*%
%TA.AperFunction,SMDPad,CuDef*%
G36*
G01*
X60351300Y-45112840D02*
X60251300Y-45112840D01*
G75*
G02*
X60201300Y-45062840I0J50000D01*
G01*
X60201300Y-43962840D01*
G75*
G02*
X60251300Y-43912840I50000J0D01*
G01*
X60351300Y-43912840D01*
G75*
G02*
X60401300Y-43962840I0J-50000D01*
G01*
X60401300Y-45062840D01*
G75*
G02*
X60351300Y-45112840I-50000J0D01*
G01*
G37*
%TD.AperFunction*%
%TO.P,U4,32*%
%TO.N,Net-(C12-Pad1)*%
%TA.AperFunction,SMDPad,CuDef*%
G36*
G01*
X59951300Y-45112840D02*
X59851300Y-45112840D01*
G75*
G02*
X59801300Y-45062840I0J50000D01*
G01*
X59801300Y-43962840D01*
G75*
G02*
X59851300Y-43912840I50000J0D01*
G01*
X59951300Y-43912840D01*
G75*
G02*
X60001300Y-43962840I0J-50000D01*
G01*
X60001300Y-45062840D01*
G75*
G02*
X59951300Y-45112840I-50000J0D01*
G01*
G37*
%TD.AperFunction*%
%TO.P,U4,33*%
%TO.N,Net-(C11-Pad1)*%
%TA.AperFunction,SMDPad,CuDef*%
G36*
G01*
X59551300Y-45112840D02*
X59451300Y-45112840D01*
G75*
G02*
X59401300Y-45062840I0J50000D01*
G01*
X59401300Y-43962840D01*
G75*
G02*
X59451300Y-43912840I50000J0D01*
G01*
X59551300Y-43912840D01*
G75*
G02*
X59601300Y-43962840I0J-50000D01*
G01*
X59601300Y-45062840D01*
G75*
G02*
X59551300Y-45112840I-50000J0D01*
G01*
G37*
%TD.AperFunction*%
%TO.P,U4,34*%
%TO.N,Net-(C18-Pad1)*%
%TA.AperFunction,SMDPad,CuDef*%
G36*
G01*
X59151300Y-45112840D02*
X59051300Y-45112840D01*
G75*
G02*
X59001300Y-45062840I0J50000D01*
G01*
X59001300Y-43962840D01*
G75*
G02*
X59051300Y-43912840I50000J0D01*
G01*
X59151300Y-43912840D01*
G75*
G02*
X59201300Y-43962840I0J-50000D01*
G01*
X59201300Y-45062840D01*
G75*
G02*
X59151300Y-45112840I-50000J0D01*
G01*
G37*
%TD.AperFunction*%
%TO.P,U4,35*%
%TO.N,Net-(C19-Pad1)*%
%TA.AperFunction,SMDPad,CuDef*%
G36*
G01*
X58751300Y-45112840D02*
X58651300Y-45112840D01*
G75*
G02*
X58601300Y-45062840I0J50000D01*
G01*
X58601300Y-43962840D01*
G75*
G02*
X58651300Y-43912840I50000J0D01*
G01*
X58751300Y-43912840D01*
G75*
G02*
X58801300Y-43962840I0J-50000D01*
G01*
X58801300Y-45062840D01*
G75*
G02*
X58751300Y-45112840I-50000J0D01*
G01*
G37*
%TD.AperFunction*%
%TO.P,U4,36*%
%TO.N,+3V0*%
%TA.AperFunction,SMDPad,CuDef*%
G36*
G01*
X58351300Y-45112840D02*
X58251300Y-45112840D01*
G75*
G02*
X58201300Y-45062840I0J50000D01*
G01*
X58201300Y-43962840D01*
G75*
G02*
X58251300Y-43912840I50000J0D01*
G01*
X58351300Y-43912840D01*
G75*
G02*
X58401300Y-43962840I0J-50000D01*
G01*
X58401300Y-45062840D01*
G75*
G02*
X58351300Y-45112840I-50000J0D01*
G01*
G37*
%TD.AperFunction*%
%TO.P,U4,37*%
%TO.N,Net-(U4-Pad37)*%
%TA.AperFunction,SMDPad,CuDef*%
G36*
G01*
X57901300Y-45562840D02*
X56801300Y-45562840D01*
G75*
G02*
X56751300Y-45512840I0J50000D01*
G01*
X56751300Y-45412840D01*
G75*
G02*
X56801300Y-45362840I50000J0D01*
G01*
X57901300Y-45362840D01*
G75*
G02*
X57951300Y-45412840I0J-50000D01*
G01*
X57951300Y-45512840D01*
G75*
G02*
X57901300Y-45562840I-50000J0D01*
G01*
G37*
%TD.AperFunction*%
%TO.P,U4,38*%
%TO.N,SPI_01_CS*%
%TA.AperFunction,SMDPad,CuDef*%
G36*
G01*
X57901300Y-45962840D02*
X56801300Y-45962840D01*
G75*
G02*
X56751300Y-45912840I0J50000D01*
G01*
X56751300Y-45812840D01*
G75*
G02*
X56801300Y-45762840I50000J0D01*
G01*
X57901300Y-45762840D01*
G75*
G02*
X57951300Y-45812840I0J-50000D01*
G01*
X57951300Y-45912840D01*
G75*
G02*
X57901300Y-45962840I-50000J0D01*
G01*
G37*
%TD.AperFunction*%
%TO.P,U4,39*%
%TO.N,SPI_SCK*%
%TA.AperFunction,SMDPad,CuDef*%
G36*
G01*
X57901300Y-46362840D02*
X56801300Y-46362840D01*
G75*
G02*
X56751300Y-46312840I0J50000D01*
G01*
X56751300Y-46212840D01*
G75*
G02*
X56801300Y-46162840I50000J0D01*
G01*
X57901300Y-46162840D01*
G75*
G02*
X57951300Y-46212840I0J-50000D01*
G01*
X57951300Y-46312840D01*
G75*
G02*
X57901300Y-46362840I-50000J0D01*
G01*
G37*
%TD.AperFunction*%
%TO.P,U4,40*%
%TO.N,ACCEL_INT1*%
%TA.AperFunction,SMDPad,CuDef*%
G36*
G01*
X57901300Y-46762840D02*
X56801300Y-46762840D01*
G75*
G02*
X56751300Y-46712840I0J50000D01*
G01*
X56751300Y-46612840D01*
G75*
G02*
X56801300Y-46562840I50000J0D01*
G01*
X57901300Y-46562840D01*
G75*
G02*
X57951300Y-46612840I0J-50000D01*
G01*
X57951300Y-46712840D01*
G75*
G02*
X57901300Y-46762840I-50000J0D01*
G01*
G37*
%TD.AperFunction*%
%TO.P,U4,41*%
%TO.N,ACCEL_INT2*%
%TA.AperFunction,SMDPad,CuDef*%
G36*
G01*
X57901300Y-47162840D02*
X56801300Y-47162840D01*
G75*
G02*
X56751300Y-47112840I0J50000D01*
G01*
X56751300Y-47012840D01*
G75*
G02*
X56801300Y-46962840I50000J0D01*
G01*
X57901300Y-46962840D01*
G75*
G02*
X57951300Y-47012840I0J-50000D01*
G01*
X57951300Y-47112840D01*
G75*
G02*
X57901300Y-47162840I-50000J0D01*
G01*
G37*
%TD.AperFunction*%
%TO.P,U4,42*%
%TO.N,SPI_MISO*%
%TA.AperFunction,SMDPad,CuDef*%
G36*
G01*
X57901300Y-47562840D02*
X56801300Y-47562840D01*
G75*
G02*
X56751300Y-47512840I0J50000D01*
G01*
X56751300Y-47412840D01*
G75*
G02*
X56801300Y-47362840I50000J0D01*
G01*
X57901300Y-47362840D01*
G75*
G02*
X57951300Y-47412840I0J-50000D01*
G01*
X57951300Y-47512840D01*
G75*
G02*
X57901300Y-47562840I-50000J0D01*
G01*
G37*
%TD.AperFunction*%
%TO.P,U4,43*%
%TO.N,SPI_MOSI*%
%TA.AperFunction,SMDPad,CuDef*%
G36*
G01*
X57901300Y-47962840D02*
X56801300Y-47962840D01*
G75*
G02*
X56751300Y-47912840I0J50000D01*
G01*
X56751300Y-47812840D01*
G75*
G02*
X56801300Y-47762840I50000J0D01*
G01*
X57901300Y-47762840D01*
G75*
G02*
X57951300Y-47812840I0J-50000D01*
G01*
X57951300Y-47912840D01*
G75*
G02*
X57901300Y-47962840I-50000J0D01*
G01*
G37*
%TD.AperFunction*%
%TO.P,U4,44*%
%TO.N,Net-(U4-Pad44)*%
%TA.AperFunction,SMDPad,CuDef*%
G36*
G01*
X57901300Y-48362840D02*
X56801300Y-48362840D01*
G75*
G02*
X56751300Y-48312840I0J50000D01*
G01*
X56751300Y-48212840D01*
G75*
G02*
X56801300Y-48162840I50000J0D01*
G01*
X57901300Y-48162840D01*
G75*
G02*
X57951300Y-48212840I0J-50000D01*
G01*
X57951300Y-48312840D01*
G75*
G02*
X57901300Y-48362840I-50000J0D01*
G01*
G37*
%TD.AperFunction*%
%TO.P,U4,45*%
%TO.N,GND*%
%TA.AperFunction,SMDPad,CuDef*%
G36*
G01*
X57901300Y-48762840D02*
X56801300Y-48762840D01*
G75*
G02*
X56751300Y-48712840I0J50000D01*
G01*
X56751300Y-48612840D01*
G75*
G02*
X56801300Y-48562840I50000J0D01*
G01*
X57901300Y-48562840D01*
G75*
G02*
X57951300Y-48612840I0J-50000D01*
G01*
X57951300Y-48712840D01*
G75*
G02*
X57901300Y-48762840I-50000J0D01*
G01*
G37*
%TD.AperFunction*%
%TO.P,U4,46*%
%TO.N,Net-(C14-Pad1)*%
%TA.AperFunction,SMDPad,CuDef*%
G36*
G01*
X57901300Y-49162840D02*
X56801300Y-49162840D01*
G75*
G02*
X56751300Y-49112840I0J50000D01*
G01*
X56751300Y-49012840D01*
G75*
G02*
X56801300Y-48962840I50000J0D01*
G01*
X57901300Y-48962840D01*
G75*
G02*
X57951300Y-49012840I0J-50000D01*
G01*
X57951300Y-49112840D01*
G75*
G02*
X57901300Y-49162840I-50000J0D01*
G01*
G37*
%TD.AperFunction*%
%TO.P,U4,47*%
%TO.N,Net-(L3-Pad1)*%
%TA.AperFunction,SMDPad,CuDef*%
G36*
G01*
X57901300Y-49562840D02*
X56801300Y-49562840D01*
G75*
G02*
X56751300Y-49512840I0J50000D01*
G01*
X56751300Y-49412840D01*
G75*
G02*
X56801300Y-49362840I50000J0D01*
G01*
X57901300Y-49362840D01*
G75*
G02*
X57951300Y-49412840I0J-50000D01*
G01*
X57951300Y-49512840D01*
G75*
G02*
X57901300Y-49562840I-50000J0D01*
G01*
G37*
%TD.AperFunction*%
%TO.P,U4,48*%
%TO.N,+3V0*%
%TA.AperFunction,SMDPad,CuDef*%
G36*
G01*
X57901300Y-49962840D02*
X56801300Y-49962840D01*
G75*
G02*
X56751300Y-49912840I0J50000D01*
G01*
X56751300Y-49812840D01*
G75*
G02*
X56801300Y-49762840I50000J0D01*
G01*
X57901300Y-49762840D01*
G75*
G02*
X57951300Y-49812840I0J-50000D01*
G01*
X57951300Y-49912840D01*
G75*
G02*
X57901300Y-49962840I-50000J0D01*
G01*
G37*
%TD.AperFunction*%
D17*
%TO.P,U4,49*%
%TO.N,GND*%
X60501300Y-47662840D03*
%TD*%
D18*
%TO.P,U5,12*%
%TO.N,ACCEL_INT1*%
X52188000Y-46100000D03*
%TO.P,U5,11*%
%TO.N,ACCEL_INT2*%
X52188000Y-46600000D03*
%TO.P,U5,6*%
%TO.N,GND*%
X50288000Y-46600000D03*
%TO.P,U5,5*%
X50288000Y-46100000D03*
D19*
%TO.P,U5,10*%
%TO.N,+3V0*%
X51988000Y-47287500D03*
%TO.P,U5,1*%
%TO.N,SPI_SCK*%
X51988000Y-45412500D03*
%TO.P,U5,7*%
%TO.N,GND*%
X50488000Y-47287500D03*
%TO.P,U5,4*%
%TO.N,SPI_MOSI*%
X50488000Y-45412500D03*
%TO.P,U5,8*%
%TO.N,GND*%
X50988000Y-47287500D03*
%TO.P,U5,9*%
%TO.N,+3V0*%
X51488000Y-47287500D03*
%TO.P,U5,3*%
%TO.N,SPI_MISO*%
X50988000Y-45412500D03*
%TO.P,U5,2*%
%TO.N,SPI_01_CS*%
X51488000Y-45412500D03*
%TD*%
D20*
%TO.P,Y2,4*%
%TO.N,GND*%
X56104000Y-40365000D03*
%TO.P,Y2,3*%
%TO.N,Net-(C19-Pad1)*%
X56104000Y-42265000D03*
%TO.P,Y2,2*%
%TO.N,GND*%
X54704000Y-42265000D03*
%TO.P,Y2,1*%
%TO.N,Net-(C18-Pad1)*%
X54704000Y-40365000D03*
%TD*%
%TO.P,C5,1*%
%TO.N,+3V0*%
%TA.AperFunction,SMDPad,CuDef*%
G36*
G01*
X52913000Y-47653000D02*
X52913000Y-47343000D01*
G75*
G02*
X53068000Y-47188000I155000J0D01*
G01*
X53493000Y-47188000D01*
G75*
G02*
X53648000Y-47343000I0J-155000D01*
G01*
X53648000Y-47653000D01*
G75*
G02*
X53493000Y-47808000I-155000J0D01*
G01*
X53068000Y-47808000D01*
G75*
G02*
X52913000Y-47653000I0J155000D01*
G01*
G37*
%TD.AperFunction*%
%TO.P,C5,2*%
%TO.N,GND*%
%TA.AperFunction,SMDPad,CuDef*%
G36*
G01*
X54048000Y-47653000D02*
X54048000Y-47343000D01*
G75*
G02*
X54203000Y-47188000I155000J0D01*
G01*
X54628000Y-47188000D01*
G75*
G02*
X54783000Y-47343000I0J-155000D01*
G01*
X54783000Y-47653000D01*
G75*
G02*
X54628000Y-47808000I-155000J0D01*
G01*
X54203000Y-47808000D01*
G75*
G02*
X54048000Y-47653000I0J155000D01*
G01*
G37*
%TD.AperFunction*%
%TD*%
D21*
%TO.P,H17,1*%
%TO.N,+BATT*%
X43434000Y-47498000D03*
%TD*%
%TO.P,H18,1*%
%TO.N,GND*%
X46990000Y-45339000D03*
%TD*%
D22*
%TO.P,J1,S1*%
%TO.N,Net-(J1-PadS1)*%
X39395000Y-37336000D03*
X39395000Y-45976000D03*
D23*
X35225000Y-37336000D03*
X35225000Y-45976000D03*
D24*
%TO.P,J1,B7*%
%TO.N,Net-(J1-PadB7)*%
X40125000Y-40906000D03*
%TO.P,J1,A6*%
%TO.N,Net-(J1-PadA6)*%
X40125000Y-41406000D03*
%TO.P,J1,A7*%
%TO.N,Net-(J1-PadA7)*%
X40125000Y-41906000D03*
%TO.P,J1,B8*%
%TO.N,Net-(J1-PadB8)*%
X40125000Y-39906000D03*
%TO.P,J1,A5*%
%TO.N,Net-(J1-PadA5)*%
X40125000Y-40406000D03*
%TO.P,J1,A8*%
%TO.N,Net-(J1-PadA8)*%
X40125000Y-42906000D03*
%TO.P,J1,B6*%
%TO.N,Net-(J1-PadB6)*%
X40125000Y-42406000D03*
%TO.P,J1,B5*%
%TO.N,Net-(J1-PadB5)*%
X40125000Y-43406000D03*
D25*
%TO.P,J1,A4*%
%TO.N,+5V*%
X40125000Y-39256000D03*
%TO.P,J1,B9*%
X40125000Y-39256000D03*
%TO.P,J1,A1*%
%TO.N,GND*%
X40125000Y-38456000D03*
%TO.P,J1,B12*%
X40125000Y-38456000D03*
%TO.P,J1,B4*%
%TO.N,+5V*%
X40125000Y-44056000D03*
%TO.P,J1,B1*%
%TO.N,GND*%
X40125000Y-44856000D03*
%TO.P,J1,A9*%
%TO.N,+5V*%
X40125000Y-44056000D03*
%TO.P,J1,A12*%
%TO.N,GND*%
X40125000Y-44856000D03*
%TD*%
D26*
%TO.P,AE1,4*%
%TO.N,Net-(AE1-Pad4)*%
X66100000Y-40800000D03*
%TO.P,AE1,3*%
%TO.N,GND*%
X66100000Y-37800000D03*
%TO.P,AE1,2*%
X67400000Y-37800000D03*
%TO.P,AE1,1*%
X67400000Y-40800000D03*
%TD*%
D27*
%TO.P,U3,1*%
%TO.N,GND*%
X44234100Y-52943100D03*
%TO.P,U3,2*%
%TO.N,+BATT*%
X44634150Y-52943100D03*
%TO.P,U3,3*%
%TO.N,BUCK_SW*%
X45034200Y-52943100D03*
%TO.P,U3,4*%
%TO.N,GND*%
X45434250Y-52943100D03*
%TO.P,U3,5*%
%TO.N,+3V0*%
X45834300Y-52943100D03*
D28*
%TO.P,U3,6*%
%TO.N,BUCK_Vout2*%
X46161300Y-51968400D03*
D27*
%TO.P,U3,7*%
%TO.N,BUCK_PGOOD*%
X45834300Y-50993700D03*
%TO.P,U3,8*%
%TO.N,Net-(R10-Pad1)*%
X45434250Y-50993700D03*
%TO.P,U3,9*%
%TO.N,GND*%
X45034200Y-50993700D03*
%TO.P,U3,10*%
X44634150Y-50993700D03*
%TO.P,U3,11*%
%TO.N,+BATT*%
X44234100Y-50993700D03*
D28*
%TO.P,U3,12*%
%TO.N,EN*%
X43907100Y-51968400D03*
%TD*%
%TO.P,R1,1*%
%TO.N,Net-(D1-Pad1)*%
%TA.AperFunction,SMDPad,CuDef*%
G36*
G01*
X42148000Y-41019000D02*
X42468000Y-41019000D01*
G75*
G02*
X42628000Y-41179000I0J-160000D01*
G01*
X42628000Y-41574000D01*
G75*
G02*
X42468000Y-41734000I-160000J0D01*
G01*
X42148000Y-41734000D01*
G75*
G02*
X41988000Y-41574000I0J160000D01*
G01*
X41988000Y-41179000D01*
G75*
G02*
X42148000Y-41019000I160000J0D01*
G01*
G37*
%TD.AperFunction*%
%TO.P,R1,2*%
%TO.N,GND*%
%TA.AperFunction,SMDPad,CuDef*%
G36*
G01*
X42148000Y-42214000D02*
X42468000Y-42214000D01*
G75*
G02*
X42628000Y-42374000I0J-160000D01*
G01*
X42628000Y-42769000D01*
G75*
G02*
X42468000Y-42929000I-160000J0D01*
G01*
X42148000Y-42929000D01*
G75*
G02*
X41988000Y-42769000I0J160000D01*
G01*
X41988000Y-42374000D01*
G75*
G02*
X42148000Y-42214000I160000J0D01*
G01*
G37*
%TD.AperFunction*%
%TD*%
%TO.P,R4,1*%
%TO.N,Net-(D2-Pad2)*%
%TA.AperFunction,SMDPad,CuDef*%
G36*
G01*
X49624000Y-41717000D02*
X49944000Y-41717000D01*
G75*
G02*
X50104000Y-41877000I0J-160000D01*
G01*
X50104000Y-42272000D01*
G75*
G02*
X49944000Y-42432000I-160000J0D01*
G01*
X49624000Y-42432000D01*
G75*
G02*
X49464000Y-42272000I0J160000D01*
G01*
X49464000Y-41877000D01*
G75*
G02*
X49624000Y-41717000I160000J0D01*
G01*
G37*
%TD.AperFunction*%
%TO.P,R4,2*%
%TO.N,+BATT*%
%TA.AperFunction,SMDPad,CuDef*%
G36*
G01*
X49624000Y-42912000D02*
X49944000Y-42912000D01*
G75*
G02*
X50104000Y-43072000I0J-160000D01*
G01*
X50104000Y-43467000D01*
G75*
G02*
X49944000Y-43627000I-160000J0D01*
G01*
X49624000Y-43627000D01*
G75*
G02*
X49464000Y-43467000I0J160000D01*
G01*
X49464000Y-43072000D01*
G75*
G02*
X49624000Y-42912000I160000J0D01*
G01*
G37*
%TD.AperFunction*%
%TD*%
%TO.P,R5,2*%
%TO.N,+BATT*%
%TA.AperFunction,SMDPad,CuDef*%
G36*
G01*
X52084000Y-42766000D02*
X52084000Y-43086000D01*
G75*
G02*
X51924000Y-43246000I-160000J0D01*
G01*
X51529000Y-43246000D01*
G75*
G02*
X51369000Y-43086000I0J160000D01*
G01*
X51369000Y-42766000D01*
G75*
G02*
X51529000Y-42606000I160000J0D01*
G01*
X51924000Y-42606000D01*
G75*
G02*
X52084000Y-42766000I0J-160000D01*
G01*
G37*
%TD.AperFunction*%
%TO.P,R5,1*%
%TO.N,Net-(D3-Pad2)*%
%TA.AperFunction,SMDPad,CuDef*%
G36*
G01*
X53279000Y-42766000D02*
X53279000Y-43086000D01*
G75*
G02*
X53119000Y-43246000I-160000J0D01*
G01*
X52724000Y-43246000D01*
G75*
G02*
X52564000Y-43086000I0J160000D01*
G01*
X52564000Y-42766000D01*
G75*
G02*
X52724000Y-42606000I160000J0D01*
G01*
X53119000Y-42606000D01*
G75*
G02*
X53279000Y-42766000I0J-160000D01*
G01*
G37*
%TD.AperFunction*%
%TD*%
%TO.P,R11,2*%
%TO.N,GND*%
%TA.AperFunction,SMDPad,CuDef*%
G36*
G01*
X53840000Y-54640000D02*
X54160000Y-54640000D01*
G75*
G02*
X54320000Y-54800000I0J-160000D01*
G01*
X54320000Y-55195000D01*
G75*
G02*
X54160000Y-55355000I-160000J0D01*
G01*
X53840000Y-55355000D01*
G75*
G02*
X53680000Y-55195000I0J160000D01*
G01*
X53680000Y-54800000D01*
G75*
G02*
X53840000Y-54640000I160000J0D01*
G01*
G37*
%TD.AperFunction*%
%TO.P,R11,1*%
%TO.N,Net-(D5-Pad1)*%
%TA.AperFunction,SMDPad,CuDef*%
G36*
G01*
X53840000Y-53445000D02*
X54160000Y-53445000D01*
G75*
G02*
X54320000Y-53605000I0J-160000D01*
G01*
X54320000Y-54000000D01*
G75*
G02*
X54160000Y-54160000I-160000J0D01*
G01*
X53840000Y-54160000D01*
G75*
G02*
X53680000Y-54000000I0J160000D01*
G01*
X53680000Y-53605000D01*
G75*
G02*
X53840000Y-53445000I160000J0D01*
G01*
G37*
%TD.AperFunction*%
%TD*%
%TO.P,L1,1*%
%TO.N,BUCK_SW*%
%TA.AperFunction,SMDPad,CuDef*%
G36*
G01*
X45009000Y-55568001D02*
X45009000Y-54667999D01*
G75*
G02*
X45258999Y-54418000I249999J0D01*
G01*
X45909001Y-54418000D01*
G75*
G02*
X46159000Y-54667999I0J-249999D01*
G01*
X46159000Y-55568001D01*
G75*
G02*
X45909001Y-55818000I-249999J0D01*
G01*
X45258999Y-55818000D01*
G75*
G02*
X45009000Y-55568001I0J249999D01*
G01*
G37*
%TD.AperFunction*%
%TO.P,L1,2*%
%TO.N,+3V0*%
%TA.AperFunction,SMDPad,CuDef*%
G36*
G01*
X47059000Y-55568001D02*
X47059000Y-54667999D01*
G75*
G02*
X47308999Y-54418000I249999J0D01*
G01*
X47959001Y-54418000D01*
G75*
G02*
X48209000Y-54667999I0J-249999D01*
G01*
X48209000Y-55568001D01*
G75*
G02*
X47959001Y-55818000I-249999J0D01*
G01*
X47308999Y-55818000D01*
G75*
G02*
X47059000Y-55568001I0J249999D01*
G01*
G37*
%TD.AperFunction*%
%TD*%
%TO.P,C3,1*%
%TO.N,+BATT*%
%TA.AperFunction,SMDPad,CuDef*%
G36*
G01*
X37007000Y-47660500D02*
X37007000Y-47970500D01*
G75*
G02*
X36852000Y-48125500I-155000J0D01*
G01*
X36427000Y-48125500D01*
G75*
G02*
X36272000Y-47970500I0J155000D01*
G01*
X36272000Y-47660500D01*
G75*
G02*
X36427000Y-47505500I155000J0D01*
G01*
X36852000Y-47505500D01*
G75*
G02*
X37007000Y-47660500I0J-155000D01*
G01*
G37*
%TD.AperFunction*%
%TO.P,C3,2*%
%TO.N,GND*%
%TA.AperFunction,SMDPad,CuDef*%
G36*
G01*
X35872000Y-47660500D02*
X35872000Y-47970500D01*
G75*
G02*
X35717000Y-48125500I-155000J0D01*
G01*
X35292000Y-48125500D01*
G75*
G02*
X35137000Y-47970500I0J155000D01*
G01*
X35137000Y-47660500D01*
G75*
G02*
X35292000Y-47505500I155000J0D01*
G01*
X35717000Y-47505500D01*
G75*
G02*
X35872000Y-47660500I0J-155000D01*
G01*
G37*
%TD.AperFunction*%
%TD*%
D29*
%TO.N,+5V*%
X41219700Y-43720302D03*
X41500000Y-37000000D03*
X43100000Y-37400000D03*
X44200000Y-37300000D03*
X44300000Y-38000000D03*
X38100000Y-42926000D03*
X38354000Y-40132000D03*
X41376600Y-44259500D03*
X41287700Y-39535100D03*
%TO.N,BUCK_PGOOD*%
X46355000Y-49911000D03*
%TO.N,SPI_01_CS*%
X56480000Y-45835840D03*
X51940000Y-44680000D03*
%TO.N,AIN1*%
X60255360Y-51963030D03*
%TO.N,AIN2*%
X61821635Y-52376765D03*
%TO.N,AIN3*%
X62598300Y-52324000D03*
%TO.N,SWDIO*%
X62300000Y-43600000D03*
%TO.N,SWDCLK*%
X63200000Y-43700000D03*
%TO.N,SWO*%
X64673000Y-46800000D03*
%TO.N,~RESET~*%
X64700000Y-45500000D03*
%TO.N,SPI_MISO*%
X51020000Y-44660000D03*
X55730000Y-47489840D03*
%TO.N,SPI_MOSI*%
X50040000Y-44740000D03*
X55830000Y-48300000D03*
%TO.N,+3V0*%
X49500000Y-55190000D03*
X48920000Y-49980000D03*
X47820000Y-49360000D03*
X48450000Y-55080000D03*
X46860000Y-54320000D03*
X47250000Y-53900000D03*
X48710000Y-53960000D03*
X48040000Y-52510000D03*
X55245000Y-53848000D03*
X49657000Y-55753000D03*
X53340000Y-46863000D03*
X52705000Y-47879000D03*
X51816000Y-47879000D03*
X51562000Y-48895000D03*
X64897000Y-50165000D03*
X65405000Y-51181000D03*
X56642000Y-51943000D03*
X55820000Y-45400000D03*
X56850000Y-44320000D03*
%TO.N,GND*%
X41021000Y-37973000D03*
X40767000Y-45466000D03*
X45250000Y-39650601D03*
X50130000Y-40050600D03*
X44210000Y-41600000D03*
X44940000Y-40790000D03*
X46750000Y-38060000D03*
X47530000Y-37570000D03*
X47630000Y-37050000D03*
X48520000Y-38060000D03*
X53870000Y-38080000D03*
X54670000Y-37330000D03*
X56650000Y-39020000D03*
X54200000Y-44880000D03*
X64190000Y-51970000D03*
X64850000Y-52660000D03*
X64710000Y-55370000D03*
X64080000Y-55940000D03*
X58820000Y-52410000D03*
X58160000Y-53640000D03*
X54760000Y-55502002D03*
X53340000Y-55850000D03*
X50570000Y-53340000D03*
X49760000Y-54070000D03*
X49090000Y-52670000D03*
X50600000Y-51550000D03*
X50390000Y-50540000D03*
X49740000Y-50480000D03*
X60290000Y-42240000D03*
X65360000Y-43330000D03*
X66280000Y-43360000D03*
X66260000Y-42470000D03*
X57531000Y-40513000D03*
X58039000Y-39878000D03*
X59309000Y-39370000D03*
X59944000Y-39878000D03*
X51308000Y-52451000D03*
X52070000Y-53340000D03*
X42037000Y-53467000D03*
X34417000Y-54864000D03*
X36068000Y-54864000D03*
X35179000Y-55753000D03*
X34290000Y-50673000D03*
X34417000Y-50038000D03*
X40894000Y-50800000D03*
X41656000Y-50165000D03*
X42799000Y-52705000D03*
D30*
X38862000Y-50927000D03*
X38862000Y-53213000D03*
X43180000Y-42926000D03*
X42672000Y-43815000D03*
D29*
X54991000Y-47879000D03*
X51054000Y-46482000D03*
X49784000Y-47244000D03*
X49657000Y-46736000D03*
X49657000Y-46101000D03*
X54102000Y-48973000D03*
X54102000Y-48260000D03*
X44958000Y-51943000D03*
X44580267Y-50037184D03*
X45847000Y-53901902D03*
X67325000Y-37050000D03*
X66625000Y-37050000D03*
X65825000Y-37075000D03*
X65050000Y-37075000D03*
X64125000Y-37075000D03*
X63300000Y-37050000D03*
X62400000Y-37050000D03*
X61225000Y-37075000D03*
X61225000Y-38050000D03*
X61275000Y-39075000D03*
X61375000Y-40250000D03*
X61425000Y-41475000D03*
X62375000Y-41600000D03*
X63425000Y-41575000D03*
X64100000Y-41525000D03*
X67425000Y-41725000D03*
X67350000Y-42650000D03*
X67325000Y-43475000D03*
X67375000Y-44350000D03*
X67425000Y-45425000D03*
X67350000Y-46675000D03*
X65700000Y-46700000D03*
X65650000Y-45500000D03*
X65750000Y-44375000D03*
X60050000Y-37125000D03*
X58725000Y-37100000D03*
X57500000Y-37125000D03*
X57500000Y-38200000D03*
X57550000Y-39250000D03*
X67400000Y-47700000D03*
X67400000Y-48800000D03*
X65800000Y-48800000D03*
X65800000Y-47700000D03*
X57700000Y-44100000D03*
X63800000Y-44700000D03*
X55499000Y-39624000D03*
X55245000Y-41656000D03*
X55245000Y-43053000D03*
X54991000Y-45420001D03*
X54483000Y-43053000D03*
X55431002Y-40259000D03*
X56193029Y-48963029D03*
X65900000Y-50000000D03*
X67400000Y-50000000D03*
X67400000Y-51300000D03*
X67400000Y-52600000D03*
X67400000Y-55600000D03*
X67400000Y-54100000D03*
X65900000Y-55600000D03*
X65900000Y-54100000D03*
X65700000Y-52000000D03*
X48704500Y-47625000D03*
X49847500Y-49466500D03*
X48133000Y-48323500D03*
D30*
X34607500Y-47815500D03*
D29*
X57010300Y-54190900D03*
X58026300Y-54254400D03*
X58674000Y-53657500D03*
X41236900Y-38582600D03*
X41694100Y-45212000D03*
X55867300Y-55384700D03*
%TO.N,+BATT*%
X43561000Y-55372000D03*
X42037000Y-55245000D03*
X34163000Y-53086000D03*
X34962500Y-52488500D03*
X34290000Y-51816000D03*
D30*
X48895000Y-43561000D03*
X50753000Y-43584500D03*
X52070000Y-43688000D03*
D29*
X43815000Y-51181000D03*
X50400000Y-38100000D03*
X51100000Y-37300000D03*
D30*
X37592000Y-47815500D03*
%TD*%
D31*
%TO.N,+5V*%
X40884002Y-44056000D02*
X41219700Y-43720302D01*
X40125000Y-44056000D02*
X40884002Y-44056000D01*
D32*
X41899000Y-37399000D02*
X41500000Y-37000000D01*
X42308000Y-37399000D02*
X41899000Y-37399000D01*
X43099000Y-37399000D02*
X43100000Y-37400000D01*
X42308000Y-37399000D02*
X43099000Y-37399000D01*
D33*
X46275800Y-38798599D02*
X45798599Y-38798599D01*
X45011000Y-38011000D02*
X45011000Y-37312600D01*
X45798599Y-38798599D02*
X45011000Y-38011000D01*
X44212600Y-37312600D02*
X44200000Y-37300000D01*
X45011000Y-37312600D02*
X44212600Y-37312600D01*
X44987400Y-37312600D02*
X44300000Y-38000000D01*
X45011000Y-37312600D02*
X44987400Y-37312600D01*
D31*
X41426000Y-44056000D02*
X41450000Y-44080000D01*
X40125000Y-44056000D02*
X41426000Y-44056000D01*
X40125000Y-44056000D02*
X39230000Y-44056000D01*
X39230000Y-44056000D02*
X38100000Y-42926000D01*
X39230000Y-39256000D02*
X38354000Y-40132000D01*
X40125000Y-39256000D02*
X39230000Y-39256000D01*
D32*
X41426000Y-44210100D02*
X41376600Y-44259500D01*
X41426000Y-44056000D02*
X41426000Y-44210100D01*
X41173100Y-44056000D02*
X41376600Y-44259500D01*
X40125000Y-44056000D02*
X41173100Y-44056000D01*
X41376600Y-43877202D02*
X41219700Y-43720302D01*
X41376600Y-44259500D02*
X41376600Y-43877202D01*
D31*
X41008600Y-39256000D02*
X41287700Y-39535100D01*
X40125000Y-39256000D02*
X41008600Y-39256000D01*
D34*
%TO.N,BUCK_Vout2*%
X47372100Y-51968400D02*
X48032500Y-51308000D01*
X46161300Y-51968400D02*
X47372100Y-51968400D01*
D32*
%TO.N,Net-(C11-Pad1)*%
X58060000Y-41981706D02*
X58060000Y-41715500D01*
X59501300Y-43423006D02*
X58060000Y-41981706D01*
X59501300Y-44512840D02*
X59501300Y-43423006D01*
%TO.N,Net-(C12-Pad1)*%
X59330000Y-42789246D02*
X59330000Y-41112500D01*
X59901300Y-43360546D02*
X59330000Y-42789246D01*
X59901300Y-44512840D02*
X59901300Y-43360546D01*
%TO.N,Net-(C13-Pad1)*%
X58301300Y-51747200D02*
X57550000Y-52498500D01*
X58301300Y-50812840D02*
X58301300Y-51747200D01*
%TO.N,Net-(C14-Pad1)*%
X53313500Y-52070000D02*
X52070000Y-50826500D01*
X53529500Y-52070000D02*
X53313500Y-52070000D01*
X52070000Y-50826500D02*
X52070000Y-50030000D01*
X52070000Y-50030000D02*
X52700000Y-49400000D01*
X56697088Y-49062840D02*
X57351300Y-49062840D01*
X56359928Y-49400000D02*
X56697088Y-49062840D01*
X52700000Y-49400000D02*
X56359928Y-49400000D01*
%TO.N,XL1*%
X60065500Y-52777040D02*
X60065500Y-52959000D01*
X60065500Y-54745500D02*
X60026000Y-54785000D01*
X60065500Y-52959000D02*
X60065500Y-54745500D01*
X59817000Y-52710500D02*
X60065500Y-52959000D01*
X59817000Y-52591000D02*
X59817000Y-52710500D01*
X58701300Y-51475300D02*
X59817000Y-52591000D01*
X58701300Y-50812840D02*
X58701300Y-51475300D01*
%TO.N,XL2*%
X63093500Y-54217500D02*
X62526000Y-54785000D01*
X64070000Y-54217500D02*
X63093500Y-54217500D01*
X62526000Y-53685000D02*
X62526000Y-54785000D01*
X61262990Y-52421990D02*
X62526000Y-53685000D01*
X60110450Y-52421990D02*
X61262990Y-52421990D01*
X59101300Y-51412840D02*
X60110450Y-52421990D01*
X59101300Y-50812840D02*
X59101300Y-51412840D01*
D35*
%TO.N,Net-(C17-Pad2)*%
X62673500Y-42848000D02*
X61431500Y-42848000D01*
D32*
X60701300Y-43578200D02*
X61431500Y-42848000D01*
X60701300Y-44512840D02*
X60701300Y-43578200D01*
%TO.N,Net-(C18-Pad1)*%
X54704000Y-39161500D02*
X54836500Y-39029000D01*
X54704000Y-40365000D02*
X54704000Y-39161500D01*
X59101300Y-43850380D02*
X56525920Y-41275000D01*
X59101300Y-44512840D02*
X59101300Y-43850380D01*
X55614000Y-41275000D02*
X54704000Y-40365000D01*
X56525920Y-41275000D02*
X55614000Y-41275000D01*
%TO.N,Net-(C19-Pad1)*%
X56104000Y-43468500D02*
X55971500Y-43601000D01*
X56104000Y-42265000D02*
X56104000Y-43468500D01*
X58701300Y-43912840D02*
X58222460Y-43434000D01*
X58701300Y-44512840D02*
X58701300Y-43912840D01*
X57273000Y-43434000D02*
X56104000Y-42265000D01*
X58222460Y-43434000D02*
X57273000Y-43434000D01*
D36*
%TO.N,Net-(D1-Pad1)*%
X42308000Y-41061500D02*
X42308000Y-39149000D01*
X42308000Y-41376500D02*
X42308000Y-41061500D01*
D33*
%TO.N,~BQ_PG~*%
X45988000Y-40686401D02*
X46275800Y-40398601D01*
X45988000Y-41960800D02*
X45988000Y-40686401D01*
%TO.N,Net-(D2-Pad2)*%
X47738000Y-41960800D02*
X49582700Y-41960800D01*
X49696400Y-42074500D02*
X49582700Y-41960800D01*
X49784000Y-42074500D02*
X49696400Y-42074500D01*
%TO.N,Net-(D3-Pad2)*%
X51562000Y-41122600D02*
X51562000Y-41251500D01*
X51562000Y-41566500D02*
X52921500Y-42926000D01*
X51562000Y-41122600D02*
X51562000Y-41566500D01*
%TO.N,~BQ_CHG~*%
X51336000Y-39598600D02*
X51562000Y-39372600D01*
X49075800Y-39598600D02*
X51336000Y-39598600D01*
D36*
%TO.N,Net-(D4-Pad1)*%
X39512000Y-53832000D02*
X39512000Y-52130000D01*
X38480000Y-54864000D02*
X39512000Y-53832000D01*
D34*
X37935500Y-54864000D02*
X36157500Y-53086000D01*
X38480000Y-54864000D02*
X37935500Y-54864000D01*
D31*
%TO.N,Net-(D5-Pad1)*%
X52075000Y-55200000D02*
X52287500Y-55200000D01*
X52602500Y-55200000D02*
X54000000Y-53802500D01*
X52075000Y-55200000D02*
X52602500Y-55200000D01*
%TO.N,BUCK_PGOOD*%
X46008300Y-50993700D02*
X47027500Y-49974500D01*
X45834300Y-50993700D02*
X46008300Y-50993700D01*
D32*
X47027500Y-49974500D02*
X46774500Y-49974500D01*
D33*
X46418500Y-49974500D02*
X46355000Y-49911000D01*
X47027500Y-49974500D02*
X46418500Y-49974500D01*
D32*
%TO.N,SPI_01_CS*%
X51488000Y-44792000D02*
X51590000Y-44690000D01*
X51488000Y-45412500D02*
X51488000Y-44792000D01*
X56507000Y-45862840D02*
X56480000Y-45835840D01*
X57351300Y-45862840D02*
X56507000Y-45862840D01*
X51930000Y-44690000D02*
X51940000Y-44680000D01*
X51590000Y-44690000D02*
X51930000Y-44690000D01*
D37*
%TO.N,AIN1*%
X59901300Y-51608970D02*
X60255360Y-51963030D01*
X59901300Y-50812840D02*
X59901300Y-51608970D01*
%TO.N,AIN2*%
X61564850Y-52119980D02*
X61821635Y-52376765D01*
X61008440Y-52119980D02*
X61564850Y-52119980D01*
X60301300Y-51412840D02*
X61008440Y-52119980D01*
X60301300Y-50812840D02*
X60301300Y-51412840D01*
%TO.N,AIN3*%
X60701300Y-51412840D02*
X61131430Y-51842970D01*
X60701300Y-50812840D02*
X60701300Y-51412840D01*
X62117270Y-51842970D02*
X62598300Y-52324000D01*
X61131430Y-51842970D02*
X62117270Y-51842970D01*
D32*
%TO.N,SWDIO*%
X62300000Y-44511540D02*
X62301300Y-44512840D01*
X62300000Y-43600000D02*
X62300000Y-44511540D01*
%TO.N,SWDCLK*%
X63200000Y-44014140D02*
X62701300Y-44512840D01*
X63200000Y-43700000D02*
X63200000Y-44014140D01*
%TO.N,SWO*%
X64535840Y-46662840D02*
X63651300Y-46662840D01*
X64673000Y-46800000D02*
X64535840Y-46662840D01*
%TO.N,~RESET~*%
X63688460Y-45500000D02*
X63651300Y-45462840D01*
X64700000Y-45500000D02*
X63688460Y-45500000D01*
%TO.N,BUCK_SW*%
X45609000Y-54349700D02*
X45609000Y-55118000D01*
X45034200Y-53774900D02*
X45609000Y-54349700D01*
X45034200Y-52943100D02*
X45034200Y-53774900D01*
%TO.N,Net-(L2-Pad1)*%
X54674500Y-51358500D02*
X53862000Y-50546000D01*
X54674500Y-52070000D02*
X54674500Y-51358500D01*
%TO.N,Net-(L3-Pad1)*%
X55676388Y-50546000D02*
X55612000Y-50546000D01*
X56759548Y-49462840D02*
X55676388Y-50546000D01*
X57351300Y-49462840D02*
X56759548Y-49462840D01*
D33*
%TO.N,BQ_ISET*%
X44429101Y-39198601D02*
X44196000Y-38965500D01*
X46275800Y-39198601D02*
X44429101Y-39198601D01*
%TO.N,BQ_TS*%
X50217000Y-39165600D02*
X52044600Y-37338000D01*
X49324400Y-39165600D02*
X50217000Y-39165600D01*
X49291399Y-39198601D02*
X49324400Y-39165600D01*
X49075800Y-39198601D02*
X49291399Y-39198601D01*
D36*
%TO.N,Net-(R7-Pad2)*%
X36471500Y-52130000D02*
X36157500Y-51816000D01*
X38212000Y-52130000D02*
X36471500Y-52130000D01*
D34*
X36157500Y-51816000D02*
X36157500Y-50546000D01*
X36157500Y-50090000D02*
X35470500Y-49403000D01*
X36157500Y-50546000D02*
X36157500Y-50090000D01*
D32*
%TO.N,EN*%
X38534999Y-50447001D02*
X39512000Y-49470000D01*
X37389501Y-50447001D02*
X38534999Y-50447001D01*
X36665500Y-49723000D02*
X37389501Y-50447001D01*
X36665500Y-49403000D02*
X36665500Y-49723000D01*
X41060400Y-51968400D02*
X43907100Y-51968400D01*
X39512000Y-50420000D02*
X41060400Y-51968400D01*
X39512000Y-49470000D02*
X39512000Y-50420000D01*
%TO.N,Net-(R10-Pad1)*%
X45434250Y-50161900D02*
X45434250Y-50993700D01*
X44882533Y-49610183D02*
X45434250Y-50161900D01*
X43758317Y-49610183D02*
X44882533Y-49610183D01*
X42888500Y-50480000D02*
X43758317Y-49610183D01*
X42888500Y-50800000D02*
X42888500Y-50480000D01*
%TO.N,ACCEL_INT1*%
X54387706Y-46100000D02*
X52188000Y-46100000D01*
X54950546Y-46662840D02*
X54387706Y-46100000D01*
X57351300Y-46662840D02*
X54950546Y-46662840D01*
%TO.N,ACCEL_INT2*%
X52763000Y-46600000D02*
X52188000Y-46600000D01*
X52927001Y-46435999D02*
X52763000Y-46600000D01*
X54261245Y-46435999D02*
X52927001Y-46435999D01*
X54888086Y-47062840D02*
X54261245Y-46435999D01*
X57351300Y-47062840D02*
X54888086Y-47062840D01*
%TO.N,SPI_MISO*%
X50988000Y-44692000D02*
X51020000Y-44660000D01*
X50988000Y-45412500D02*
X50988000Y-44692000D01*
X57351300Y-47462840D02*
X56224802Y-47462840D01*
X55757000Y-47462840D02*
X55730000Y-47489840D01*
X56224802Y-47462840D02*
X55757000Y-47462840D01*
%TO.N,SPI_SCK*%
X54162666Y-45412500D02*
X51988000Y-45412500D01*
X55013006Y-46262840D02*
X54162666Y-45412500D01*
X57351300Y-46262840D02*
X55013006Y-46262840D01*
%TO.N,SPI_MOSI*%
X50488000Y-45188000D02*
X50040000Y-44740000D01*
X50488000Y-45412500D02*
X50488000Y-45188000D01*
X57344140Y-47870000D02*
X57351300Y-47862840D01*
X55950000Y-47870000D02*
X57344140Y-47870000D01*
X55830000Y-47990000D02*
X55950000Y-47870000D01*
X55830000Y-48300000D02*
X55830000Y-47990000D01*
%TO.N,+3V0*%
X56196000Y-52652500D02*
X56196000Y-51627000D01*
X57351300Y-50471700D02*
X57351300Y-49862840D01*
X56196000Y-51627000D02*
X57351300Y-50471700D01*
X63846840Y-49862840D02*
X64832000Y-50848000D01*
X63651300Y-49862840D02*
X63846840Y-49862840D01*
X57943140Y-44871000D02*
X58301300Y-44512840D01*
X55971500Y-44871000D02*
X57943140Y-44871000D01*
X58301300Y-44512840D02*
X58301300Y-44441300D01*
X58301300Y-44512840D02*
X58301300Y-44180005D01*
D31*
X49510000Y-55200000D02*
X49500000Y-55190000D01*
X50325000Y-55200000D02*
X49510000Y-55200000D01*
D34*
X48032500Y-54694500D02*
X47609000Y-55118000D01*
X48032500Y-53340000D02*
X48032500Y-54694500D01*
D31*
X47635600Y-52943100D02*
X48032500Y-53340000D01*
X48914500Y-49974500D02*
X48920000Y-49980000D01*
X48222500Y-49974500D02*
X48914500Y-49974500D01*
X48222500Y-49762500D02*
X47820000Y-49360000D01*
X48222500Y-49974500D02*
X48222500Y-49762500D01*
X48412000Y-55118000D02*
X48450000Y-55080000D01*
X47609000Y-55118000D02*
X48412000Y-55118000D01*
X47609000Y-55069000D02*
X46860000Y-54320000D01*
X47609000Y-55118000D02*
X47609000Y-55069000D01*
X47810000Y-53340000D02*
X47250000Y-53900000D01*
X48032500Y-53340000D02*
X47810000Y-53340000D01*
X48090000Y-53340000D02*
X48710000Y-53960000D01*
X48032500Y-53340000D02*
X48090000Y-53340000D01*
X48032500Y-52517500D02*
X48040000Y-52510000D01*
X48032500Y-53340000D02*
X48032500Y-52517500D01*
X50210000Y-55200000D02*
X49657000Y-55753000D01*
X50325000Y-55200000D02*
X50210000Y-55200000D01*
X53070000Y-47287500D02*
X53280500Y-47498000D01*
X51988000Y-47287500D02*
X53070000Y-47287500D01*
X53280500Y-46922500D02*
X53340000Y-46863000D01*
X53280500Y-47498000D02*
X53280500Y-46922500D01*
X53086000Y-47498000D02*
X52705000Y-47879000D01*
X53280500Y-47498000D02*
X53086000Y-47498000D01*
X52264500Y-48319500D02*
X52705000Y-47879000D01*
X52264500Y-48641000D02*
X52264500Y-48319500D01*
X51988000Y-47707000D02*
X51816000Y-47879000D01*
X51988000Y-47287500D02*
X51988000Y-47707000D01*
X51488000Y-47551000D02*
X51816000Y-47879000D01*
X51488000Y-47287500D02*
X51488000Y-47551000D01*
X51816000Y-48192500D02*
X52264500Y-48641000D01*
X51816000Y-47879000D02*
X51816000Y-48192500D01*
X52259750Y-47433750D02*
X52134250Y-47433750D01*
X52134250Y-47433750D02*
X51988000Y-47287500D01*
X52264500Y-47564000D02*
X52134250Y-47433750D01*
X52586000Y-47498000D02*
X52264500Y-47819500D01*
X52264500Y-47819500D02*
X52264500Y-47564000D01*
X52832000Y-47498000D02*
X52578000Y-47752000D01*
X52578000Y-47752000D02*
X52259750Y-47433750D01*
X52705000Y-47879000D02*
X52578000Y-47752000D01*
X53280500Y-47498000D02*
X52832000Y-47498000D01*
X52832000Y-47498000D02*
X52586000Y-47498000D01*
X52705000Y-47879000D02*
X51816000Y-47879000D01*
X51816000Y-47879000D02*
X52129500Y-48192500D01*
X52129500Y-48192500D02*
X52264500Y-48192500D01*
X52264500Y-48192500D02*
X52264500Y-47819500D01*
X52264500Y-48641000D02*
X52264500Y-48192500D01*
X51488000Y-47926500D02*
X51488000Y-47287500D01*
X50773500Y-48641000D02*
X51488000Y-47926500D01*
X51054000Y-48641000D02*
X51816000Y-47879000D01*
X50773500Y-48641000D02*
X51054000Y-48641000D01*
X51308000Y-48641000D02*
X51562000Y-48895000D01*
X50773500Y-48641000D02*
X51308000Y-48641000D01*
X52264500Y-48641000D02*
X51816000Y-48641000D01*
X51816000Y-48641000D02*
X51562000Y-48895000D01*
X51816000Y-47879000D02*
X51816000Y-48641000D01*
X51562000Y-47361500D02*
X51488000Y-47287500D01*
X51562000Y-48895000D02*
X51562000Y-47361500D01*
D32*
X45834300Y-52943100D02*
X45834300Y-52946300D01*
D31*
X46466100Y-52943100D02*
X47635600Y-52943100D01*
X45834300Y-52943100D02*
X46466100Y-52943100D01*
D32*
X64832000Y-50230000D02*
X64897000Y-50165000D01*
X64832000Y-50848000D02*
X64832000Y-50230000D01*
X65072000Y-50848000D02*
X65405000Y-51181000D01*
X64832000Y-50848000D02*
X65072000Y-50848000D01*
X56196000Y-52389000D02*
X56642000Y-51943000D01*
X56196000Y-52652500D02*
X56196000Y-52389000D01*
X55971500Y-45248500D02*
X55820000Y-45400000D01*
X55971500Y-44871000D02*
X55971500Y-45248500D01*
D31*
%TO.N,GND*%
X41094508Y-38456000D02*
X41145104Y-38405404D01*
X40125000Y-38456000D02*
X41094508Y-38456000D01*
X40125000Y-38456000D02*
X40538000Y-38456000D01*
X40125000Y-38456000D02*
X40125000Y-38361000D01*
X40767000Y-38227000D02*
X41021000Y-37973000D01*
X40538000Y-38456000D02*
X40767000Y-38227000D01*
X41145104Y-38097104D02*
X41021000Y-37973000D01*
X41145104Y-38405404D02*
X41145104Y-38097104D01*
X41145104Y-38405404D02*
X41145104Y-38351104D01*
X40157000Y-44856000D02*
X40767000Y-45466000D01*
X40125000Y-44856000D02*
X40157000Y-44856000D01*
X40665000Y-44856000D02*
X41148000Y-45339000D01*
X40125000Y-44856000D02*
X40665000Y-44856000D01*
X40174087Y-44905087D02*
X41420521Y-44905087D01*
X40125000Y-44856000D02*
X40174087Y-44905087D01*
X41420521Y-44905087D02*
X41420521Y-45066479D01*
X40894000Y-45339000D02*
X40767000Y-45466000D01*
X41148000Y-45339000D02*
X40894000Y-45339000D01*
X41046000Y-44856000D02*
X41338500Y-45148500D01*
X40125000Y-44856000D02*
X41046000Y-44856000D01*
X41338500Y-45148500D02*
X41148000Y-45339000D01*
X41420521Y-45066479D02*
X41338500Y-45148500D01*
X40411000Y-44856000D02*
X40894000Y-45339000D01*
X40125000Y-44856000D02*
X40411000Y-44856000D01*
D32*
X60301300Y-42852800D02*
X60296500Y-42848000D01*
X60301300Y-44512840D02*
X60301300Y-42852800D01*
X55971500Y-40232500D02*
X56104000Y-40365000D01*
X55971500Y-39029000D02*
X55971500Y-40232500D01*
X54836500Y-42397500D02*
X54704000Y-42265000D01*
X54836500Y-43601000D02*
X54836500Y-42397500D01*
D33*
X45302001Y-39598600D02*
X45250000Y-39650601D01*
X46275800Y-39598600D02*
X45302001Y-39598600D01*
X50077999Y-39998599D02*
X50130000Y-40050600D01*
X49075800Y-39998599D02*
X50077999Y-39998599D01*
X44196000Y-41586000D02*
X44210000Y-41600000D01*
X44196000Y-40790500D02*
X44196000Y-41586000D01*
X44939500Y-40790500D02*
X44940000Y-40790000D01*
X44196000Y-40790500D02*
X44939500Y-40790500D01*
X46736000Y-38046000D02*
X46750000Y-38060000D01*
X46736000Y-37312600D02*
X46736000Y-38046000D01*
X47272600Y-37312600D02*
X47530000Y-37570000D01*
X46736000Y-37312600D02*
X47272600Y-37312600D01*
X47892600Y-37312600D02*
X47630000Y-37050000D01*
X48514000Y-37312600D02*
X47892600Y-37312600D01*
X46736000Y-37312600D02*
X48514000Y-37312600D01*
X47630000Y-37470000D02*
X47530000Y-37570000D01*
X47630000Y-37050000D02*
X47630000Y-37470000D01*
X48514000Y-38054000D02*
X48520000Y-38060000D01*
X48514000Y-37312600D02*
X48514000Y-38054000D01*
X53869600Y-38079600D02*
X53870000Y-38080000D01*
X53869600Y-37338000D02*
X53869600Y-38079600D01*
X54662000Y-37338000D02*
X54670000Y-37330000D01*
X53869600Y-37338000D02*
X54662000Y-37338000D01*
X56641000Y-39029000D02*
X56650000Y-39020000D01*
X55971500Y-39029000D02*
X56641000Y-39029000D01*
X54704000Y-42265000D02*
X54625000Y-42265000D01*
X54836500Y-43601000D02*
X54699000Y-43601000D01*
X54209000Y-44871000D02*
X54200000Y-44880000D01*
X54836500Y-44871000D02*
X54209000Y-44871000D01*
D32*
X64203000Y-51983000D02*
X64190000Y-51970000D01*
X64832000Y-51983000D02*
X64203000Y-51983000D01*
X64832000Y-52642000D02*
X64850000Y-52660000D01*
X64832000Y-51983000D02*
X64832000Y-52642000D01*
X64692500Y-55352500D02*
X64710000Y-55370000D01*
X64070000Y-55352500D02*
X64692500Y-55352500D01*
X64070000Y-55930000D02*
X64080000Y-55940000D01*
X64070000Y-55352500D02*
X64070000Y-55930000D01*
X58930500Y-52520500D02*
X58820000Y-52410000D01*
X58930500Y-52959000D02*
X58930500Y-52520500D01*
X58153500Y-53633500D02*
X58160000Y-53640000D01*
X57550000Y-53633500D02*
X58153500Y-53633500D01*
X56196000Y-54377500D02*
X56802500Y-54377500D01*
D34*
X49757500Y-53340000D02*
X49757500Y-51308000D01*
D32*
X43349400Y-52943100D02*
X42799000Y-53493500D01*
X44234100Y-52943100D02*
X43349400Y-52943100D01*
X44234100Y-52943100D02*
X44234100Y-53055900D01*
X44234100Y-52943100D02*
X44234100Y-52924100D01*
D31*
X49757500Y-53340000D02*
X50570000Y-53340000D01*
X49757500Y-54067500D02*
X49760000Y-54070000D01*
X49757500Y-53340000D02*
X49757500Y-54067500D01*
X49757500Y-53337500D02*
X49090000Y-52670000D01*
X49757500Y-53340000D02*
X49757500Y-53337500D01*
X50358000Y-51308000D02*
X50600000Y-51550000D01*
X49757500Y-51308000D02*
X50358000Y-51308000D01*
X49757500Y-51172500D02*
X50390000Y-50540000D01*
X49757500Y-51308000D02*
X49757500Y-51172500D01*
X49757500Y-50497500D02*
X49740000Y-50480000D01*
X49757500Y-51308000D02*
X49757500Y-50497500D01*
D35*
X60296500Y-42246500D02*
X60290000Y-42240000D01*
X60296500Y-42848000D02*
X60296500Y-42246500D01*
X65788717Y-42901283D02*
X65360000Y-43330000D01*
X65806283Y-42901283D02*
X65788717Y-42901283D01*
X65821283Y-42901283D02*
X66280000Y-43360000D01*
X65806283Y-42901283D02*
X65821283Y-42901283D01*
X65828717Y-42901283D02*
X66260000Y-42470000D01*
X65806283Y-42901283D02*
X65828717Y-42901283D01*
D32*
X57598500Y-40580500D02*
X57531000Y-40513000D01*
X58060000Y-40580500D02*
X57598500Y-40580500D01*
X58060000Y-39899000D02*
X58039000Y-39878000D01*
X58060000Y-40580500D02*
X58060000Y-39899000D01*
X59330000Y-39391000D02*
X59309000Y-39370000D01*
X59330000Y-39977500D02*
X59330000Y-39391000D01*
X59844500Y-39977500D02*
X59944000Y-39878000D01*
X59330000Y-39977500D02*
X59844500Y-39977500D01*
X51408500Y-52551500D02*
X51308000Y-52451000D01*
X52070000Y-52551500D02*
X51408500Y-52551500D01*
X52070000Y-52551500D02*
X52070000Y-53340000D01*
X42063500Y-53493500D02*
X42037000Y-53467000D01*
X42799000Y-53493500D02*
X42063500Y-53493500D01*
D31*
X35180000Y-54864000D02*
X34417000Y-54864000D01*
X35180000Y-54864000D02*
X36068000Y-54864000D01*
X35180000Y-55752000D02*
X35179000Y-55753000D01*
X35180000Y-54864000D02*
X35180000Y-55752000D01*
X34417000Y-50546000D02*
X34290000Y-50673000D01*
X34962500Y-50546000D02*
X34417000Y-50546000D01*
X34925000Y-50546000D02*
X34417000Y-50038000D01*
X34962500Y-50546000D02*
X34925000Y-50546000D01*
D32*
X41693500Y-50800000D02*
X40894000Y-50800000D01*
X41693500Y-50202500D02*
X41656000Y-50165000D01*
X41693500Y-50800000D02*
X41693500Y-50202500D01*
X42799000Y-53493500D02*
X42799000Y-52705000D01*
D36*
X38862000Y-52130000D02*
X38862000Y-50927000D01*
X38862000Y-52130000D02*
X38862000Y-53213000D01*
X43140500Y-42886500D02*
X43180000Y-42926000D01*
X42308000Y-42886500D02*
X43140500Y-42886500D01*
X42308000Y-43451000D02*
X42672000Y-43815000D01*
X42308000Y-42886500D02*
X42308000Y-43451000D01*
D31*
X54610000Y-47498000D02*
X54991000Y-47879000D01*
X54415500Y-47498000D02*
X54610000Y-47498000D01*
X50988000Y-46548000D02*
X51054000Y-46482000D01*
X50988000Y-47287500D02*
X50988000Y-46548000D01*
X50988000Y-47287500D02*
X50488000Y-47287500D01*
X50488000Y-46800000D02*
X50288000Y-46600000D01*
X50488000Y-47287500D02*
X50488000Y-46800000D01*
X50288000Y-46600000D02*
X50288000Y-46100000D01*
X50936000Y-46600000D02*
X51054000Y-46482000D01*
X50288000Y-46600000D02*
X50936000Y-46600000D01*
X50488000Y-47048000D02*
X51054000Y-46482000D01*
X50488000Y-47287500D02*
X50488000Y-47048000D01*
X50975500Y-47287500D02*
X50288000Y-46600000D01*
X50988000Y-47287500D02*
X50975500Y-47287500D01*
X49827500Y-47287500D02*
X49784000Y-47244000D01*
X50488000Y-47287500D02*
X49827500Y-47287500D01*
X49793000Y-46600000D02*
X49657000Y-46736000D01*
X50288000Y-46600000D02*
X49793000Y-46600000D01*
X49658000Y-46100000D02*
X49657000Y-46101000D01*
X50288000Y-46100000D02*
X49658000Y-46100000D01*
X53770000Y-48641000D02*
X54102000Y-48973000D01*
X53399500Y-48641000D02*
X53770000Y-48641000D01*
X53721000Y-48641000D02*
X54102000Y-48260000D01*
X53399500Y-48641000D02*
X53721000Y-48641000D01*
D32*
X45034200Y-51866800D02*
X44958000Y-51943000D01*
X45034200Y-50993700D02*
X45034200Y-51866800D01*
X44634150Y-51619150D02*
X44958000Y-51943000D01*
X44634150Y-50993700D02*
X44634150Y-51619150D01*
X44634150Y-50993700D02*
X45034200Y-50993700D01*
X44634150Y-50091067D02*
X44580267Y-50037184D01*
X44634150Y-50993700D02*
X44634150Y-50091067D01*
X45651100Y-53901902D02*
X45847000Y-53901902D01*
X45434250Y-53685052D02*
X45651100Y-53901902D01*
X45434250Y-52943100D02*
X45434250Y-53685052D01*
X60301300Y-47462840D02*
X60501300Y-47662840D01*
X60301300Y-44512840D02*
X60301300Y-47462840D01*
D31*
X60290000Y-42240000D02*
X60290000Y-41910000D01*
X59944000Y-39878000D02*
X60200000Y-39622000D01*
D34*
X67400000Y-37125000D02*
X67400000Y-37800000D01*
X67325000Y-37050000D02*
X67325000Y-37050000D01*
X66075000Y-37050000D02*
X66625000Y-37050000D01*
X66100000Y-37075000D02*
X66075000Y-37050000D01*
X66100000Y-37800000D02*
X66100000Y-37075000D01*
X66100000Y-37075000D02*
X65825000Y-37075000D01*
X67325000Y-37050000D02*
X67400000Y-37125000D01*
X66625000Y-37050000D02*
X67325000Y-37050000D01*
X65825000Y-37075000D02*
X65050000Y-37075000D01*
X65050000Y-37075000D02*
X65050000Y-37075000D01*
X67400000Y-40800000D02*
X67400000Y-41325000D01*
X67400000Y-41325000D02*
X66925000Y-41800000D01*
D32*
X54836500Y-44871000D02*
X54836500Y-44886500D01*
D33*
X55971500Y-39151500D02*
X55499000Y-39624000D01*
X55971500Y-39029000D02*
X55971500Y-39151500D01*
X54704000Y-42197000D02*
X55245000Y-41656000D01*
X54704000Y-42265000D02*
X54704000Y-42197000D01*
X54836500Y-43461500D02*
X55245000Y-43053000D01*
X54836500Y-43601000D02*
X54836500Y-43461500D01*
D32*
X54836500Y-45265501D02*
X54991000Y-45420001D01*
X54836500Y-44871000D02*
X54836500Y-45265501D01*
X54836500Y-43601000D02*
X54836500Y-43533500D01*
X54836500Y-43406500D02*
X54483000Y-43053000D01*
X54836500Y-43601000D02*
X54836500Y-43406500D01*
X55537002Y-40365000D02*
X55431002Y-40259000D01*
X56104000Y-40365000D02*
X55537002Y-40365000D01*
X59501300Y-48662840D02*
X60501300Y-47662840D01*
X57351300Y-48662840D02*
X59501300Y-48662840D01*
X56493218Y-48662840D02*
X56193029Y-48963029D01*
X57351300Y-48662840D02*
X56493218Y-48662840D01*
X65683000Y-51983000D02*
X65700000Y-52000000D01*
X64832000Y-51983000D02*
X65683000Y-51983000D01*
D36*
X42308000Y-42571500D02*
X42308000Y-42886500D01*
D31*
X53340000Y-55657500D02*
X54000000Y-54997500D01*
X53340000Y-55850000D02*
X53340000Y-55657500D01*
X54255498Y-54997500D02*
X54760000Y-55502002D01*
X54000000Y-54997500D02*
X54255498Y-54997500D01*
X49048500Y-47969000D02*
X48704500Y-47625000D01*
X49048500Y-48641000D02*
X49048500Y-47969000D01*
X49048500Y-48667500D02*
X49847500Y-49466500D01*
X49048500Y-48641000D02*
X49048500Y-48667500D01*
X48450500Y-48641000D02*
X48133000Y-48323500D01*
X49048500Y-48641000D02*
X48450500Y-48641000D01*
D36*
X35504500Y-47815500D02*
X34607500Y-47815500D01*
D32*
X56823700Y-54377500D02*
X57010300Y-54190900D01*
X56802500Y-54377500D02*
X56823700Y-54377500D01*
X57550000Y-53778100D02*
X58026300Y-54254400D01*
X57550000Y-53633500D02*
X57550000Y-53778100D01*
X58930500Y-53401000D02*
X58674000Y-53657500D01*
X58930500Y-52959000D02*
X58930500Y-53401000D01*
D31*
X41110300Y-38456000D02*
X41236900Y-38582600D01*
X40125000Y-38456000D02*
X41110300Y-38456000D01*
X41420521Y-44938421D02*
X41694100Y-45212000D01*
X41420521Y-44905087D02*
X41420521Y-44938421D01*
X41567100Y-45339000D02*
X41694100Y-45212000D01*
X41148000Y-45339000D02*
X41567100Y-45339000D01*
D32*
X56196000Y-55056000D02*
X55867300Y-55384700D01*
X56196000Y-54377500D02*
X56196000Y-55056000D01*
%TO.N,+BATT*%
X49075800Y-38798599D02*
X49361401Y-38798599D01*
X43100702Y-55218500D02*
X42799000Y-55218500D01*
X44611110Y-53708092D02*
X43100702Y-55218500D01*
X44611110Y-52948890D02*
X44611110Y-53708092D01*
X44616900Y-52943100D02*
X44611110Y-52948890D01*
X44634150Y-52943100D02*
X44616900Y-52943100D01*
X43407500Y-55218500D02*
X43561000Y-55372000D01*
X42799000Y-55218500D02*
X43407500Y-55218500D01*
X42063500Y-55218500D02*
X42037000Y-55245000D01*
X42799000Y-55218500D02*
X42063500Y-55218500D01*
D31*
X34962500Y-53086000D02*
X34163000Y-53086000D01*
X34962500Y-51816000D02*
X34962500Y-52488500D01*
X34962500Y-53086000D02*
X34962500Y-52488500D01*
X34962500Y-51816000D02*
X34290000Y-51816000D01*
D36*
X48918500Y-43584500D02*
X48895000Y-43561000D01*
X49784000Y-43584500D02*
X48918500Y-43584500D01*
X49784000Y-43584500D02*
X50753000Y-43584500D01*
D32*
X44002300Y-50993700D02*
X43815000Y-51181000D01*
X44234100Y-50993700D02*
X44002300Y-50993700D01*
D33*
X50239000Y-37939000D02*
X50400000Y-38100000D01*
X50239000Y-37312600D02*
X50239000Y-37939000D01*
X51087400Y-37312600D02*
X51100000Y-37300000D01*
X50239000Y-37312600D02*
X51087400Y-37312600D01*
X50239000Y-37635399D02*
X49075800Y-38798599D01*
X50239000Y-37312600D02*
X50239000Y-37635399D01*
X49784000Y-43269500D02*
X49784000Y-43584500D01*
D36*
X51068000Y-43584500D02*
X51726500Y-42926000D01*
X50753000Y-43584500D02*
X51068000Y-43584500D01*
X52070000Y-43269500D02*
X51726500Y-42926000D01*
X52070000Y-43688000D02*
X52070000Y-43269500D01*
X38212000Y-49388000D02*
X36639500Y-47815500D01*
X38212000Y-49470000D02*
X38212000Y-49388000D01*
X36639500Y-47815500D02*
X37592000Y-47815500D01*
D34*
%TO.N,Net-(J1-PadS1)*%
X39395000Y-37336000D02*
X35225000Y-37336000D01*
X35225000Y-37336000D02*
X35225000Y-45976000D01*
X35225000Y-45976000D02*
X39395000Y-45976000D01*
D35*
%TO.N,Net-(AE1-Pad4)*%
X66100000Y-41002434D02*
X65003717Y-42098717D01*
X66100000Y-40800000D02*
X66100000Y-41002434D01*
X64254434Y-42848000D02*
X65003717Y-42098717D01*
X63818500Y-42848000D02*
X64254434Y-42848000D01*
%TD*%
D38*
%TO.N,GND*%
X67527000Y-41776250D02*
X67590000Y-41839250D01*
X67590001Y-55798000D01*
X65327000Y-55798000D01*
X65327000Y-52957954D01*
X65386180Y-52940002D01*
X65496494Y-52881037D01*
X65593185Y-52801685D01*
X65672537Y-52704994D01*
X65731502Y-52594680D01*
X65767812Y-52474982D01*
X65780072Y-52350500D01*
X65777000Y-52268750D01*
X65618250Y-52110000D01*
X65327000Y-52110000D01*
X65327000Y-51906728D01*
X65333397Y-51908000D01*
X65476603Y-51908000D01*
X65617058Y-51880062D01*
X65749364Y-51825259D01*
X65868436Y-51745698D01*
X65969698Y-51644436D01*
X66049259Y-51525364D01*
X66104062Y-51393058D01*
X66132000Y-51252603D01*
X66132000Y-51109397D01*
X66104062Y-50968942D01*
X66049259Y-50836636D01*
X65969698Y-50717564D01*
X65868436Y-50616302D01*
X65749364Y-50536741D01*
X65657393Y-50498645D01*
X65619441Y-50373534D01*
X65602913Y-50342613D01*
X65624000Y-50236603D01*
X65624000Y-50093397D01*
X65596062Y-49952942D01*
X65541259Y-49820636D01*
X65461698Y-49701564D01*
X65360436Y-49600302D01*
X65327000Y-49577961D01*
X65327000Y-47120847D01*
X65372062Y-47012058D01*
X65400000Y-46871603D01*
X65400000Y-46728397D01*
X65372062Y-46587942D01*
X65327000Y-46479153D01*
X65327000Y-45870194D01*
X65344259Y-45844364D01*
X65399062Y-45712058D01*
X65427000Y-45571603D01*
X65427000Y-45428397D01*
X65399062Y-45287942D01*
X65344259Y-45155636D01*
X65327000Y-45129806D01*
X65327000Y-43560174D01*
X65340123Y-43547051D01*
X65340123Y-43771555D01*
X65395757Y-43831533D01*
X65492448Y-43910886D01*
X65602762Y-43969850D01*
X65722460Y-44006159D01*
X65846942Y-44018420D01*
X65971423Y-44006159D01*
X66091121Y-43969850D01*
X66201435Y-43910886D01*
X66298127Y-43831533D01*
X66313102Y-43812213D01*
X66313102Y-43587707D01*
X65806283Y-43080888D01*
X65792141Y-43095031D01*
X65612536Y-42915426D01*
X65626678Y-42901283D01*
X65985888Y-42901283D01*
X66492707Y-43408102D01*
X66717213Y-43408102D01*
X66736533Y-43393127D01*
X66815886Y-43296435D01*
X66874850Y-43186121D01*
X66911159Y-43066423D01*
X66923420Y-42941942D01*
X66911159Y-42817460D01*
X66874850Y-42697762D01*
X66815886Y-42587448D01*
X66736533Y-42490757D01*
X66676555Y-42435123D01*
X66452048Y-42435123D01*
X65985888Y-42901283D01*
X65626678Y-42901283D01*
X65612536Y-42887141D01*
X65792141Y-42707536D01*
X65806283Y-42721678D01*
X66272443Y-42255518D01*
X66272443Y-42031011D01*
X66216809Y-41971033D01*
X66143939Y-41911230D01*
X66225620Y-41829549D01*
X66400000Y-41829549D01*
X66503310Y-41819374D01*
X66602650Y-41789239D01*
X66658687Y-41759287D01*
X66745506Y-41830537D01*
X66855820Y-41889502D01*
X66975518Y-41925812D01*
X67100000Y-41938072D01*
X67114250Y-41935000D01*
X67273000Y-41776250D01*
X67273000Y-41427000D01*
X67527000Y-41427000D01*
X67527000Y-41776250D01*
%TA.AperFunction,Conductor*%
D39*
G36*
X67527000Y-41776250D02*
G01*
X67590000Y-41839250D01*
X67590001Y-55798000D01*
X65327000Y-55798000D01*
X65327000Y-52957954D01*
X65386180Y-52940002D01*
X65496494Y-52881037D01*
X65593185Y-52801685D01*
X65672537Y-52704994D01*
X65731502Y-52594680D01*
X65767812Y-52474982D01*
X65780072Y-52350500D01*
X65777000Y-52268750D01*
X65618250Y-52110000D01*
X65327000Y-52110000D01*
X65327000Y-51906728D01*
X65333397Y-51908000D01*
X65476603Y-51908000D01*
X65617058Y-51880062D01*
X65749364Y-51825259D01*
X65868436Y-51745698D01*
X65969698Y-51644436D01*
X66049259Y-51525364D01*
X66104062Y-51393058D01*
X66132000Y-51252603D01*
X66132000Y-51109397D01*
X66104062Y-50968942D01*
X66049259Y-50836636D01*
X65969698Y-50717564D01*
X65868436Y-50616302D01*
X65749364Y-50536741D01*
X65657393Y-50498645D01*
X65619441Y-50373534D01*
X65602913Y-50342613D01*
X65624000Y-50236603D01*
X65624000Y-50093397D01*
X65596062Y-49952942D01*
X65541259Y-49820636D01*
X65461698Y-49701564D01*
X65360436Y-49600302D01*
X65327000Y-49577961D01*
X65327000Y-47120847D01*
X65372062Y-47012058D01*
X65400000Y-46871603D01*
X65400000Y-46728397D01*
X65372062Y-46587942D01*
X65327000Y-46479153D01*
X65327000Y-45870194D01*
X65344259Y-45844364D01*
X65399062Y-45712058D01*
X65427000Y-45571603D01*
X65427000Y-45428397D01*
X65399062Y-45287942D01*
X65344259Y-45155636D01*
X65327000Y-45129806D01*
X65327000Y-43560174D01*
X65340123Y-43547051D01*
X65340123Y-43771555D01*
X65395757Y-43831533D01*
X65492448Y-43910886D01*
X65602762Y-43969850D01*
X65722460Y-44006159D01*
X65846942Y-44018420D01*
X65971423Y-44006159D01*
X66091121Y-43969850D01*
X66201435Y-43910886D01*
X66298127Y-43831533D01*
X66313102Y-43812213D01*
X66313102Y-43587707D01*
X65806283Y-43080888D01*
X65792141Y-43095031D01*
X65612536Y-42915426D01*
X65626678Y-42901283D01*
X65985888Y-42901283D01*
X66492707Y-43408102D01*
X66717213Y-43408102D01*
X66736533Y-43393127D01*
X66815886Y-43296435D01*
X66874850Y-43186121D01*
X66911159Y-43066423D01*
X66923420Y-42941942D01*
X66911159Y-42817460D01*
X66874850Y-42697762D01*
X66815886Y-42587448D01*
X66736533Y-42490757D01*
X66676555Y-42435123D01*
X66452048Y-42435123D01*
X65985888Y-42901283D01*
X65626678Y-42901283D01*
X65612536Y-42887141D01*
X65792141Y-42707536D01*
X65806283Y-42721678D01*
X66272443Y-42255518D01*
X66272443Y-42031011D01*
X66216809Y-41971033D01*
X66143939Y-41911230D01*
X66225620Y-41829549D01*
X66400000Y-41829549D01*
X66503310Y-41819374D01*
X66602650Y-41789239D01*
X66658687Y-41759287D01*
X66745506Y-41830537D01*
X66855820Y-41889502D01*
X66975518Y-41925812D01*
X67100000Y-41938072D01*
X67114250Y-41935000D01*
X67273000Y-41776250D01*
X67273000Y-41427000D01*
X67527000Y-41427000D01*
X67527000Y-41776250D01*
G37*
%TD.AperFunction*%
D38*
X57678809Y-36658158D02*
X57747789Y-36742211D01*
X57831842Y-36811191D01*
X57927737Y-36862448D01*
X58031789Y-36894012D01*
X58112891Y-36902000D01*
X58112892Y-36902000D01*
X58140000Y-36904670D01*
X58167109Y-36902000D01*
X65305167Y-36902000D01*
X65269463Y-36945506D01*
X65210498Y-37055820D01*
X65174952Y-37173000D01*
X61700000Y-37173000D01*
X61675224Y-37175440D01*
X61651399Y-37182667D01*
X61629443Y-37194403D01*
X61610197Y-37210197D01*
X61594403Y-37229443D01*
X61582667Y-37251399D01*
X61575440Y-37275224D01*
X61573000Y-37300000D01*
X61573000Y-41300000D01*
X61575440Y-41324776D01*
X61582667Y-41348601D01*
X61594403Y-41370557D01*
X61610197Y-41389803D01*
X61629443Y-41405597D01*
X61651399Y-41417333D01*
X61675224Y-41424560D01*
X61700000Y-41427000D01*
X64406815Y-41427000D01*
X64259806Y-41574009D01*
X64174673Y-41677743D01*
X64111414Y-41796092D01*
X64072459Y-41924509D01*
X64067683Y-41973000D01*
X60954019Y-41973000D01*
X60908180Y-41948498D01*
X60788482Y-41912188D01*
X60664000Y-41899928D01*
X60582250Y-41903000D01*
X60512250Y-41973000D01*
X60080750Y-41973000D01*
X60027000Y-41919250D01*
X60027000Y-41738436D01*
X60054182Y-41705315D01*
X60117441Y-41586966D01*
X60156396Y-41458549D01*
X60169549Y-41325000D01*
X60169549Y-40900000D01*
X60156396Y-40766451D01*
X60145383Y-40730145D01*
X60170537Y-40699494D01*
X60229502Y-40589180D01*
X60265812Y-40469482D01*
X60278072Y-40345000D01*
X60275000Y-40263250D01*
X60116250Y-40104500D01*
X60027000Y-40104500D01*
X60027000Y-39900000D01*
X60024560Y-39875224D01*
X60017333Y-39851399D01*
X60016852Y-39850500D01*
X60116250Y-39850500D01*
X60275000Y-39691750D01*
X60278072Y-39610000D01*
X60265812Y-39485518D01*
X60229502Y-39365820D01*
X60170537Y-39255506D01*
X60091185Y-39158815D01*
X59994494Y-39079463D01*
X59884180Y-39020498D01*
X59764482Y-38984188D01*
X59640000Y-38971928D01*
X59615750Y-38975000D01*
X59457000Y-39133750D01*
X59457000Y-39773000D01*
X59203000Y-39773000D01*
X59203000Y-39133750D01*
X59044250Y-38975000D01*
X59020000Y-38971928D01*
X58895518Y-38984188D01*
X58775820Y-39020498D01*
X58665506Y-39079463D01*
X58568815Y-39158815D01*
X58489463Y-39255506D01*
X58430498Y-39365820D01*
X58394188Y-39485518D01*
X58385234Y-39576428D01*
X58370000Y-39574928D01*
X58345750Y-39578000D01*
X58187000Y-39736750D01*
X58187000Y-39773000D01*
X57933000Y-39773000D01*
X57933000Y-39736750D01*
X57774250Y-39578000D01*
X57750000Y-39574928D01*
X57625518Y-39587188D01*
X57505820Y-39623498D01*
X57395506Y-39682463D01*
X57298815Y-39761815D01*
X57289636Y-39773000D01*
X57227000Y-39773000D01*
X57227000Y-36896101D01*
X57248211Y-36894012D01*
X57352263Y-36862448D01*
X57448158Y-36811191D01*
X57532211Y-36742211D01*
X57601191Y-36658158D01*
X57640000Y-36585552D01*
X57678809Y-36658158D01*
%TA.AperFunction,Conductor*%
D39*
G36*
X57678809Y-36658158D02*
G01*
X57747789Y-36742211D01*
X57831842Y-36811191D01*
X57927737Y-36862448D01*
X58031789Y-36894012D01*
X58112891Y-36902000D01*
X58112892Y-36902000D01*
X58140000Y-36904670D01*
X58167109Y-36902000D01*
X65305167Y-36902000D01*
X65269463Y-36945506D01*
X65210498Y-37055820D01*
X65174952Y-37173000D01*
X61700000Y-37173000D01*
X61675224Y-37175440D01*
X61651399Y-37182667D01*
X61629443Y-37194403D01*
X61610197Y-37210197D01*
X61594403Y-37229443D01*
X61582667Y-37251399D01*
X61575440Y-37275224D01*
X61573000Y-37300000D01*
X61573000Y-41300000D01*
X61575440Y-41324776D01*
X61582667Y-41348601D01*
X61594403Y-41370557D01*
X61610197Y-41389803D01*
X61629443Y-41405597D01*
X61651399Y-41417333D01*
X61675224Y-41424560D01*
X61700000Y-41427000D01*
X64406815Y-41427000D01*
X64259806Y-41574009D01*
X64174673Y-41677743D01*
X64111414Y-41796092D01*
X64072459Y-41924509D01*
X64067683Y-41973000D01*
X60954019Y-41973000D01*
X60908180Y-41948498D01*
X60788482Y-41912188D01*
X60664000Y-41899928D01*
X60582250Y-41903000D01*
X60512250Y-41973000D01*
X60080750Y-41973000D01*
X60027000Y-41919250D01*
X60027000Y-41738436D01*
X60054182Y-41705315D01*
X60117441Y-41586966D01*
X60156396Y-41458549D01*
X60169549Y-41325000D01*
X60169549Y-40900000D01*
X60156396Y-40766451D01*
X60145383Y-40730145D01*
X60170537Y-40699494D01*
X60229502Y-40589180D01*
X60265812Y-40469482D01*
X60278072Y-40345000D01*
X60275000Y-40263250D01*
X60116250Y-40104500D01*
X60027000Y-40104500D01*
X60027000Y-39900000D01*
X60024560Y-39875224D01*
X60017333Y-39851399D01*
X60016852Y-39850500D01*
X60116250Y-39850500D01*
X60275000Y-39691750D01*
X60278072Y-39610000D01*
X60265812Y-39485518D01*
X60229502Y-39365820D01*
X60170537Y-39255506D01*
X60091185Y-39158815D01*
X59994494Y-39079463D01*
X59884180Y-39020498D01*
X59764482Y-38984188D01*
X59640000Y-38971928D01*
X59615750Y-38975000D01*
X59457000Y-39133750D01*
X59457000Y-39773000D01*
X59203000Y-39773000D01*
X59203000Y-39133750D01*
X59044250Y-38975000D01*
X59020000Y-38971928D01*
X58895518Y-38984188D01*
X58775820Y-39020498D01*
X58665506Y-39079463D01*
X58568815Y-39158815D01*
X58489463Y-39255506D01*
X58430498Y-39365820D01*
X58394188Y-39485518D01*
X58385234Y-39576428D01*
X58370000Y-39574928D01*
X58345750Y-39578000D01*
X58187000Y-39736750D01*
X58187000Y-39773000D01*
X57933000Y-39773000D01*
X57933000Y-39736750D01*
X57774250Y-39578000D01*
X57750000Y-39574928D01*
X57625518Y-39587188D01*
X57505820Y-39623498D01*
X57395506Y-39682463D01*
X57298815Y-39761815D01*
X57289636Y-39773000D01*
X57227000Y-39773000D01*
X57227000Y-36896101D01*
X57248211Y-36894012D01*
X57352263Y-36862448D01*
X57448158Y-36811191D01*
X57532211Y-36742211D01*
X57601191Y-36658158D01*
X57640000Y-36585552D01*
X57678809Y-36658158D01*
G37*
%TD.AperFunction*%
%TD*%
M02*
