%TF.GenerationSoftware,KiCad,Pcbnew,(5.1.9)-1*%
%TF.CreationDate,2021-05-29T14:53:35+02:00*%
%TF.ProjectId,Speed_sensor,53706565-645f-4736-956e-736f722e6b69,1.0*%
%TF.SameCoordinates,Original*%
%TF.FileFunction,Copper,L2,Inr*%
%TF.FilePolarity,Positive*%
%FSLAX46Y46*%
G04 Gerber Fmt 4.6, Leading zero omitted, Abs format (unit mm)*
G04 Created by KiCad (PCBNEW (5.1.9)-1) date 2021-05-29 14:53:35*
%MOMM*%
%LPD*%
G01*
G04 APERTURE LIST*
%TA.AperFunction,ComponentPad*%
%ADD10C,0.508000*%
%TD*%
%TA.AperFunction,ComponentPad*%
%ADD11C,3.000000*%
%TD*%
%TA.AperFunction,ComponentPad*%
%ADD12O,2.000000X0.900000*%
%TD*%
%TA.AperFunction,ComponentPad*%
%ADD13O,1.700000X0.900000*%
%TD*%
%TA.AperFunction,ViaPad*%
%ADD14C,0.400000*%
%TD*%
%TA.AperFunction,ViaPad*%
%ADD15C,0.600000*%
%TD*%
%TA.AperFunction,Conductor*%
%ADD16C,0.254000*%
%TD*%
%TA.AperFunction,Conductor*%
%ADD17C,0.100000*%
%TD*%
G04 APERTURE END LIST*
D10*
%TO.N,N/C*%
%TO.C,U1*%
X47675800Y-39598600D03*
%TD*%
D11*
%TO.N,+BATT*%
%TO.C,H17*%
X43434000Y-47498000D03*
%TD*%
%TO.N,GND*%
%TO.C,H18*%
X46990000Y-45339000D03*
%TD*%
D12*
%TO.N,Net-(J1-PadS1)*%
%TO.C,J1*%
X39395000Y-37336000D03*
X39395000Y-45976000D03*
D13*
X35225000Y-37336000D03*
X35225000Y-45976000D03*
%TD*%
D14*
%TO.N,+5V*%
X41219700Y-43720302D03*
X41500000Y-37000000D03*
X43100000Y-37400000D03*
X44200000Y-37300000D03*
X44300000Y-38000000D03*
X38100000Y-42926000D03*
X38354000Y-40132000D03*
X41376600Y-44259500D03*
X41287700Y-39535100D03*
%TO.N,BUCK_PGOOD*%
X46355000Y-49911000D03*
%TO.N,SPI_01_CS*%
X56480000Y-45835840D03*
X51940000Y-44680000D03*
%TO.N,AIN1*%
X60255360Y-51963030D03*
%TO.N,AIN2*%
X61821635Y-52376765D03*
%TO.N,AIN3*%
X62598300Y-52324000D03*
%TO.N,SWDIO*%
X62300000Y-43600000D03*
%TO.N,SWDCLK*%
X63200000Y-43700000D03*
%TO.N,SWO*%
X64673000Y-46800000D03*
%TO.N,~RESET~*%
X64700000Y-45500000D03*
%TO.N,SPI_MISO*%
X51020000Y-44660000D03*
X55730000Y-47489840D03*
%TO.N,SPI_MOSI*%
X50040000Y-44740000D03*
X55830000Y-48300000D03*
%TO.N,+3V0*%
X49500000Y-55190000D03*
X48920000Y-49980000D03*
X47820000Y-49360000D03*
X48450000Y-55080000D03*
X46860000Y-54320000D03*
X47250000Y-53900000D03*
X48710000Y-53960000D03*
X48040000Y-52510000D03*
X55245000Y-53848000D03*
X49657000Y-55753000D03*
X53340000Y-46863000D03*
X52705000Y-47879000D03*
X51816000Y-47879000D03*
X51562000Y-48895000D03*
X64897000Y-50165000D03*
X65405000Y-51181000D03*
X56642000Y-51943000D03*
X55820000Y-45400000D03*
X56850000Y-44320000D03*
%TO.N,GND*%
X41021000Y-37973000D03*
X40767000Y-45466000D03*
X45250000Y-39650601D03*
X50130000Y-40050600D03*
X44210000Y-41600000D03*
X44940000Y-40790000D03*
X46750000Y-38060000D03*
X47530000Y-37570000D03*
X47630000Y-37050000D03*
X48520000Y-38060000D03*
X53870000Y-38080000D03*
X54670000Y-37330000D03*
X56650000Y-39020000D03*
X54200000Y-44880000D03*
X64190000Y-51970000D03*
X64850000Y-52660000D03*
X64710000Y-55370000D03*
X64080000Y-55940000D03*
X58820000Y-52410000D03*
X58160000Y-53640000D03*
X54760000Y-55502002D03*
X53340000Y-55850000D03*
X50570000Y-53340000D03*
X49760000Y-54070000D03*
X49090000Y-52670000D03*
X50600000Y-51550000D03*
X50390000Y-50540000D03*
X49740000Y-50480000D03*
X60290000Y-42240000D03*
X65360000Y-43330000D03*
X66280000Y-43360000D03*
X66260000Y-42470000D03*
X57531000Y-40513000D03*
X58039000Y-39878000D03*
X59309000Y-39370000D03*
X59944000Y-39878000D03*
X51308000Y-52451000D03*
X52070000Y-53340000D03*
X42037000Y-53467000D03*
X34417000Y-54864000D03*
X36068000Y-54864000D03*
X35179000Y-55753000D03*
X34290000Y-50673000D03*
X34417000Y-50038000D03*
X40894000Y-50800000D03*
X41656000Y-50165000D03*
X42799000Y-52705000D03*
D15*
X38862000Y-50927000D03*
X38862000Y-53213000D03*
X43180000Y-42926000D03*
X42672000Y-43815000D03*
D14*
X54991000Y-47879000D03*
X51054000Y-46482000D03*
X49784000Y-47244000D03*
X49657000Y-46736000D03*
X49657000Y-46101000D03*
X54102000Y-48973000D03*
X54102000Y-48260000D03*
X44958000Y-51943000D03*
X44580267Y-50037184D03*
X45847000Y-53901902D03*
X67325000Y-37050000D03*
X66625000Y-37050000D03*
X65825000Y-37075000D03*
X65050000Y-37075000D03*
X64125000Y-37075000D03*
X63300000Y-37050000D03*
X62400000Y-37050000D03*
X61225000Y-37075000D03*
X61225000Y-38050000D03*
X61275000Y-39075000D03*
X61375000Y-40250000D03*
X61425000Y-41475000D03*
X62375000Y-41600000D03*
X63425000Y-41575000D03*
X64100000Y-41525000D03*
X67425000Y-41725000D03*
X67350000Y-42650000D03*
X67325000Y-43475000D03*
X67375000Y-44350000D03*
X67425000Y-45425000D03*
X67350000Y-46675000D03*
X65700000Y-46700000D03*
X65650000Y-45500000D03*
X65750000Y-44375000D03*
X60050000Y-37125000D03*
X58725000Y-37100000D03*
X57500000Y-37125000D03*
X57500000Y-38200000D03*
X57550000Y-39250000D03*
X67400000Y-47700000D03*
X67400000Y-48800000D03*
X65800000Y-48800000D03*
X65800000Y-47700000D03*
X57700000Y-44100000D03*
X63800000Y-44700000D03*
X55499000Y-39624000D03*
X55245000Y-41656000D03*
X55245000Y-43053000D03*
X54991000Y-45420001D03*
X54483000Y-43053000D03*
X55431002Y-40259000D03*
X56193029Y-48963029D03*
X65900000Y-50000000D03*
X67400000Y-50000000D03*
X67400000Y-51300000D03*
X67400000Y-52600000D03*
X67400000Y-55600000D03*
X67400000Y-54100000D03*
X65900000Y-55600000D03*
X65900000Y-54100000D03*
X65700000Y-52000000D03*
X48704500Y-47625000D03*
X49847500Y-49466500D03*
X48133000Y-48323500D03*
D15*
X34607500Y-47815500D03*
D14*
X57010300Y-54190900D03*
X58026300Y-54254400D03*
X58674000Y-53657500D03*
X41236900Y-38582600D03*
X41694100Y-45212000D03*
X55867300Y-55384700D03*
%TO.N,+BATT*%
X43561000Y-55372000D03*
X42037000Y-55245000D03*
X34163000Y-53086000D03*
X34962500Y-52488500D03*
X34290000Y-51816000D03*
D15*
X48895000Y-43561000D03*
X50753000Y-43584500D03*
X52070000Y-43688000D03*
D14*
X43815000Y-51181000D03*
X50400000Y-38100000D03*
X51100000Y-37300000D03*
D15*
X37592000Y-47815500D03*
%TD*%
D16*
%TO.N,GND*%
X57678809Y-36658158D02*
X57747789Y-36742211D01*
X57831842Y-36811191D01*
X57927737Y-36862448D01*
X58031789Y-36894012D01*
X58112891Y-36902000D01*
X58112892Y-36902000D01*
X58140000Y-36904670D01*
X58167109Y-36902000D01*
X67590000Y-36902000D01*
X67590000Y-37173000D01*
X61700000Y-37173000D01*
X61675224Y-37175440D01*
X61651399Y-37182667D01*
X61629443Y-37194403D01*
X61610197Y-37210197D01*
X61594403Y-37229443D01*
X61582667Y-37251399D01*
X61575440Y-37275224D01*
X61573000Y-37300000D01*
X61573000Y-41300000D01*
X61575440Y-41324776D01*
X61582667Y-41348601D01*
X61594403Y-41370557D01*
X61610197Y-41389803D01*
X61629443Y-41405597D01*
X61651399Y-41417333D01*
X61675224Y-41424560D01*
X61700000Y-41427000D01*
X67590000Y-41427000D01*
X67590001Y-55798000D01*
X58167108Y-55798000D01*
X58140000Y-55795330D01*
X58112891Y-55798000D01*
X58031789Y-55805988D01*
X57927737Y-55837552D01*
X57831842Y-55888809D01*
X57747789Y-55957789D01*
X57678809Y-56041842D01*
X57640000Y-56114448D01*
X57601191Y-56041842D01*
X57532211Y-55957789D01*
X57448158Y-55888809D01*
X57352263Y-55837552D01*
X57248211Y-55805988D01*
X57140000Y-55795330D01*
X57112892Y-55798000D01*
X50384000Y-55798000D01*
X50384000Y-55681397D01*
X50356062Y-55540942D01*
X50301259Y-55408636D01*
X50221698Y-55289564D01*
X50221481Y-55289347D01*
X50227000Y-55261603D01*
X50227000Y-55118397D01*
X50199062Y-54977942D01*
X50144259Y-54845636D01*
X50064698Y-54726564D01*
X49963436Y-54625302D01*
X49844364Y-54545741D01*
X49712058Y-54490938D01*
X49571603Y-54463000D01*
X49428397Y-54463000D01*
X49287942Y-54490938D01*
X49155636Y-54545741D01*
X49036564Y-54625302D01*
X49026956Y-54634910D01*
X49016857Y-54619795D01*
X49054364Y-54604259D01*
X49173436Y-54524698D01*
X49274698Y-54423436D01*
X49354259Y-54304364D01*
X49409062Y-54172058D01*
X49437000Y-54031603D01*
X49437000Y-53888397D01*
X49414723Y-53776397D01*
X54518000Y-53776397D01*
X54518000Y-53919603D01*
X54545938Y-54060058D01*
X54600741Y-54192364D01*
X54680302Y-54311436D01*
X54781564Y-54412698D01*
X54900636Y-54492259D01*
X55032942Y-54547062D01*
X55173397Y-54575000D01*
X55316603Y-54575000D01*
X55457058Y-54547062D01*
X55589364Y-54492259D01*
X55708436Y-54412698D01*
X55809698Y-54311436D01*
X55889259Y-54192364D01*
X55944062Y-54060058D01*
X55972000Y-53919603D01*
X55972000Y-53776397D01*
X55944062Y-53635942D01*
X55889259Y-53503636D01*
X55809698Y-53384564D01*
X55708436Y-53283302D01*
X55589364Y-53203741D01*
X55457058Y-53148938D01*
X55316603Y-53121000D01*
X55173397Y-53121000D01*
X55032942Y-53148938D01*
X54900636Y-53203741D01*
X54781564Y-53283302D01*
X54680302Y-53384564D01*
X54600741Y-53503636D01*
X54545938Y-53635942D01*
X54518000Y-53776397D01*
X49414723Y-53776397D01*
X49409062Y-53747942D01*
X49354259Y-53615636D01*
X49274698Y-53496564D01*
X49173436Y-53395302D01*
X49054364Y-53315741D01*
X48922058Y-53260938D01*
X48781603Y-53233000D01*
X48638397Y-53233000D01*
X48497942Y-53260938D01*
X48365636Y-53315741D01*
X48246564Y-53395302D01*
X48145302Y-53496564D01*
X48065741Y-53615636D01*
X48010938Y-53747942D01*
X47983000Y-53888397D01*
X47983000Y-54031603D01*
X48010938Y-54172058D01*
X48065741Y-54304364D01*
X48143143Y-54420205D01*
X48105636Y-54435741D01*
X47986564Y-54515302D01*
X47885302Y-54616564D01*
X47805741Y-54735636D01*
X47750938Y-54867942D01*
X47723000Y-55008397D01*
X47723000Y-55151603D01*
X47750938Y-55292058D01*
X47805741Y-55424364D01*
X47885302Y-55543436D01*
X47986564Y-55644698D01*
X48105636Y-55724259D01*
X48237942Y-55779062D01*
X48333151Y-55798000D01*
X44167108Y-55798000D01*
X44151724Y-55796485D01*
X44205259Y-55716364D01*
X44260062Y-55584058D01*
X44288000Y-55443603D01*
X44288000Y-55300397D01*
X44260062Y-55159942D01*
X44205259Y-55027636D01*
X44125698Y-54908564D01*
X44024436Y-54807302D01*
X43905364Y-54727741D01*
X43773058Y-54672938D01*
X43632603Y-54645000D01*
X43489397Y-54645000D01*
X43348942Y-54672938D01*
X43216636Y-54727741D01*
X43097564Y-54807302D01*
X42996302Y-54908564D01*
X42916741Y-55027636D01*
X42861938Y-55159942D01*
X42834000Y-55300397D01*
X42834000Y-55443603D01*
X42861938Y-55584058D01*
X42916741Y-55716364D01*
X42971288Y-55798000D01*
X42512134Y-55798000D01*
X42601698Y-55708436D01*
X42681259Y-55589364D01*
X42736062Y-55457058D01*
X42764000Y-55316603D01*
X42764000Y-55173397D01*
X42736062Y-55032942D01*
X42681259Y-54900636D01*
X42601698Y-54781564D01*
X42500436Y-54680302D01*
X42381364Y-54600741D01*
X42249058Y-54545938D01*
X42108603Y-54518000D01*
X41965397Y-54518000D01*
X41824942Y-54545938D01*
X41692636Y-54600741D01*
X41573564Y-54680302D01*
X41472302Y-54781564D01*
X41392741Y-54900636D01*
X41337938Y-55032942D01*
X41310000Y-55173397D01*
X41310000Y-55316603D01*
X41337938Y-55457058D01*
X41392741Y-55589364D01*
X41472302Y-55708436D01*
X41561866Y-55798000D01*
X33694000Y-55798000D01*
X33694000Y-54248397D01*
X46133000Y-54248397D01*
X46133000Y-54391603D01*
X46160938Y-54532058D01*
X46215741Y-54664364D01*
X46295302Y-54783436D01*
X46396564Y-54884698D01*
X46515636Y-54964259D01*
X46647942Y-55019062D01*
X46788397Y-55047000D01*
X46931603Y-55047000D01*
X47072058Y-55019062D01*
X47204364Y-54964259D01*
X47323436Y-54884698D01*
X47424698Y-54783436D01*
X47504259Y-54664364D01*
X47545650Y-54564437D01*
X47594364Y-54544259D01*
X47713436Y-54464698D01*
X47814698Y-54363436D01*
X47894259Y-54244364D01*
X47949062Y-54112058D01*
X47977000Y-53971603D01*
X47977000Y-53828397D01*
X47949062Y-53687942D01*
X47894259Y-53555636D01*
X47814698Y-53436564D01*
X47713436Y-53335302D01*
X47594364Y-53255741D01*
X47462058Y-53200938D01*
X47321603Y-53173000D01*
X47178397Y-53173000D01*
X47037942Y-53200938D01*
X46905636Y-53255741D01*
X46786564Y-53335302D01*
X46685302Y-53436564D01*
X46605741Y-53555636D01*
X46564350Y-53655563D01*
X46515636Y-53675741D01*
X46396564Y-53755302D01*
X46295302Y-53856564D01*
X46215741Y-53975636D01*
X46160938Y-54107942D01*
X46133000Y-54248397D01*
X33694000Y-54248397D01*
X33694000Y-53645134D01*
X33699564Y-53650698D01*
X33818636Y-53730259D01*
X33950942Y-53785062D01*
X34091397Y-53813000D01*
X34234603Y-53813000D01*
X34375058Y-53785062D01*
X34507364Y-53730259D01*
X34626436Y-53650698D01*
X34727698Y-53549436D01*
X34807259Y-53430364D01*
X34862062Y-53298058D01*
X34878956Y-53213125D01*
X34890897Y-53215500D01*
X35034103Y-53215500D01*
X35174558Y-53187562D01*
X35306864Y-53132759D01*
X35425936Y-53053198D01*
X35527198Y-52951936D01*
X35606759Y-52832864D01*
X35661562Y-52700558D01*
X35689500Y-52560103D01*
X35689500Y-52438397D01*
X47313000Y-52438397D01*
X47313000Y-52581603D01*
X47340938Y-52722058D01*
X47395741Y-52854364D01*
X47475302Y-52973436D01*
X47576564Y-53074698D01*
X47695636Y-53154259D01*
X47827942Y-53209062D01*
X47968397Y-53237000D01*
X48111603Y-53237000D01*
X48252058Y-53209062D01*
X48384364Y-53154259D01*
X48503436Y-53074698D01*
X48604698Y-52973436D01*
X48684259Y-52854364D01*
X48739062Y-52722058D01*
X48767000Y-52581603D01*
X48767000Y-52438397D01*
X48739062Y-52297942D01*
X48684259Y-52165636D01*
X48604698Y-52046564D01*
X48503436Y-51945302D01*
X48392829Y-51871397D01*
X55915000Y-51871397D01*
X55915000Y-52014603D01*
X55942938Y-52155058D01*
X55997741Y-52287364D01*
X56077302Y-52406436D01*
X56178564Y-52507698D01*
X56297636Y-52587259D01*
X56429942Y-52642062D01*
X56570397Y-52670000D01*
X56713603Y-52670000D01*
X56854058Y-52642062D01*
X56986364Y-52587259D01*
X57105436Y-52507698D01*
X57206698Y-52406436D01*
X57286259Y-52287364D01*
X57341062Y-52155058D01*
X57369000Y-52014603D01*
X57369000Y-51891427D01*
X59528360Y-51891427D01*
X59528360Y-52034633D01*
X59556298Y-52175088D01*
X59611101Y-52307394D01*
X59690662Y-52426466D01*
X59791924Y-52527728D01*
X59910996Y-52607289D01*
X60043302Y-52662092D01*
X60183757Y-52690030D01*
X60326963Y-52690030D01*
X60467418Y-52662092D01*
X60599724Y-52607289D01*
X60718796Y-52527728D01*
X60820058Y-52426466D01*
X60899619Y-52307394D01*
X60900543Y-52305162D01*
X61094635Y-52305162D01*
X61094635Y-52448368D01*
X61122573Y-52588823D01*
X61177376Y-52721129D01*
X61256937Y-52840201D01*
X61358199Y-52941463D01*
X61477271Y-53021024D01*
X61609577Y-53075827D01*
X61750032Y-53103765D01*
X61893238Y-53103765D01*
X62033693Y-53075827D01*
X62165999Y-53021024D01*
X62249452Y-52965263D01*
X62253936Y-52968259D01*
X62386242Y-53023062D01*
X62526697Y-53051000D01*
X62669903Y-53051000D01*
X62810358Y-53023062D01*
X62942664Y-52968259D01*
X63061736Y-52888698D01*
X63162998Y-52787436D01*
X63242559Y-52668364D01*
X63297362Y-52536058D01*
X63325300Y-52395603D01*
X63325300Y-52252397D01*
X63297362Y-52111942D01*
X63242559Y-51979636D01*
X63162998Y-51860564D01*
X63061736Y-51759302D01*
X62942664Y-51679741D01*
X62810358Y-51624938D01*
X62669903Y-51597000D01*
X62526697Y-51597000D01*
X62386242Y-51624938D01*
X62253936Y-51679741D01*
X62170483Y-51735502D01*
X62165999Y-51732506D01*
X62033693Y-51677703D01*
X61893238Y-51649765D01*
X61750032Y-51649765D01*
X61609577Y-51677703D01*
X61477271Y-51732506D01*
X61358199Y-51812067D01*
X61256937Y-51913329D01*
X61177376Y-52032401D01*
X61122573Y-52164707D01*
X61094635Y-52305162D01*
X60900543Y-52305162D01*
X60954422Y-52175088D01*
X60982360Y-52034633D01*
X60982360Y-51891427D01*
X60954422Y-51750972D01*
X60899619Y-51618666D01*
X60820058Y-51499594D01*
X60718796Y-51398332D01*
X60599724Y-51318771D01*
X60467418Y-51263968D01*
X60326963Y-51236030D01*
X60183757Y-51236030D01*
X60043302Y-51263968D01*
X59910996Y-51318771D01*
X59791924Y-51398332D01*
X59690662Y-51499594D01*
X59611101Y-51618666D01*
X59556298Y-51750972D01*
X59528360Y-51891427D01*
X57369000Y-51891427D01*
X57369000Y-51871397D01*
X57341062Y-51730942D01*
X57286259Y-51598636D01*
X57206698Y-51479564D01*
X57105436Y-51378302D01*
X56986364Y-51298741D01*
X56854058Y-51243938D01*
X56713603Y-51216000D01*
X56570397Y-51216000D01*
X56429942Y-51243938D01*
X56297636Y-51298741D01*
X56178564Y-51378302D01*
X56077302Y-51479564D01*
X55997741Y-51598636D01*
X55942938Y-51730942D01*
X55915000Y-51871397D01*
X48392829Y-51871397D01*
X48384364Y-51865741D01*
X48252058Y-51810938D01*
X48111603Y-51783000D01*
X47968397Y-51783000D01*
X47827942Y-51810938D01*
X47695636Y-51865741D01*
X47576564Y-51945302D01*
X47475302Y-52046564D01*
X47395741Y-52165636D01*
X47340938Y-52297942D01*
X47313000Y-52438397D01*
X35689500Y-52438397D01*
X35689500Y-52416897D01*
X35661562Y-52276442D01*
X35606759Y-52144136D01*
X35527198Y-52025064D01*
X35425936Y-51923802D01*
X35306864Y-51844241D01*
X35174558Y-51789438D01*
X35034103Y-51761500D01*
X35017000Y-51761500D01*
X35017000Y-51744397D01*
X34989062Y-51603942D01*
X34934259Y-51471636D01*
X34854698Y-51352564D01*
X34753436Y-51251302D01*
X34634364Y-51171741D01*
X34502058Y-51116938D01*
X34464147Y-51109397D01*
X43088000Y-51109397D01*
X43088000Y-51252603D01*
X43115938Y-51393058D01*
X43170741Y-51525364D01*
X43250302Y-51644436D01*
X43351564Y-51745698D01*
X43470636Y-51825259D01*
X43602942Y-51880062D01*
X43743397Y-51908000D01*
X43886603Y-51908000D01*
X44027058Y-51880062D01*
X44159364Y-51825259D01*
X44278436Y-51745698D01*
X44379698Y-51644436D01*
X44459259Y-51525364D01*
X44514062Y-51393058D01*
X44542000Y-51252603D01*
X44542000Y-51109397D01*
X44514062Y-50968942D01*
X44459259Y-50836636D01*
X44379698Y-50717564D01*
X44278436Y-50616302D01*
X44159364Y-50536741D01*
X44027058Y-50481938D01*
X43886603Y-50454000D01*
X43743397Y-50454000D01*
X43602942Y-50481938D01*
X43470636Y-50536741D01*
X43351564Y-50616302D01*
X43250302Y-50717564D01*
X43170741Y-50836636D01*
X43115938Y-50968942D01*
X43088000Y-51109397D01*
X34464147Y-51109397D01*
X34361603Y-51089000D01*
X34218397Y-51089000D01*
X34077942Y-51116938D01*
X33945636Y-51171741D01*
X33826564Y-51251302D01*
X33725302Y-51352564D01*
X33694000Y-51399411D01*
X33694000Y-49839397D01*
X45628000Y-49839397D01*
X45628000Y-49982603D01*
X45655938Y-50123058D01*
X45710741Y-50255364D01*
X45790302Y-50374436D01*
X45891564Y-50475698D01*
X46010636Y-50555259D01*
X46142942Y-50610062D01*
X46283397Y-50638000D01*
X46426603Y-50638000D01*
X46567058Y-50610062D01*
X46699364Y-50555259D01*
X46818436Y-50475698D01*
X46919698Y-50374436D01*
X46999259Y-50255364D01*
X47054062Y-50123058D01*
X47082000Y-49982603D01*
X47082000Y-49839397D01*
X47054062Y-49698942D01*
X46999259Y-49566636D01*
X46919698Y-49447564D01*
X46818436Y-49346302D01*
X46731775Y-49288397D01*
X47093000Y-49288397D01*
X47093000Y-49431603D01*
X47120938Y-49572058D01*
X47175741Y-49704364D01*
X47255302Y-49823436D01*
X47356564Y-49924698D01*
X47475636Y-50004259D01*
X47607942Y-50059062D01*
X47748397Y-50087000D01*
X47891603Y-50087000D01*
X48032058Y-50059062D01*
X48164364Y-50004259D01*
X48193000Y-49985125D01*
X48193000Y-50051603D01*
X48220938Y-50192058D01*
X48275741Y-50324364D01*
X48355302Y-50443436D01*
X48456564Y-50544698D01*
X48575636Y-50624259D01*
X48707942Y-50679062D01*
X48848397Y-50707000D01*
X48991603Y-50707000D01*
X49132058Y-50679062D01*
X49264364Y-50624259D01*
X49383436Y-50544698D01*
X49484698Y-50443436D01*
X49564259Y-50324364D01*
X49619062Y-50192058D01*
X49638686Y-50093397D01*
X64170000Y-50093397D01*
X64170000Y-50236603D01*
X64197938Y-50377058D01*
X64252741Y-50509364D01*
X64332302Y-50628436D01*
X64433564Y-50729698D01*
X64552636Y-50809259D01*
X64684942Y-50864062D01*
X64744476Y-50875904D01*
X64705938Y-50968942D01*
X64678000Y-51109397D01*
X64678000Y-51252603D01*
X64705938Y-51393058D01*
X64760741Y-51525364D01*
X64840302Y-51644436D01*
X64941564Y-51745698D01*
X65060636Y-51825259D01*
X65192942Y-51880062D01*
X65333397Y-51908000D01*
X65476603Y-51908000D01*
X65617058Y-51880062D01*
X65749364Y-51825259D01*
X65868436Y-51745698D01*
X65969698Y-51644436D01*
X66049259Y-51525364D01*
X66104062Y-51393058D01*
X66132000Y-51252603D01*
X66132000Y-51109397D01*
X66104062Y-50968942D01*
X66049259Y-50836636D01*
X65969698Y-50717564D01*
X65868436Y-50616302D01*
X65749364Y-50536741D01*
X65617058Y-50481938D01*
X65557524Y-50470096D01*
X65596062Y-50377058D01*
X65624000Y-50236603D01*
X65624000Y-50093397D01*
X65596062Y-49952942D01*
X65541259Y-49820636D01*
X65461698Y-49701564D01*
X65360436Y-49600302D01*
X65241364Y-49520741D01*
X65109058Y-49465938D01*
X64968603Y-49438000D01*
X64825397Y-49438000D01*
X64684942Y-49465938D01*
X64552636Y-49520741D01*
X64433564Y-49600302D01*
X64332302Y-49701564D01*
X64252741Y-49820636D01*
X64197938Y-49952942D01*
X64170000Y-50093397D01*
X49638686Y-50093397D01*
X49647000Y-50051603D01*
X49647000Y-49908397D01*
X49619062Y-49767942D01*
X49564259Y-49635636D01*
X49484698Y-49516564D01*
X49383436Y-49415302D01*
X49264364Y-49335741D01*
X49132058Y-49280938D01*
X48991603Y-49253000D01*
X48848397Y-49253000D01*
X48707942Y-49280938D01*
X48575636Y-49335741D01*
X48547000Y-49354875D01*
X48547000Y-49288397D01*
X48519062Y-49147942D01*
X48464259Y-49015636D01*
X48384698Y-48896564D01*
X48311531Y-48823397D01*
X50835000Y-48823397D01*
X50835000Y-48966603D01*
X50862938Y-49107058D01*
X50917741Y-49239364D01*
X50997302Y-49358436D01*
X51098564Y-49459698D01*
X51217636Y-49539259D01*
X51349942Y-49594062D01*
X51490397Y-49622000D01*
X51633603Y-49622000D01*
X51774058Y-49594062D01*
X51906364Y-49539259D01*
X52025436Y-49459698D01*
X52126698Y-49358436D01*
X52206259Y-49239364D01*
X52261062Y-49107058D01*
X52289000Y-48966603D01*
X52289000Y-48823397D01*
X52261062Y-48682942D01*
X52206259Y-48550636D01*
X52179447Y-48510508D01*
X52260500Y-48456351D01*
X52360636Y-48523259D01*
X52492942Y-48578062D01*
X52633397Y-48606000D01*
X52776603Y-48606000D01*
X52917058Y-48578062D01*
X53049364Y-48523259D01*
X53168436Y-48443698D01*
X53269698Y-48342436D01*
X53349259Y-48223364D01*
X53404062Y-48091058D01*
X53432000Y-47950603D01*
X53432000Y-47807397D01*
X53404062Y-47666942D01*
X53372192Y-47590000D01*
X53411603Y-47590000D01*
X53552058Y-47562062D01*
X53684364Y-47507259D01*
X53803436Y-47427698D01*
X53812897Y-47418237D01*
X55003000Y-47418237D01*
X55003000Y-47561443D01*
X55030938Y-47701898D01*
X55085741Y-47834204D01*
X55165302Y-47953276D01*
X55180446Y-47968420D01*
X55130938Y-48087942D01*
X55103000Y-48228397D01*
X55103000Y-48371603D01*
X55130938Y-48512058D01*
X55185741Y-48644364D01*
X55265302Y-48763436D01*
X55366564Y-48864698D01*
X55485636Y-48944259D01*
X55617942Y-48999062D01*
X55758397Y-49027000D01*
X55901603Y-49027000D01*
X56042058Y-48999062D01*
X56174364Y-48944259D01*
X56293436Y-48864698D01*
X56394698Y-48763436D01*
X56474259Y-48644364D01*
X56529062Y-48512058D01*
X56557000Y-48371603D01*
X56557000Y-48228397D01*
X56529062Y-48087942D01*
X56474259Y-47955636D01*
X56394698Y-47836564D01*
X56379554Y-47821420D01*
X56429062Y-47701898D01*
X56457000Y-47561443D01*
X56457000Y-47418237D01*
X56429062Y-47277782D01*
X56374259Y-47145476D01*
X56294698Y-47026404D01*
X56193436Y-46925142D01*
X56074364Y-46845581D01*
X55942058Y-46790778D01*
X55801603Y-46762840D01*
X55658397Y-46762840D01*
X55517942Y-46790778D01*
X55385636Y-46845581D01*
X55266564Y-46925142D01*
X55165302Y-47026404D01*
X55085741Y-47145476D01*
X55030938Y-47277782D01*
X55003000Y-47418237D01*
X53812897Y-47418237D01*
X53904698Y-47326436D01*
X53984259Y-47207364D01*
X54039062Y-47075058D01*
X54067000Y-46934603D01*
X54067000Y-46791397D01*
X54054469Y-46728397D01*
X63946000Y-46728397D01*
X63946000Y-46871603D01*
X63973938Y-47012058D01*
X64028741Y-47144364D01*
X64108302Y-47263436D01*
X64209564Y-47364698D01*
X64328636Y-47444259D01*
X64460942Y-47499062D01*
X64601397Y-47527000D01*
X64744603Y-47527000D01*
X64885058Y-47499062D01*
X65017364Y-47444259D01*
X65136436Y-47364698D01*
X65237698Y-47263436D01*
X65317259Y-47144364D01*
X65372062Y-47012058D01*
X65400000Y-46871603D01*
X65400000Y-46728397D01*
X65372062Y-46587942D01*
X65317259Y-46455636D01*
X65237698Y-46336564D01*
X65136436Y-46235302D01*
X65017364Y-46155741D01*
X65017004Y-46155592D01*
X65044364Y-46144259D01*
X65163436Y-46064698D01*
X65264698Y-45963436D01*
X65344259Y-45844364D01*
X65399062Y-45712058D01*
X65427000Y-45571603D01*
X65427000Y-45428397D01*
X65399062Y-45287942D01*
X65344259Y-45155636D01*
X65264698Y-45036564D01*
X65163436Y-44935302D01*
X65044364Y-44855741D01*
X64912058Y-44800938D01*
X64771603Y-44773000D01*
X64628397Y-44773000D01*
X64487942Y-44800938D01*
X64355636Y-44855741D01*
X64236564Y-44935302D01*
X64135302Y-45036564D01*
X64055741Y-45155636D01*
X64000938Y-45287942D01*
X63973000Y-45428397D01*
X63973000Y-45571603D01*
X64000938Y-45712058D01*
X64055741Y-45844364D01*
X64135302Y-45963436D01*
X64236564Y-46064698D01*
X64355636Y-46144259D01*
X64355996Y-46144408D01*
X64328636Y-46155741D01*
X64209564Y-46235302D01*
X64108302Y-46336564D01*
X64028741Y-46455636D01*
X63973938Y-46587942D01*
X63946000Y-46728397D01*
X54054469Y-46728397D01*
X54039062Y-46650942D01*
X53984259Y-46518636D01*
X53904698Y-46399564D01*
X53803436Y-46298302D01*
X53684364Y-46218741D01*
X53552058Y-46163938D01*
X53411603Y-46136000D01*
X53268397Y-46136000D01*
X53127942Y-46163938D01*
X52995636Y-46218741D01*
X52876564Y-46298302D01*
X52775302Y-46399564D01*
X52695741Y-46518636D01*
X52640938Y-46650942D01*
X52613000Y-46791397D01*
X52613000Y-46934603D01*
X52640938Y-47075058D01*
X52672808Y-47152000D01*
X52633397Y-47152000D01*
X52492942Y-47179938D01*
X52360636Y-47234741D01*
X52260500Y-47301649D01*
X52160364Y-47234741D01*
X52028058Y-47179938D01*
X51887603Y-47152000D01*
X51744397Y-47152000D01*
X51603942Y-47179938D01*
X51471636Y-47234741D01*
X51352564Y-47314302D01*
X51251302Y-47415564D01*
X51171741Y-47534636D01*
X51116938Y-47666942D01*
X51089000Y-47807397D01*
X51089000Y-47950603D01*
X51116938Y-48091058D01*
X51171741Y-48223364D01*
X51198553Y-48263492D01*
X51098564Y-48330302D01*
X50997302Y-48431564D01*
X50917741Y-48550636D01*
X50862938Y-48682942D01*
X50835000Y-48823397D01*
X48311531Y-48823397D01*
X48283436Y-48795302D01*
X48164364Y-48715741D01*
X48032058Y-48660938D01*
X47891603Y-48633000D01*
X47748397Y-48633000D01*
X47607942Y-48660938D01*
X47475636Y-48715741D01*
X47356564Y-48795302D01*
X47255302Y-48896564D01*
X47175741Y-49015636D01*
X47120938Y-49147942D01*
X47093000Y-49288397D01*
X46731775Y-49288397D01*
X46699364Y-49266741D01*
X46567058Y-49211938D01*
X46426603Y-49184000D01*
X46283397Y-49184000D01*
X46142942Y-49211938D01*
X46010636Y-49266741D01*
X45891564Y-49346302D01*
X45790302Y-49447564D01*
X45710741Y-49566636D01*
X45655938Y-49698942D01*
X45628000Y-49839397D01*
X33694000Y-49839397D01*
X33694000Y-47734048D01*
X36765000Y-47734048D01*
X36765000Y-47896952D01*
X36796782Y-48056727D01*
X36859123Y-48207231D01*
X36949628Y-48342681D01*
X37064819Y-48457872D01*
X37200269Y-48548377D01*
X37350773Y-48610718D01*
X37510548Y-48642500D01*
X37673452Y-48642500D01*
X37833227Y-48610718D01*
X37983731Y-48548377D01*
X38119181Y-48457872D01*
X38234372Y-48342681D01*
X38324877Y-48207231D01*
X38387218Y-48056727D01*
X38419000Y-47896952D01*
X38419000Y-47734048D01*
X38387218Y-47574273D01*
X38324877Y-47423769D01*
X38241080Y-47298358D01*
X41407000Y-47298358D01*
X41407000Y-47697642D01*
X41484896Y-48089254D01*
X41637696Y-48458145D01*
X41859526Y-48790137D01*
X42141863Y-49072474D01*
X42473855Y-49294304D01*
X42842746Y-49447104D01*
X43234358Y-49525000D01*
X43633642Y-49525000D01*
X44025254Y-49447104D01*
X44394145Y-49294304D01*
X44726137Y-49072474D01*
X45008474Y-48790137D01*
X45230304Y-48458145D01*
X45383104Y-48089254D01*
X45461000Y-47697642D01*
X45461000Y-47298358D01*
X45383104Y-46906746D01*
X45351586Y-46830653D01*
X45677952Y-46830653D01*
X45833962Y-47146214D01*
X46208745Y-47337020D01*
X46613551Y-47451044D01*
X47032824Y-47483902D01*
X47450451Y-47434334D01*
X47850383Y-47304243D01*
X48146038Y-47146214D01*
X48302048Y-46830653D01*
X46990000Y-45518605D01*
X45677952Y-46830653D01*
X45351586Y-46830653D01*
X45230304Y-46537855D01*
X45211022Y-46508998D01*
X45498347Y-46651048D01*
X46810395Y-45339000D01*
X45498347Y-44026952D01*
X45182786Y-44182962D01*
X44991980Y-44557745D01*
X44877956Y-44962551D01*
X44845098Y-45381824D01*
X44894666Y-45799451D01*
X45024757Y-46199383D01*
X45107179Y-46353585D01*
X45008474Y-46205863D01*
X44726137Y-45923526D01*
X44394145Y-45701696D01*
X44025254Y-45548896D01*
X43633642Y-45471000D01*
X43234358Y-45471000D01*
X42842746Y-45548896D01*
X42473855Y-45701696D01*
X42141863Y-45923526D01*
X41859526Y-46205863D01*
X41637696Y-46537855D01*
X41484896Y-46906746D01*
X41407000Y-47298358D01*
X38241080Y-47298358D01*
X38234372Y-47288319D01*
X38119181Y-47173128D01*
X37983731Y-47082623D01*
X37833227Y-47020282D01*
X37673452Y-46988500D01*
X37510548Y-46988500D01*
X37350773Y-47020282D01*
X37200269Y-47082623D01*
X37064819Y-47173128D01*
X36949628Y-47288319D01*
X36859123Y-47423769D01*
X36796782Y-47574273D01*
X36765000Y-47734048D01*
X33694000Y-47734048D01*
X33694000Y-45976000D01*
X33843273Y-45976000D01*
X33862137Y-46167525D01*
X33918003Y-46351691D01*
X34008724Y-46521418D01*
X34130814Y-46670186D01*
X34279582Y-46792276D01*
X34449309Y-46882997D01*
X34633475Y-46938863D01*
X34777007Y-46953000D01*
X35672993Y-46953000D01*
X35816525Y-46938863D01*
X36000691Y-46882997D01*
X36170418Y-46792276D01*
X36319186Y-46670186D01*
X36441276Y-46521418D01*
X36531997Y-46351691D01*
X36587863Y-46167525D01*
X36606727Y-45976000D01*
X37863273Y-45976000D01*
X37882137Y-46167525D01*
X37938003Y-46351691D01*
X38028724Y-46521418D01*
X38150814Y-46670186D01*
X38299582Y-46792276D01*
X38469309Y-46882997D01*
X38653475Y-46938863D01*
X38797007Y-46953000D01*
X39992993Y-46953000D01*
X40136525Y-46938863D01*
X40320691Y-46882997D01*
X40490418Y-46792276D01*
X40639186Y-46670186D01*
X40761276Y-46521418D01*
X40851997Y-46351691D01*
X40907863Y-46167525D01*
X40926727Y-45976000D01*
X40907863Y-45784475D01*
X40851997Y-45600309D01*
X40761276Y-45430582D01*
X40639186Y-45281814D01*
X40490418Y-45159724D01*
X40320691Y-45069003D01*
X40136525Y-45013137D01*
X39992993Y-44999000D01*
X39606938Y-44999000D01*
X39647877Y-44937731D01*
X39710218Y-44787227D01*
X39742000Y-44627452D01*
X39742000Y-44464548D01*
X39710218Y-44304773D01*
X39647877Y-44154269D01*
X39557372Y-44018819D01*
X39442181Y-43903628D01*
X39306731Y-43813123D01*
X39156227Y-43750782D01*
X38996452Y-43719000D01*
X38833548Y-43719000D01*
X38673773Y-43750782D01*
X38523269Y-43813123D01*
X38387819Y-43903628D01*
X38272628Y-44018819D01*
X38182123Y-44154269D01*
X38119782Y-44304773D01*
X38088000Y-44464548D01*
X38088000Y-44627452D01*
X38119782Y-44787227D01*
X38182123Y-44937731D01*
X38272628Y-45073181D01*
X38338415Y-45138968D01*
X38299582Y-45159724D01*
X38150814Y-45281814D01*
X38028724Y-45430582D01*
X37938003Y-45600309D01*
X37882137Y-45784475D01*
X37863273Y-45976000D01*
X36606727Y-45976000D01*
X36587863Y-45784475D01*
X36531997Y-45600309D01*
X36441276Y-45430582D01*
X36319186Y-45281814D01*
X36170418Y-45159724D01*
X36000691Y-45069003D01*
X35816525Y-45013137D01*
X35672993Y-44999000D01*
X34777007Y-44999000D01*
X34633475Y-45013137D01*
X34449309Y-45069003D01*
X34279582Y-45159724D01*
X34130814Y-45281814D01*
X34008724Y-45430582D01*
X33918003Y-45600309D01*
X33862137Y-45784475D01*
X33843273Y-45976000D01*
X33694000Y-45976000D01*
X33694000Y-42854397D01*
X37373000Y-42854397D01*
X37373000Y-42997603D01*
X37400938Y-43138058D01*
X37455741Y-43270364D01*
X37535302Y-43389436D01*
X37636564Y-43490698D01*
X37755636Y-43570259D01*
X37887942Y-43625062D01*
X38028397Y-43653000D01*
X38171603Y-43653000D01*
X38193225Y-43648699D01*
X40492700Y-43648699D01*
X40492700Y-43791905D01*
X40520638Y-43932360D01*
X40575441Y-44064666D01*
X40651477Y-44178462D01*
X40649600Y-44187897D01*
X40649600Y-44331103D01*
X40677538Y-44471558D01*
X40732341Y-44603864D01*
X40811902Y-44722936D01*
X40913164Y-44824198D01*
X41032236Y-44903759D01*
X41164542Y-44958562D01*
X41304997Y-44986500D01*
X41448203Y-44986500D01*
X41588658Y-44958562D01*
X41720964Y-44903759D01*
X41840036Y-44824198D01*
X41941298Y-44722936D01*
X42020859Y-44603864D01*
X42075662Y-44471558D01*
X42103600Y-44331103D01*
X42103600Y-44187897D01*
X42075662Y-44047442D01*
X42020859Y-43915136D01*
X41975564Y-43847347D01*
X45677952Y-43847347D01*
X46990000Y-45159395D01*
X47004143Y-45145253D01*
X47183748Y-45324858D01*
X47169605Y-45339000D01*
X48481653Y-46651048D01*
X48797214Y-46495038D01*
X48988020Y-46120255D01*
X49102044Y-45715449D01*
X49134902Y-45296176D01*
X49085334Y-44878549D01*
X49016976Y-44668397D01*
X49313000Y-44668397D01*
X49313000Y-44811603D01*
X49340938Y-44952058D01*
X49395741Y-45084364D01*
X49475302Y-45203436D01*
X49576564Y-45304698D01*
X49695636Y-45384259D01*
X49827942Y-45439062D01*
X49968397Y-45467000D01*
X50111603Y-45467000D01*
X50252058Y-45439062D01*
X50384364Y-45384259D01*
X50503436Y-45304698D01*
X50572673Y-45235461D01*
X50675636Y-45304259D01*
X50807942Y-45359062D01*
X50948397Y-45387000D01*
X51091603Y-45387000D01*
X51232058Y-45359062D01*
X51364364Y-45304259D01*
X51467327Y-45235461D01*
X51476564Y-45244698D01*
X51595636Y-45324259D01*
X51727942Y-45379062D01*
X51868397Y-45407000D01*
X52011603Y-45407000D01*
X52152058Y-45379062D01*
X52274373Y-45328397D01*
X55093000Y-45328397D01*
X55093000Y-45471603D01*
X55120938Y-45612058D01*
X55175741Y-45744364D01*
X55255302Y-45863436D01*
X55356564Y-45964698D01*
X55475636Y-46044259D01*
X55607942Y-46099062D01*
X55748397Y-46127000D01*
X55813703Y-46127000D01*
X55835741Y-46180204D01*
X55915302Y-46299276D01*
X56016564Y-46400538D01*
X56135636Y-46480099D01*
X56267942Y-46534902D01*
X56408397Y-46562840D01*
X56551603Y-46562840D01*
X56692058Y-46534902D01*
X56824364Y-46480099D01*
X56943436Y-46400538D01*
X57044698Y-46299276D01*
X57124259Y-46180204D01*
X57179062Y-46047898D01*
X57207000Y-45907443D01*
X57207000Y-45764237D01*
X57179062Y-45623782D01*
X57124259Y-45491476D01*
X57044698Y-45372404D01*
X56943436Y-45271142D01*
X56824364Y-45191581D01*
X56692058Y-45136778D01*
X56551603Y-45108840D01*
X56486297Y-45108840D01*
X56464259Y-45055636D01*
X56384698Y-44936564D01*
X56283436Y-44835302D01*
X56164364Y-44755741D01*
X56032058Y-44700938D01*
X55891603Y-44673000D01*
X55748397Y-44673000D01*
X55607942Y-44700938D01*
X55475636Y-44755741D01*
X55356564Y-44835302D01*
X55255302Y-44936564D01*
X55175741Y-45055636D01*
X55120938Y-45187942D01*
X55093000Y-45328397D01*
X52274373Y-45328397D01*
X52284364Y-45324259D01*
X52403436Y-45244698D01*
X52504698Y-45143436D01*
X52584259Y-45024364D01*
X52639062Y-44892058D01*
X52667000Y-44751603D01*
X52667000Y-44608397D01*
X52639062Y-44467942D01*
X52585352Y-44338276D01*
X52597181Y-44330372D01*
X52712372Y-44215181D01*
X52802877Y-44079731D01*
X52865218Y-43929227D01*
X52897000Y-43769452D01*
X52897000Y-43606548D01*
X52865218Y-43446773D01*
X52802877Y-43296269D01*
X52712372Y-43160819D01*
X52597181Y-43045628D01*
X52461731Y-42955123D01*
X52311227Y-42892782D01*
X52151452Y-42861000D01*
X51988548Y-42861000D01*
X51828773Y-42892782D01*
X51678269Y-42955123D01*
X51542819Y-43045628D01*
X51449748Y-43138699D01*
X51395372Y-43057319D01*
X51280181Y-42942128D01*
X51144731Y-42851623D01*
X50994227Y-42789282D01*
X50834452Y-42757500D01*
X50671548Y-42757500D01*
X50511773Y-42789282D01*
X50361269Y-42851623D01*
X50225819Y-42942128D01*
X50110628Y-43057319D01*
X50020123Y-43192769D01*
X49957782Y-43343273D01*
X49926000Y-43503048D01*
X49926000Y-43665952D01*
X49957782Y-43825727D01*
X50020123Y-43976231D01*
X50044691Y-44013000D01*
X49968397Y-44013000D01*
X49827942Y-44040938D01*
X49695636Y-44095741D01*
X49576564Y-44175302D01*
X49475302Y-44276564D01*
X49395741Y-44395636D01*
X49340938Y-44527942D01*
X49313000Y-44668397D01*
X49016976Y-44668397D01*
X48955243Y-44478617D01*
X48906808Y-44388000D01*
X48976452Y-44388000D01*
X49136227Y-44356218D01*
X49286731Y-44293877D01*
X49422181Y-44203372D01*
X49537372Y-44088181D01*
X49627877Y-43952731D01*
X49690218Y-43802227D01*
X49722000Y-43642452D01*
X49722000Y-43479548D01*
X49690218Y-43319773D01*
X49627877Y-43169269D01*
X49537372Y-43033819D01*
X49422181Y-42918628D01*
X49286731Y-42828123D01*
X49136227Y-42765782D01*
X48976452Y-42734000D01*
X48813548Y-42734000D01*
X48653773Y-42765782D01*
X48503269Y-42828123D01*
X48367819Y-42918628D01*
X48252628Y-43033819D01*
X48162123Y-43169269D01*
X48099782Y-43319773D01*
X48068000Y-43479548D01*
X48068000Y-43492056D01*
X47771255Y-43340980D01*
X47366449Y-43226956D01*
X46947176Y-43194098D01*
X46529549Y-43243666D01*
X46129617Y-43373757D01*
X45833962Y-43531786D01*
X45677952Y-43847347D01*
X41975564Y-43847347D01*
X41944823Y-43801340D01*
X41946700Y-43791905D01*
X41946700Y-43648699D01*
X41918762Y-43508244D01*
X41863959Y-43375938D01*
X41784398Y-43256866D01*
X41683136Y-43155604D01*
X41564064Y-43076043D01*
X41431758Y-43021240D01*
X41291303Y-42993302D01*
X41148097Y-42993302D01*
X41007642Y-43021240D01*
X40875336Y-43076043D01*
X40756264Y-43155604D01*
X40655002Y-43256866D01*
X40575441Y-43375938D01*
X40520638Y-43508244D01*
X40492700Y-43648699D01*
X38193225Y-43648699D01*
X38312058Y-43625062D01*
X38444364Y-43570259D01*
X38563436Y-43490698D01*
X38664698Y-43389436D01*
X38744259Y-43270364D01*
X38799062Y-43138058D01*
X38827000Y-42997603D01*
X38827000Y-42854397D01*
X38799062Y-42713942D01*
X38744259Y-42581636D01*
X38664698Y-42462564D01*
X38563436Y-42361302D01*
X38444364Y-42281741D01*
X38312058Y-42226938D01*
X38171603Y-42199000D01*
X38028397Y-42199000D01*
X37887942Y-42226938D01*
X37755636Y-42281741D01*
X37636564Y-42361302D01*
X37535302Y-42462564D01*
X37455741Y-42581636D01*
X37400938Y-42713942D01*
X37373000Y-42854397D01*
X33694000Y-42854397D01*
X33694000Y-36902000D01*
X33949170Y-36902000D01*
X33918003Y-36960309D01*
X33862137Y-37144475D01*
X33843273Y-37336000D01*
X33862137Y-37527525D01*
X33918003Y-37711691D01*
X34008724Y-37881418D01*
X34130814Y-38030186D01*
X34279582Y-38152276D01*
X34449309Y-38242997D01*
X34633475Y-38298863D01*
X34777007Y-38313000D01*
X35672993Y-38313000D01*
X35816525Y-38298863D01*
X36000691Y-38242997D01*
X36170418Y-38152276D01*
X36319186Y-38030186D01*
X36441276Y-37881418D01*
X36531997Y-37711691D01*
X36587863Y-37527525D01*
X36606727Y-37336000D01*
X36587863Y-37144475D01*
X36531997Y-36960309D01*
X36500830Y-36902000D01*
X37969170Y-36902000D01*
X37938003Y-36960309D01*
X37882137Y-37144475D01*
X37863273Y-37336000D01*
X37882137Y-37527525D01*
X37938003Y-37711691D01*
X38028724Y-37881418D01*
X38150814Y-38030186D01*
X38299582Y-38152276D01*
X38338415Y-38173032D01*
X38272628Y-38238819D01*
X38182123Y-38374269D01*
X38119782Y-38524773D01*
X38088000Y-38684548D01*
X38088000Y-38847452D01*
X38119782Y-39007227D01*
X38182123Y-39157731D01*
X38272628Y-39293181D01*
X38384447Y-39405000D01*
X38282397Y-39405000D01*
X38141942Y-39432938D01*
X38009636Y-39487741D01*
X37890564Y-39567302D01*
X37789302Y-39668564D01*
X37709741Y-39787636D01*
X37654938Y-39919942D01*
X37627000Y-40060397D01*
X37627000Y-40203603D01*
X37654938Y-40344058D01*
X37709741Y-40476364D01*
X37789302Y-40595436D01*
X37890564Y-40696698D01*
X38009636Y-40776259D01*
X38141942Y-40831062D01*
X38282397Y-40859000D01*
X38425603Y-40859000D01*
X38566058Y-40831062D01*
X38698364Y-40776259D01*
X38817436Y-40696698D01*
X38918698Y-40595436D01*
X38998259Y-40476364D01*
X39053062Y-40344058D01*
X39081000Y-40203603D01*
X39081000Y-40060397D01*
X39053062Y-39919942D01*
X38998259Y-39787636D01*
X38918698Y-39668564D01*
X38843134Y-39593000D01*
X38996452Y-39593000D01*
X39156227Y-39561218D01*
X39306731Y-39498877D01*
X39359680Y-39463497D01*
X40560700Y-39463497D01*
X40560700Y-39606703D01*
X40588638Y-39747158D01*
X40643441Y-39879464D01*
X40723002Y-39998536D01*
X40824264Y-40099798D01*
X40943336Y-40179359D01*
X41075642Y-40234162D01*
X41216097Y-40262100D01*
X41359303Y-40262100D01*
X41499758Y-40234162D01*
X41632064Y-40179359D01*
X41751136Y-40099798D01*
X41852398Y-39998536D01*
X41931959Y-39879464D01*
X41986762Y-39747158D01*
X42014700Y-39606703D01*
X42014700Y-39521678D01*
X46894800Y-39521678D01*
X46894800Y-39675522D01*
X46924813Y-39826409D01*
X46983687Y-39968542D01*
X47069158Y-40096459D01*
X47177941Y-40205242D01*
X47305858Y-40290713D01*
X47447991Y-40349587D01*
X47598878Y-40379600D01*
X47752722Y-40379600D01*
X47903609Y-40349587D01*
X48045742Y-40290713D01*
X48173659Y-40205242D01*
X48282442Y-40096459D01*
X48367913Y-39968542D01*
X48426787Y-39826409D01*
X48456800Y-39675522D01*
X48456800Y-39521678D01*
X48426787Y-39370791D01*
X48367913Y-39228658D01*
X48282442Y-39100741D01*
X48173659Y-38991958D01*
X48045742Y-38906487D01*
X47903609Y-38847613D01*
X47752722Y-38817600D01*
X47598878Y-38817600D01*
X47447991Y-38847613D01*
X47305858Y-38906487D01*
X47177941Y-38991958D01*
X47069158Y-39100741D01*
X46983687Y-39228658D01*
X46924813Y-39370791D01*
X46894800Y-39521678D01*
X42014700Y-39521678D01*
X42014700Y-39463497D01*
X41986762Y-39323042D01*
X41931959Y-39190736D01*
X41852398Y-39071664D01*
X41751136Y-38970402D01*
X41632064Y-38890841D01*
X41499758Y-38836038D01*
X41359303Y-38808100D01*
X41216097Y-38808100D01*
X41075642Y-38836038D01*
X40943336Y-38890841D01*
X40824264Y-38970402D01*
X40723002Y-39071664D01*
X40643441Y-39190736D01*
X40588638Y-39323042D01*
X40560700Y-39463497D01*
X39359680Y-39463497D01*
X39442181Y-39408372D01*
X39557372Y-39293181D01*
X39647877Y-39157731D01*
X39710218Y-39007227D01*
X39742000Y-38847452D01*
X39742000Y-38684548D01*
X39710218Y-38524773D01*
X39647877Y-38374269D01*
X39606938Y-38313000D01*
X39992993Y-38313000D01*
X40136525Y-38298863D01*
X40320691Y-38242997D01*
X40490418Y-38152276D01*
X40639186Y-38030186D01*
X40761276Y-37881418D01*
X40851997Y-37711691D01*
X40907863Y-37527525D01*
X40916889Y-37435880D01*
X40935302Y-37463436D01*
X41036564Y-37564698D01*
X41155636Y-37644259D01*
X41287942Y-37699062D01*
X41428397Y-37727000D01*
X41571603Y-37727000D01*
X41712058Y-37699062D01*
X41844364Y-37644259D01*
X41963436Y-37564698D01*
X42064698Y-37463436D01*
X42144259Y-37344364D01*
X42199062Y-37212058D01*
X42227000Y-37071603D01*
X42227000Y-36928397D01*
X42221749Y-36902000D01*
X42569866Y-36902000D01*
X42535302Y-36936564D01*
X42455741Y-37055636D01*
X42400938Y-37187942D01*
X42373000Y-37328397D01*
X42373000Y-37471603D01*
X42400938Y-37612058D01*
X42455741Y-37744364D01*
X42535302Y-37863436D01*
X42636564Y-37964698D01*
X42755636Y-38044259D01*
X42887942Y-38099062D01*
X43028397Y-38127000D01*
X43171603Y-38127000D01*
X43312058Y-38099062D01*
X43444364Y-38044259D01*
X43563436Y-37964698D01*
X43573000Y-37955134D01*
X43573000Y-38071603D01*
X43600938Y-38212058D01*
X43655741Y-38344364D01*
X43735302Y-38463436D01*
X43836564Y-38564698D01*
X43955636Y-38644259D01*
X44087942Y-38699062D01*
X44228397Y-38727000D01*
X44371603Y-38727000D01*
X44512058Y-38699062D01*
X44644364Y-38644259D01*
X44763436Y-38564698D01*
X44864698Y-38463436D01*
X44944259Y-38344364D01*
X44999062Y-38212058D01*
X45027000Y-38071603D01*
X45027000Y-37928397D01*
X44999062Y-37787942D01*
X44944259Y-37655636D01*
X44879645Y-37558934D01*
X44899062Y-37512058D01*
X44927000Y-37371603D01*
X44927000Y-37228397D01*
X44899062Y-37087942D01*
X44844259Y-36955636D01*
X44808421Y-36902000D01*
X50491579Y-36902000D01*
X50455741Y-36955636D01*
X50400938Y-37087942D01*
X50373000Y-37228397D01*
X50373000Y-37371603D01*
X50373278Y-37373000D01*
X50328397Y-37373000D01*
X50187942Y-37400938D01*
X50055636Y-37455741D01*
X49936564Y-37535302D01*
X49835302Y-37636564D01*
X49755741Y-37755636D01*
X49700938Y-37887942D01*
X49673000Y-38028397D01*
X49673000Y-38171603D01*
X49700938Y-38312058D01*
X49755741Y-38444364D01*
X49835302Y-38563436D01*
X49936564Y-38664698D01*
X50055636Y-38744259D01*
X50187942Y-38799062D01*
X50328397Y-38827000D01*
X50471603Y-38827000D01*
X50612058Y-38799062D01*
X50744364Y-38744259D01*
X50863436Y-38664698D01*
X50964698Y-38563436D01*
X51044259Y-38444364D01*
X51081689Y-38354000D01*
X53721000Y-38354000D01*
X53721000Y-44323000D01*
X53723440Y-44347776D01*
X53730667Y-44371601D01*
X53742403Y-44393557D01*
X53758197Y-44412803D01*
X53777443Y-44428597D01*
X53799399Y-44440333D01*
X53823224Y-44447560D01*
X53848000Y-44450000D01*
X56134616Y-44450000D01*
X56150938Y-44532058D01*
X56205741Y-44664364D01*
X56285302Y-44783436D01*
X56386564Y-44884698D01*
X56505636Y-44964259D01*
X56637942Y-45019062D01*
X56778397Y-45047000D01*
X56921603Y-45047000D01*
X57062058Y-45019062D01*
X57194364Y-44964259D01*
X57313436Y-44884698D01*
X57414698Y-44783436D01*
X57494259Y-44664364D01*
X57549062Y-44532058D01*
X57577000Y-44391603D01*
X57577000Y-44248397D01*
X57549062Y-44107942D01*
X57494259Y-43975636D01*
X57414698Y-43856564D01*
X57373134Y-43815000D01*
X58176894Y-43815000D01*
X58356500Y-43994606D01*
X58356500Y-44513500D01*
X58358940Y-44538276D01*
X58366167Y-44562101D01*
X58377903Y-44584057D01*
X58393697Y-44603303D01*
X58412943Y-44619097D01*
X58434899Y-44630833D01*
X58458724Y-44638060D01*
X58483500Y-44640500D01*
X59245500Y-44640500D01*
X59270276Y-44638060D01*
X59294101Y-44630833D01*
X59316057Y-44619097D01*
X59335303Y-44603303D01*
X59351097Y-44584057D01*
X59362833Y-44562101D01*
X59370060Y-44538276D01*
X59372500Y-44513500D01*
X59372500Y-43688000D01*
X59370060Y-43663224D01*
X59362833Y-43639399D01*
X59351097Y-43617443D01*
X59336558Y-43599471D01*
X59267459Y-43528397D01*
X61573000Y-43528397D01*
X61573000Y-43671603D01*
X61600938Y-43812058D01*
X61655741Y-43944364D01*
X61735302Y-44063436D01*
X61836564Y-44164698D01*
X61955636Y-44244259D01*
X62087942Y-44299062D01*
X62228397Y-44327000D01*
X62371603Y-44327000D01*
X62512058Y-44299062D01*
X62644364Y-44244259D01*
X62687382Y-44215516D01*
X62736564Y-44264698D01*
X62855636Y-44344259D01*
X62987942Y-44399062D01*
X63128397Y-44427000D01*
X63271603Y-44427000D01*
X63412058Y-44399062D01*
X63544364Y-44344259D01*
X63663436Y-44264698D01*
X63764698Y-44163436D01*
X63844259Y-44044364D01*
X63899062Y-43912058D01*
X63927000Y-43771603D01*
X63927000Y-43628397D01*
X63899062Y-43487942D01*
X63844259Y-43355636D01*
X63764698Y-43236564D01*
X63663436Y-43135302D01*
X63544364Y-43055741D01*
X63412058Y-43000938D01*
X63271603Y-42973000D01*
X63128397Y-42973000D01*
X62987942Y-43000938D01*
X62855636Y-43055741D01*
X62812618Y-43084484D01*
X62763436Y-43035302D01*
X62644364Y-42955741D01*
X62512058Y-42900938D01*
X62371603Y-42873000D01*
X62228397Y-42873000D01*
X62087942Y-42900938D01*
X61955636Y-42955741D01*
X61836564Y-43035302D01*
X61735302Y-43136564D01*
X61655741Y-43255636D01*
X61600938Y-43387942D01*
X61573000Y-43528397D01*
X59267459Y-43528397D01*
X57150000Y-41350440D01*
X57150000Y-38354000D01*
X57147560Y-38329224D01*
X57140333Y-38305399D01*
X57128597Y-38283443D01*
X57112803Y-38264197D01*
X57093557Y-38248403D01*
X57071601Y-38236667D01*
X57047776Y-38229440D01*
X57023000Y-38227000D01*
X53848000Y-38227000D01*
X53823224Y-38229440D01*
X53799399Y-38236667D01*
X53777443Y-38248403D01*
X53758197Y-38264197D01*
X53742403Y-38283443D01*
X53730667Y-38305399D01*
X53723440Y-38329224D01*
X53721000Y-38354000D01*
X51081689Y-38354000D01*
X51099062Y-38312058D01*
X51127000Y-38171603D01*
X51127000Y-38028397D01*
X51126722Y-38027000D01*
X51171603Y-38027000D01*
X51312058Y-37999062D01*
X51444364Y-37944259D01*
X51563436Y-37864698D01*
X51664698Y-37763436D01*
X51744259Y-37644364D01*
X51799062Y-37512058D01*
X51827000Y-37371603D01*
X51827000Y-37228397D01*
X51799062Y-37087942D01*
X51744259Y-36955636D01*
X51708421Y-36902000D01*
X57112891Y-36902000D01*
X57140000Y-36904670D01*
X57167108Y-36902000D01*
X57167109Y-36902000D01*
X57248211Y-36894012D01*
X57352263Y-36862448D01*
X57448158Y-36811191D01*
X57532211Y-36742211D01*
X57601191Y-36658158D01*
X57640000Y-36585552D01*
X57678809Y-36658158D01*
%TA.AperFunction,Conductor*%
D17*
G36*
X57678809Y-36658158D02*
G01*
X57747789Y-36742211D01*
X57831842Y-36811191D01*
X57927737Y-36862448D01*
X58031789Y-36894012D01*
X58112891Y-36902000D01*
X58112892Y-36902000D01*
X58140000Y-36904670D01*
X58167109Y-36902000D01*
X67590000Y-36902000D01*
X67590000Y-37173000D01*
X61700000Y-37173000D01*
X61675224Y-37175440D01*
X61651399Y-37182667D01*
X61629443Y-37194403D01*
X61610197Y-37210197D01*
X61594403Y-37229443D01*
X61582667Y-37251399D01*
X61575440Y-37275224D01*
X61573000Y-37300000D01*
X61573000Y-41300000D01*
X61575440Y-41324776D01*
X61582667Y-41348601D01*
X61594403Y-41370557D01*
X61610197Y-41389803D01*
X61629443Y-41405597D01*
X61651399Y-41417333D01*
X61675224Y-41424560D01*
X61700000Y-41427000D01*
X67590000Y-41427000D01*
X67590001Y-55798000D01*
X58167108Y-55798000D01*
X58140000Y-55795330D01*
X58112891Y-55798000D01*
X58031789Y-55805988D01*
X57927737Y-55837552D01*
X57831842Y-55888809D01*
X57747789Y-55957789D01*
X57678809Y-56041842D01*
X57640000Y-56114448D01*
X57601191Y-56041842D01*
X57532211Y-55957789D01*
X57448158Y-55888809D01*
X57352263Y-55837552D01*
X57248211Y-55805988D01*
X57140000Y-55795330D01*
X57112892Y-55798000D01*
X50384000Y-55798000D01*
X50384000Y-55681397D01*
X50356062Y-55540942D01*
X50301259Y-55408636D01*
X50221698Y-55289564D01*
X50221481Y-55289347D01*
X50227000Y-55261603D01*
X50227000Y-55118397D01*
X50199062Y-54977942D01*
X50144259Y-54845636D01*
X50064698Y-54726564D01*
X49963436Y-54625302D01*
X49844364Y-54545741D01*
X49712058Y-54490938D01*
X49571603Y-54463000D01*
X49428397Y-54463000D01*
X49287942Y-54490938D01*
X49155636Y-54545741D01*
X49036564Y-54625302D01*
X49026956Y-54634910D01*
X49016857Y-54619795D01*
X49054364Y-54604259D01*
X49173436Y-54524698D01*
X49274698Y-54423436D01*
X49354259Y-54304364D01*
X49409062Y-54172058D01*
X49437000Y-54031603D01*
X49437000Y-53888397D01*
X49414723Y-53776397D01*
X54518000Y-53776397D01*
X54518000Y-53919603D01*
X54545938Y-54060058D01*
X54600741Y-54192364D01*
X54680302Y-54311436D01*
X54781564Y-54412698D01*
X54900636Y-54492259D01*
X55032942Y-54547062D01*
X55173397Y-54575000D01*
X55316603Y-54575000D01*
X55457058Y-54547062D01*
X55589364Y-54492259D01*
X55708436Y-54412698D01*
X55809698Y-54311436D01*
X55889259Y-54192364D01*
X55944062Y-54060058D01*
X55972000Y-53919603D01*
X55972000Y-53776397D01*
X55944062Y-53635942D01*
X55889259Y-53503636D01*
X55809698Y-53384564D01*
X55708436Y-53283302D01*
X55589364Y-53203741D01*
X55457058Y-53148938D01*
X55316603Y-53121000D01*
X55173397Y-53121000D01*
X55032942Y-53148938D01*
X54900636Y-53203741D01*
X54781564Y-53283302D01*
X54680302Y-53384564D01*
X54600741Y-53503636D01*
X54545938Y-53635942D01*
X54518000Y-53776397D01*
X49414723Y-53776397D01*
X49409062Y-53747942D01*
X49354259Y-53615636D01*
X49274698Y-53496564D01*
X49173436Y-53395302D01*
X49054364Y-53315741D01*
X48922058Y-53260938D01*
X48781603Y-53233000D01*
X48638397Y-53233000D01*
X48497942Y-53260938D01*
X48365636Y-53315741D01*
X48246564Y-53395302D01*
X48145302Y-53496564D01*
X48065741Y-53615636D01*
X48010938Y-53747942D01*
X47983000Y-53888397D01*
X47983000Y-54031603D01*
X48010938Y-54172058D01*
X48065741Y-54304364D01*
X48143143Y-54420205D01*
X48105636Y-54435741D01*
X47986564Y-54515302D01*
X47885302Y-54616564D01*
X47805741Y-54735636D01*
X47750938Y-54867942D01*
X47723000Y-55008397D01*
X47723000Y-55151603D01*
X47750938Y-55292058D01*
X47805741Y-55424364D01*
X47885302Y-55543436D01*
X47986564Y-55644698D01*
X48105636Y-55724259D01*
X48237942Y-55779062D01*
X48333151Y-55798000D01*
X44167108Y-55798000D01*
X44151724Y-55796485D01*
X44205259Y-55716364D01*
X44260062Y-55584058D01*
X44288000Y-55443603D01*
X44288000Y-55300397D01*
X44260062Y-55159942D01*
X44205259Y-55027636D01*
X44125698Y-54908564D01*
X44024436Y-54807302D01*
X43905364Y-54727741D01*
X43773058Y-54672938D01*
X43632603Y-54645000D01*
X43489397Y-54645000D01*
X43348942Y-54672938D01*
X43216636Y-54727741D01*
X43097564Y-54807302D01*
X42996302Y-54908564D01*
X42916741Y-55027636D01*
X42861938Y-55159942D01*
X42834000Y-55300397D01*
X42834000Y-55443603D01*
X42861938Y-55584058D01*
X42916741Y-55716364D01*
X42971288Y-55798000D01*
X42512134Y-55798000D01*
X42601698Y-55708436D01*
X42681259Y-55589364D01*
X42736062Y-55457058D01*
X42764000Y-55316603D01*
X42764000Y-55173397D01*
X42736062Y-55032942D01*
X42681259Y-54900636D01*
X42601698Y-54781564D01*
X42500436Y-54680302D01*
X42381364Y-54600741D01*
X42249058Y-54545938D01*
X42108603Y-54518000D01*
X41965397Y-54518000D01*
X41824942Y-54545938D01*
X41692636Y-54600741D01*
X41573564Y-54680302D01*
X41472302Y-54781564D01*
X41392741Y-54900636D01*
X41337938Y-55032942D01*
X41310000Y-55173397D01*
X41310000Y-55316603D01*
X41337938Y-55457058D01*
X41392741Y-55589364D01*
X41472302Y-55708436D01*
X41561866Y-55798000D01*
X33694000Y-55798000D01*
X33694000Y-54248397D01*
X46133000Y-54248397D01*
X46133000Y-54391603D01*
X46160938Y-54532058D01*
X46215741Y-54664364D01*
X46295302Y-54783436D01*
X46396564Y-54884698D01*
X46515636Y-54964259D01*
X46647942Y-55019062D01*
X46788397Y-55047000D01*
X46931603Y-55047000D01*
X47072058Y-55019062D01*
X47204364Y-54964259D01*
X47323436Y-54884698D01*
X47424698Y-54783436D01*
X47504259Y-54664364D01*
X47545650Y-54564437D01*
X47594364Y-54544259D01*
X47713436Y-54464698D01*
X47814698Y-54363436D01*
X47894259Y-54244364D01*
X47949062Y-54112058D01*
X47977000Y-53971603D01*
X47977000Y-53828397D01*
X47949062Y-53687942D01*
X47894259Y-53555636D01*
X47814698Y-53436564D01*
X47713436Y-53335302D01*
X47594364Y-53255741D01*
X47462058Y-53200938D01*
X47321603Y-53173000D01*
X47178397Y-53173000D01*
X47037942Y-53200938D01*
X46905636Y-53255741D01*
X46786564Y-53335302D01*
X46685302Y-53436564D01*
X46605741Y-53555636D01*
X46564350Y-53655563D01*
X46515636Y-53675741D01*
X46396564Y-53755302D01*
X46295302Y-53856564D01*
X46215741Y-53975636D01*
X46160938Y-54107942D01*
X46133000Y-54248397D01*
X33694000Y-54248397D01*
X33694000Y-53645134D01*
X33699564Y-53650698D01*
X33818636Y-53730259D01*
X33950942Y-53785062D01*
X34091397Y-53813000D01*
X34234603Y-53813000D01*
X34375058Y-53785062D01*
X34507364Y-53730259D01*
X34626436Y-53650698D01*
X34727698Y-53549436D01*
X34807259Y-53430364D01*
X34862062Y-53298058D01*
X34878956Y-53213125D01*
X34890897Y-53215500D01*
X35034103Y-53215500D01*
X35174558Y-53187562D01*
X35306864Y-53132759D01*
X35425936Y-53053198D01*
X35527198Y-52951936D01*
X35606759Y-52832864D01*
X35661562Y-52700558D01*
X35689500Y-52560103D01*
X35689500Y-52438397D01*
X47313000Y-52438397D01*
X47313000Y-52581603D01*
X47340938Y-52722058D01*
X47395741Y-52854364D01*
X47475302Y-52973436D01*
X47576564Y-53074698D01*
X47695636Y-53154259D01*
X47827942Y-53209062D01*
X47968397Y-53237000D01*
X48111603Y-53237000D01*
X48252058Y-53209062D01*
X48384364Y-53154259D01*
X48503436Y-53074698D01*
X48604698Y-52973436D01*
X48684259Y-52854364D01*
X48739062Y-52722058D01*
X48767000Y-52581603D01*
X48767000Y-52438397D01*
X48739062Y-52297942D01*
X48684259Y-52165636D01*
X48604698Y-52046564D01*
X48503436Y-51945302D01*
X48392829Y-51871397D01*
X55915000Y-51871397D01*
X55915000Y-52014603D01*
X55942938Y-52155058D01*
X55997741Y-52287364D01*
X56077302Y-52406436D01*
X56178564Y-52507698D01*
X56297636Y-52587259D01*
X56429942Y-52642062D01*
X56570397Y-52670000D01*
X56713603Y-52670000D01*
X56854058Y-52642062D01*
X56986364Y-52587259D01*
X57105436Y-52507698D01*
X57206698Y-52406436D01*
X57286259Y-52287364D01*
X57341062Y-52155058D01*
X57369000Y-52014603D01*
X57369000Y-51891427D01*
X59528360Y-51891427D01*
X59528360Y-52034633D01*
X59556298Y-52175088D01*
X59611101Y-52307394D01*
X59690662Y-52426466D01*
X59791924Y-52527728D01*
X59910996Y-52607289D01*
X60043302Y-52662092D01*
X60183757Y-52690030D01*
X60326963Y-52690030D01*
X60467418Y-52662092D01*
X60599724Y-52607289D01*
X60718796Y-52527728D01*
X60820058Y-52426466D01*
X60899619Y-52307394D01*
X60900543Y-52305162D01*
X61094635Y-52305162D01*
X61094635Y-52448368D01*
X61122573Y-52588823D01*
X61177376Y-52721129D01*
X61256937Y-52840201D01*
X61358199Y-52941463D01*
X61477271Y-53021024D01*
X61609577Y-53075827D01*
X61750032Y-53103765D01*
X61893238Y-53103765D01*
X62033693Y-53075827D01*
X62165999Y-53021024D01*
X62249452Y-52965263D01*
X62253936Y-52968259D01*
X62386242Y-53023062D01*
X62526697Y-53051000D01*
X62669903Y-53051000D01*
X62810358Y-53023062D01*
X62942664Y-52968259D01*
X63061736Y-52888698D01*
X63162998Y-52787436D01*
X63242559Y-52668364D01*
X63297362Y-52536058D01*
X63325300Y-52395603D01*
X63325300Y-52252397D01*
X63297362Y-52111942D01*
X63242559Y-51979636D01*
X63162998Y-51860564D01*
X63061736Y-51759302D01*
X62942664Y-51679741D01*
X62810358Y-51624938D01*
X62669903Y-51597000D01*
X62526697Y-51597000D01*
X62386242Y-51624938D01*
X62253936Y-51679741D01*
X62170483Y-51735502D01*
X62165999Y-51732506D01*
X62033693Y-51677703D01*
X61893238Y-51649765D01*
X61750032Y-51649765D01*
X61609577Y-51677703D01*
X61477271Y-51732506D01*
X61358199Y-51812067D01*
X61256937Y-51913329D01*
X61177376Y-52032401D01*
X61122573Y-52164707D01*
X61094635Y-52305162D01*
X60900543Y-52305162D01*
X60954422Y-52175088D01*
X60982360Y-52034633D01*
X60982360Y-51891427D01*
X60954422Y-51750972D01*
X60899619Y-51618666D01*
X60820058Y-51499594D01*
X60718796Y-51398332D01*
X60599724Y-51318771D01*
X60467418Y-51263968D01*
X60326963Y-51236030D01*
X60183757Y-51236030D01*
X60043302Y-51263968D01*
X59910996Y-51318771D01*
X59791924Y-51398332D01*
X59690662Y-51499594D01*
X59611101Y-51618666D01*
X59556298Y-51750972D01*
X59528360Y-51891427D01*
X57369000Y-51891427D01*
X57369000Y-51871397D01*
X57341062Y-51730942D01*
X57286259Y-51598636D01*
X57206698Y-51479564D01*
X57105436Y-51378302D01*
X56986364Y-51298741D01*
X56854058Y-51243938D01*
X56713603Y-51216000D01*
X56570397Y-51216000D01*
X56429942Y-51243938D01*
X56297636Y-51298741D01*
X56178564Y-51378302D01*
X56077302Y-51479564D01*
X55997741Y-51598636D01*
X55942938Y-51730942D01*
X55915000Y-51871397D01*
X48392829Y-51871397D01*
X48384364Y-51865741D01*
X48252058Y-51810938D01*
X48111603Y-51783000D01*
X47968397Y-51783000D01*
X47827942Y-51810938D01*
X47695636Y-51865741D01*
X47576564Y-51945302D01*
X47475302Y-52046564D01*
X47395741Y-52165636D01*
X47340938Y-52297942D01*
X47313000Y-52438397D01*
X35689500Y-52438397D01*
X35689500Y-52416897D01*
X35661562Y-52276442D01*
X35606759Y-52144136D01*
X35527198Y-52025064D01*
X35425936Y-51923802D01*
X35306864Y-51844241D01*
X35174558Y-51789438D01*
X35034103Y-51761500D01*
X35017000Y-51761500D01*
X35017000Y-51744397D01*
X34989062Y-51603942D01*
X34934259Y-51471636D01*
X34854698Y-51352564D01*
X34753436Y-51251302D01*
X34634364Y-51171741D01*
X34502058Y-51116938D01*
X34464147Y-51109397D01*
X43088000Y-51109397D01*
X43088000Y-51252603D01*
X43115938Y-51393058D01*
X43170741Y-51525364D01*
X43250302Y-51644436D01*
X43351564Y-51745698D01*
X43470636Y-51825259D01*
X43602942Y-51880062D01*
X43743397Y-51908000D01*
X43886603Y-51908000D01*
X44027058Y-51880062D01*
X44159364Y-51825259D01*
X44278436Y-51745698D01*
X44379698Y-51644436D01*
X44459259Y-51525364D01*
X44514062Y-51393058D01*
X44542000Y-51252603D01*
X44542000Y-51109397D01*
X44514062Y-50968942D01*
X44459259Y-50836636D01*
X44379698Y-50717564D01*
X44278436Y-50616302D01*
X44159364Y-50536741D01*
X44027058Y-50481938D01*
X43886603Y-50454000D01*
X43743397Y-50454000D01*
X43602942Y-50481938D01*
X43470636Y-50536741D01*
X43351564Y-50616302D01*
X43250302Y-50717564D01*
X43170741Y-50836636D01*
X43115938Y-50968942D01*
X43088000Y-51109397D01*
X34464147Y-51109397D01*
X34361603Y-51089000D01*
X34218397Y-51089000D01*
X34077942Y-51116938D01*
X33945636Y-51171741D01*
X33826564Y-51251302D01*
X33725302Y-51352564D01*
X33694000Y-51399411D01*
X33694000Y-49839397D01*
X45628000Y-49839397D01*
X45628000Y-49982603D01*
X45655938Y-50123058D01*
X45710741Y-50255364D01*
X45790302Y-50374436D01*
X45891564Y-50475698D01*
X46010636Y-50555259D01*
X46142942Y-50610062D01*
X46283397Y-50638000D01*
X46426603Y-50638000D01*
X46567058Y-50610062D01*
X46699364Y-50555259D01*
X46818436Y-50475698D01*
X46919698Y-50374436D01*
X46999259Y-50255364D01*
X47054062Y-50123058D01*
X47082000Y-49982603D01*
X47082000Y-49839397D01*
X47054062Y-49698942D01*
X46999259Y-49566636D01*
X46919698Y-49447564D01*
X46818436Y-49346302D01*
X46731775Y-49288397D01*
X47093000Y-49288397D01*
X47093000Y-49431603D01*
X47120938Y-49572058D01*
X47175741Y-49704364D01*
X47255302Y-49823436D01*
X47356564Y-49924698D01*
X47475636Y-50004259D01*
X47607942Y-50059062D01*
X47748397Y-50087000D01*
X47891603Y-50087000D01*
X48032058Y-50059062D01*
X48164364Y-50004259D01*
X48193000Y-49985125D01*
X48193000Y-50051603D01*
X48220938Y-50192058D01*
X48275741Y-50324364D01*
X48355302Y-50443436D01*
X48456564Y-50544698D01*
X48575636Y-50624259D01*
X48707942Y-50679062D01*
X48848397Y-50707000D01*
X48991603Y-50707000D01*
X49132058Y-50679062D01*
X49264364Y-50624259D01*
X49383436Y-50544698D01*
X49484698Y-50443436D01*
X49564259Y-50324364D01*
X49619062Y-50192058D01*
X49638686Y-50093397D01*
X64170000Y-50093397D01*
X64170000Y-50236603D01*
X64197938Y-50377058D01*
X64252741Y-50509364D01*
X64332302Y-50628436D01*
X64433564Y-50729698D01*
X64552636Y-50809259D01*
X64684942Y-50864062D01*
X64744476Y-50875904D01*
X64705938Y-50968942D01*
X64678000Y-51109397D01*
X64678000Y-51252603D01*
X64705938Y-51393058D01*
X64760741Y-51525364D01*
X64840302Y-51644436D01*
X64941564Y-51745698D01*
X65060636Y-51825259D01*
X65192942Y-51880062D01*
X65333397Y-51908000D01*
X65476603Y-51908000D01*
X65617058Y-51880062D01*
X65749364Y-51825259D01*
X65868436Y-51745698D01*
X65969698Y-51644436D01*
X66049259Y-51525364D01*
X66104062Y-51393058D01*
X66132000Y-51252603D01*
X66132000Y-51109397D01*
X66104062Y-50968942D01*
X66049259Y-50836636D01*
X65969698Y-50717564D01*
X65868436Y-50616302D01*
X65749364Y-50536741D01*
X65617058Y-50481938D01*
X65557524Y-50470096D01*
X65596062Y-50377058D01*
X65624000Y-50236603D01*
X65624000Y-50093397D01*
X65596062Y-49952942D01*
X65541259Y-49820636D01*
X65461698Y-49701564D01*
X65360436Y-49600302D01*
X65241364Y-49520741D01*
X65109058Y-49465938D01*
X64968603Y-49438000D01*
X64825397Y-49438000D01*
X64684942Y-49465938D01*
X64552636Y-49520741D01*
X64433564Y-49600302D01*
X64332302Y-49701564D01*
X64252741Y-49820636D01*
X64197938Y-49952942D01*
X64170000Y-50093397D01*
X49638686Y-50093397D01*
X49647000Y-50051603D01*
X49647000Y-49908397D01*
X49619062Y-49767942D01*
X49564259Y-49635636D01*
X49484698Y-49516564D01*
X49383436Y-49415302D01*
X49264364Y-49335741D01*
X49132058Y-49280938D01*
X48991603Y-49253000D01*
X48848397Y-49253000D01*
X48707942Y-49280938D01*
X48575636Y-49335741D01*
X48547000Y-49354875D01*
X48547000Y-49288397D01*
X48519062Y-49147942D01*
X48464259Y-49015636D01*
X48384698Y-48896564D01*
X48311531Y-48823397D01*
X50835000Y-48823397D01*
X50835000Y-48966603D01*
X50862938Y-49107058D01*
X50917741Y-49239364D01*
X50997302Y-49358436D01*
X51098564Y-49459698D01*
X51217636Y-49539259D01*
X51349942Y-49594062D01*
X51490397Y-49622000D01*
X51633603Y-49622000D01*
X51774058Y-49594062D01*
X51906364Y-49539259D01*
X52025436Y-49459698D01*
X52126698Y-49358436D01*
X52206259Y-49239364D01*
X52261062Y-49107058D01*
X52289000Y-48966603D01*
X52289000Y-48823397D01*
X52261062Y-48682942D01*
X52206259Y-48550636D01*
X52179447Y-48510508D01*
X52260500Y-48456351D01*
X52360636Y-48523259D01*
X52492942Y-48578062D01*
X52633397Y-48606000D01*
X52776603Y-48606000D01*
X52917058Y-48578062D01*
X53049364Y-48523259D01*
X53168436Y-48443698D01*
X53269698Y-48342436D01*
X53349259Y-48223364D01*
X53404062Y-48091058D01*
X53432000Y-47950603D01*
X53432000Y-47807397D01*
X53404062Y-47666942D01*
X53372192Y-47590000D01*
X53411603Y-47590000D01*
X53552058Y-47562062D01*
X53684364Y-47507259D01*
X53803436Y-47427698D01*
X53812897Y-47418237D01*
X55003000Y-47418237D01*
X55003000Y-47561443D01*
X55030938Y-47701898D01*
X55085741Y-47834204D01*
X55165302Y-47953276D01*
X55180446Y-47968420D01*
X55130938Y-48087942D01*
X55103000Y-48228397D01*
X55103000Y-48371603D01*
X55130938Y-48512058D01*
X55185741Y-48644364D01*
X55265302Y-48763436D01*
X55366564Y-48864698D01*
X55485636Y-48944259D01*
X55617942Y-48999062D01*
X55758397Y-49027000D01*
X55901603Y-49027000D01*
X56042058Y-48999062D01*
X56174364Y-48944259D01*
X56293436Y-48864698D01*
X56394698Y-48763436D01*
X56474259Y-48644364D01*
X56529062Y-48512058D01*
X56557000Y-48371603D01*
X56557000Y-48228397D01*
X56529062Y-48087942D01*
X56474259Y-47955636D01*
X56394698Y-47836564D01*
X56379554Y-47821420D01*
X56429062Y-47701898D01*
X56457000Y-47561443D01*
X56457000Y-47418237D01*
X56429062Y-47277782D01*
X56374259Y-47145476D01*
X56294698Y-47026404D01*
X56193436Y-46925142D01*
X56074364Y-46845581D01*
X55942058Y-46790778D01*
X55801603Y-46762840D01*
X55658397Y-46762840D01*
X55517942Y-46790778D01*
X55385636Y-46845581D01*
X55266564Y-46925142D01*
X55165302Y-47026404D01*
X55085741Y-47145476D01*
X55030938Y-47277782D01*
X55003000Y-47418237D01*
X53812897Y-47418237D01*
X53904698Y-47326436D01*
X53984259Y-47207364D01*
X54039062Y-47075058D01*
X54067000Y-46934603D01*
X54067000Y-46791397D01*
X54054469Y-46728397D01*
X63946000Y-46728397D01*
X63946000Y-46871603D01*
X63973938Y-47012058D01*
X64028741Y-47144364D01*
X64108302Y-47263436D01*
X64209564Y-47364698D01*
X64328636Y-47444259D01*
X64460942Y-47499062D01*
X64601397Y-47527000D01*
X64744603Y-47527000D01*
X64885058Y-47499062D01*
X65017364Y-47444259D01*
X65136436Y-47364698D01*
X65237698Y-47263436D01*
X65317259Y-47144364D01*
X65372062Y-47012058D01*
X65400000Y-46871603D01*
X65400000Y-46728397D01*
X65372062Y-46587942D01*
X65317259Y-46455636D01*
X65237698Y-46336564D01*
X65136436Y-46235302D01*
X65017364Y-46155741D01*
X65017004Y-46155592D01*
X65044364Y-46144259D01*
X65163436Y-46064698D01*
X65264698Y-45963436D01*
X65344259Y-45844364D01*
X65399062Y-45712058D01*
X65427000Y-45571603D01*
X65427000Y-45428397D01*
X65399062Y-45287942D01*
X65344259Y-45155636D01*
X65264698Y-45036564D01*
X65163436Y-44935302D01*
X65044364Y-44855741D01*
X64912058Y-44800938D01*
X64771603Y-44773000D01*
X64628397Y-44773000D01*
X64487942Y-44800938D01*
X64355636Y-44855741D01*
X64236564Y-44935302D01*
X64135302Y-45036564D01*
X64055741Y-45155636D01*
X64000938Y-45287942D01*
X63973000Y-45428397D01*
X63973000Y-45571603D01*
X64000938Y-45712058D01*
X64055741Y-45844364D01*
X64135302Y-45963436D01*
X64236564Y-46064698D01*
X64355636Y-46144259D01*
X64355996Y-46144408D01*
X64328636Y-46155741D01*
X64209564Y-46235302D01*
X64108302Y-46336564D01*
X64028741Y-46455636D01*
X63973938Y-46587942D01*
X63946000Y-46728397D01*
X54054469Y-46728397D01*
X54039062Y-46650942D01*
X53984259Y-46518636D01*
X53904698Y-46399564D01*
X53803436Y-46298302D01*
X53684364Y-46218741D01*
X53552058Y-46163938D01*
X53411603Y-46136000D01*
X53268397Y-46136000D01*
X53127942Y-46163938D01*
X52995636Y-46218741D01*
X52876564Y-46298302D01*
X52775302Y-46399564D01*
X52695741Y-46518636D01*
X52640938Y-46650942D01*
X52613000Y-46791397D01*
X52613000Y-46934603D01*
X52640938Y-47075058D01*
X52672808Y-47152000D01*
X52633397Y-47152000D01*
X52492942Y-47179938D01*
X52360636Y-47234741D01*
X52260500Y-47301649D01*
X52160364Y-47234741D01*
X52028058Y-47179938D01*
X51887603Y-47152000D01*
X51744397Y-47152000D01*
X51603942Y-47179938D01*
X51471636Y-47234741D01*
X51352564Y-47314302D01*
X51251302Y-47415564D01*
X51171741Y-47534636D01*
X51116938Y-47666942D01*
X51089000Y-47807397D01*
X51089000Y-47950603D01*
X51116938Y-48091058D01*
X51171741Y-48223364D01*
X51198553Y-48263492D01*
X51098564Y-48330302D01*
X50997302Y-48431564D01*
X50917741Y-48550636D01*
X50862938Y-48682942D01*
X50835000Y-48823397D01*
X48311531Y-48823397D01*
X48283436Y-48795302D01*
X48164364Y-48715741D01*
X48032058Y-48660938D01*
X47891603Y-48633000D01*
X47748397Y-48633000D01*
X47607942Y-48660938D01*
X47475636Y-48715741D01*
X47356564Y-48795302D01*
X47255302Y-48896564D01*
X47175741Y-49015636D01*
X47120938Y-49147942D01*
X47093000Y-49288397D01*
X46731775Y-49288397D01*
X46699364Y-49266741D01*
X46567058Y-49211938D01*
X46426603Y-49184000D01*
X46283397Y-49184000D01*
X46142942Y-49211938D01*
X46010636Y-49266741D01*
X45891564Y-49346302D01*
X45790302Y-49447564D01*
X45710741Y-49566636D01*
X45655938Y-49698942D01*
X45628000Y-49839397D01*
X33694000Y-49839397D01*
X33694000Y-47734048D01*
X36765000Y-47734048D01*
X36765000Y-47896952D01*
X36796782Y-48056727D01*
X36859123Y-48207231D01*
X36949628Y-48342681D01*
X37064819Y-48457872D01*
X37200269Y-48548377D01*
X37350773Y-48610718D01*
X37510548Y-48642500D01*
X37673452Y-48642500D01*
X37833227Y-48610718D01*
X37983731Y-48548377D01*
X38119181Y-48457872D01*
X38234372Y-48342681D01*
X38324877Y-48207231D01*
X38387218Y-48056727D01*
X38419000Y-47896952D01*
X38419000Y-47734048D01*
X38387218Y-47574273D01*
X38324877Y-47423769D01*
X38241080Y-47298358D01*
X41407000Y-47298358D01*
X41407000Y-47697642D01*
X41484896Y-48089254D01*
X41637696Y-48458145D01*
X41859526Y-48790137D01*
X42141863Y-49072474D01*
X42473855Y-49294304D01*
X42842746Y-49447104D01*
X43234358Y-49525000D01*
X43633642Y-49525000D01*
X44025254Y-49447104D01*
X44394145Y-49294304D01*
X44726137Y-49072474D01*
X45008474Y-48790137D01*
X45230304Y-48458145D01*
X45383104Y-48089254D01*
X45461000Y-47697642D01*
X45461000Y-47298358D01*
X45383104Y-46906746D01*
X45351586Y-46830653D01*
X45677952Y-46830653D01*
X45833962Y-47146214D01*
X46208745Y-47337020D01*
X46613551Y-47451044D01*
X47032824Y-47483902D01*
X47450451Y-47434334D01*
X47850383Y-47304243D01*
X48146038Y-47146214D01*
X48302048Y-46830653D01*
X46990000Y-45518605D01*
X45677952Y-46830653D01*
X45351586Y-46830653D01*
X45230304Y-46537855D01*
X45211022Y-46508998D01*
X45498347Y-46651048D01*
X46810395Y-45339000D01*
X45498347Y-44026952D01*
X45182786Y-44182962D01*
X44991980Y-44557745D01*
X44877956Y-44962551D01*
X44845098Y-45381824D01*
X44894666Y-45799451D01*
X45024757Y-46199383D01*
X45107179Y-46353585D01*
X45008474Y-46205863D01*
X44726137Y-45923526D01*
X44394145Y-45701696D01*
X44025254Y-45548896D01*
X43633642Y-45471000D01*
X43234358Y-45471000D01*
X42842746Y-45548896D01*
X42473855Y-45701696D01*
X42141863Y-45923526D01*
X41859526Y-46205863D01*
X41637696Y-46537855D01*
X41484896Y-46906746D01*
X41407000Y-47298358D01*
X38241080Y-47298358D01*
X38234372Y-47288319D01*
X38119181Y-47173128D01*
X37983731Y-47082623D01*
X37833227Y-47020282D01*
X37673452Y-46988500D01*
X37510548Y-46988500D01*
X37350773Y-47020282D01*
X37200269Y-47082623D01*
X37064819Y-47173128D01*
X36949628Y-47288319D01*
X36859123Y-47423769D01*
X36796782Y-47574273D01*
X36765000Y-47734048D01*
X33694000Y-47734048D01*
X33694000Y-45976000D01*
X33843273Y-45976000D01*
X33862137Y-46167525D01*
X33918003Y-46351691D01*
X34008724Y-46521418D01*
X34130814Y-46670186D01*
X34279582Y-46792276D01*
X34449309Y-46882997D01*
X34633475Y-46938863D01*
X34777007Y-46953000D01*
X35672993Y-46953000D01*
X35816525Y-46938863D01*
X36000691Y-46882997D01*
X36170418Y-46792276D01*
X36319186Y-46670186D01*
X36441276Y-46521418D01*
X36531997Y-46351691D01*
X36587863Y-46167525D01*
X36606727Y-45976000D01*
X37863273Y-45976000D01*
X37882137Y-46167525D01*
X37938003Y-46351691D01*
X38028724Y-46521418D01*
X38150814Y-46670186D01*
X38299582Y-46792276D01*
X38469309Y-46882997D01*
X38653475Y-46938863D01*
X38797007Y-46953000D01*
X39992993Y-46953000D01*
X40136525Y-46938863D01*
X40320691Y-46882997D01*
X40490418Y-46792276D01*
X40639186Y-46670186D01*
X40761276Y-46521418D01*
X40851997Y-46351691D01*
X40907863Y-46167525D01*
X40926727Y-45976000D01*
X40907863Y-45784475D01*
X40851997Y-45600309D01*
X40761276Y-45430582D01*
X40639186Y-45281814D01*
X40490418Y-45159724D01*
X40320691Y-45069003D01*
X40136525Y-45013137D01*
X39992993Y-44999000D01*
X39606938Y-44999000D01*
X39647877Y-44937731D01*
X39710218Y-44787227D01*
X39742000Y-44627452D01*
X39742000Y-44464548D01*
X39710218Y-44304773D01*
X39647877Y-44154269D01*
X39557372Y-44018819D01*
X39442181Y-43903628D01*
X39306731Y-43813123D01*
X39156227Y-43750782D01*
X38996452Y-43719000D01*
X38833548Y-43719000D01*
X38673773Y-43750782D01*
X38523269Y-43813123D01*
X38387819Y-43903628D01*
X38272628Y-44018819D01*
X38182123Y-44154269D01*
X38119782Y-44304773D01*
X38088000Y-44464548D01*
X38088000Y-44627452D01*
X38119782Y-44787227D01*
X38182123Y-44937731D01*
X38272628Y-45073181D01*
X38338415Y-45138968D01*
X38299582Y-45159724D01*
X38150814Y-45281814D01*
X38028724Y-45430582D01*
X37938003Y-45600309D01*
X37882137Y-45784475D01*
X37863273Y-45976000D01*
X36606727Y-45976000D01*
X36587863Y-45784475D01*
X36531997Y-45600309D01*
X36441276Y-45430582D01*
X36319186Y-45281814D01*
X36170418Y-45159724D01*
X36000691Y-45069003D01*
X35816525Y-45013137D01*
X35672993Y-44999000D01*
X34777007Y-44999000D01*
X34633475Y-45013137D01*
X34449309Y-45069003D01*
X34279582Y-45159724D01*
X34130814Y-45281814D01*
X34008724Y-45430582D01*
X33918003Y-45600309D01*
X33862137Y-45784475D01*
X33843273Y-45976000D01*
X33694000Y-45976000D01*
X33694000Y-42854397D01*
X37373000Y-42854397D01*
X37373000Y-42997603D01*
X37400938Y-43138058D01*
X37455741Y-43270364D01*
X37535302Y-43389436D01*
X37636564Y-43490698D01*
X37755636Y-43570259D01*
X37887942Y-43625062D01*
X38028397Y-43653000D01*
X38171603Y-43653000D01*
X38193225Y-43648699D01*
X40492700Y-43648699D01*
X40492700Y-43791905D01*
X40520638Y-43932360D01*
X40575441Y-44064666D01*
X40651477Y-44178462D01*
X40649600Y-44187897D01*
X40649600Y-44331103D01*
X40677538Y-44471558D01*
X40732341Y-44603864D01*
X40811902Y-44722936D01*
X40913164Y-44824198D01*
X41032236Y-44903759D01*
X41164542Y-44958562D01*
X41304997Y-44986500D01*
X41448203Y-44986500D01*
X41588658Y-44958562D01*
X41720964Y-44903759D01*
X41840036Y-44824198D01*
X41941298Y-44722936D01*
X42020859Y-44603864D01*
X42075662Y-44471558D01*
X42103600Y-44331103D01*
X42103600Y-44187897D01*
X42075662Y-44047442D01*
X42020859Y-43915136D01*
X41975564Y-43847347D01*
X45677952Y-43847347D01*
X46990000Y-45159395D01*
X47004143Y-45145253D01*
X47183748Y-45324858D01*
X47169605Y-45339000D01*
X48481653Y-46651048D01*
X48797214Y-46495038D01*
X48988020Y-46120255D01*
X49102044Y-45715449D01*
X49134902Y-45296176D01*
X49085334Y-44878549D01*
X49016976Y-44668397D01*
X49313000Y-44668397D01*
X49313000Y-44811603D01*
X49340938Y-44952058D01*
X49395741Y-45084364D01*
X49475302Y-45203436D01*
X49576564Y-45304698D01*
X49695636Y-45384259D01*
X49827942Y-45439062D01*
X49968397Y-45467000D01*
X50111603Y-45467000D01*
X50252058Y-45439062D01*
X50384364Y-45384259D01*
X50503436Y-45304698D01*
X50572673Y-45235461D01*
X50675636Y-45304259D01*
X50807942Y-45359062D01*
X50948397Y-45387000D01*
X51091603Y-45387000D01*
X51232058Y-45359062D01*
X51364364Y-45304259D01*
X51467327Y-45235461D01*
X51476564Y-45244698D01*
X51595636Y-45324259D01*
X51727942Y-45379062D01*
X51868397Y-45407000D01*
X52011603Y-45407000D01*
X52152058Y-45379062D01*
X52274373Y-45328397D01*
X55093000Y-45328397D01*
X55093000Y-45471603D01*
X55120938Y-45612058D01*
X55175741Y-45744364D01*
X55255302Y-45863436D01*
X55356564Y-45964698D01*
X55475636Y-46044259D01*
X55607942Y-46099062D01*
X55748397Y-46127000D01*
X55813703Y-46127000D01*
X55835741Y-46180204D01*
X55915302Y-46299276D01*
X56016564Y-46400538D01*
X56135636Y-46480099D01*
X56267942Y-46534902D01*
X56408397Y-46562840D01*
X56551603Y-46562840D01*
X56692058Y-46534902D01*
X56824364Y-46480099D01*
X56943436Y-46400538D01*
X57044698Y-46299276D01*
X57124259Y-46180204D01*
X57179062Y-46047898D01*
X57207000Y-45907443D01*
X57207000Y-45764237D01*
X57179062Y-45623782D01*
X57124259Y-45491476D01*
X57044698Y-45372404D01*
X56943436Y-45271142D01*
X56824364Y-45191581D01*
X56692058Y-45136778D01*
X56551603Y-45108840D01*
X56486297Y-45108840D01*
X56464259Y-45055636D01*
X56384698Y-44936564D01*
X56283436Y-44835302D01*
X56164364Y-44755741D01*
X56032058Y-44700938D01*
X55891603Y-44673000D01*
X55748397Y-44673000D01*
X55607942Y-44700938D01*
X55475636Y-44755741D01*
X55356564Y-44835302D01*
X55255302Y-44936564D01*
X55175741Y-45055636D01*
X55120938Y-45187942D01*
X55093000Y-45328397D01*
X52274373Y-45328397D01*
X52284364Y-45324259D01*
X52403436Y-45244698D01*
X52504698Y-45143436D01*
X52584259Y-45024364D01*
X52639062Y-44892058D01*
X52667000Y-44751603D01*
X52667000Y-44608397D01*
X52639062Y-44467942D01*
X52585352Y-44338276D01*
X52597181Y-44330372D01*
X52712372Y-44215181D01*
X52802877Y-44079731D01*
X52865218Y-43929227D01*
X52897000Y-43769452D01*
X52897000Y-43606548D01*
X52865218Y-43446773D01*
X52802877Y-43296269D01*
X52712372Y-43160819D01*
X52597181Y-43045628D01*
X52461731Y-42955123D01*
X52311227Y-42892782D01*
X52151452Y-42861000D01*
X51988548Y-42861000D01*
X51828773Y-42892782D01*
X51678269Y-42955123D01*
X51542819Y-43045628D01*
X51449748Y-43138699D01*
X51395372Y-43057319D01*
X51280181Y-42942128D01*
X51144731Y-42851623D01*
X50994227Y-42789282D01*
X50834452Y-42757500D01*
X50671548Y-42757500D01*
X50511773Y-42789282D01*
X50361269Y-42851623D01*
X50225819Y-42942128D01*
X50110628Y-43057319D01*
X50020123Y-43192769D01*
X49957782Y-43343273D01*
X49926000Y-43503048D01*
X49926000Y-43665952D01*
X49957782Y-43825727D01*
X50020123Y-43976231D01*
X50044691Y-44013000D01*
X49968397Y-44013000D01*
X49827942Y-44040938D01*
X49695636Y-44095741D01*
X49576564Y-44175302D01*
X49475302Y-44276564D01*
X49395741Y-44395636D01*
X49340938Y-44527942D01*
X49313000Y-44668397D01*
X49016976Y-44668397D01*
X48955243Y-44478617D01*
X48906808Y-44388000D01*
X48976452Y-44388000D01*
X49136227Y-44356218D01*
X49286731Y-44293877D01*
X49422181Y-44203372D01*
X49537372Y-44088181D01*
X49627877Y-43952731D01*
X49690218Y-43802227D01*
X49722000Y-43642452D01*
X49722000Y-43479548D01*
X49690218Y-43319773D01*
X49627877Y-43169269D01*
X49537372Y-43033819D01*
X49422181Y-42918628D01*
X49286731Y-42828123D01*
X49136227Y-42765782D01*
X48976452Y-42734000D01*
X48813548Y-42734000D01*
X48653773Y-42765782D01*
X48503269Y-42828123D01*
X48367819Y-42918628D01*
X48252628Y-43033819D01*
X48162123Y-43169269D01*
X48099782Y-43319773D01*
X48068000Y-43479548D01*
X48068000Y-43492056D01*
X47771255Y-43340980D01*
X47366449Y-43226956D01*
X46947176Y-43194098D01*
X46529549Y-43243666D01*
X46129617Y-43373757D01*
X45833962Y-43531786D01*
X45677952Y-43847347D01*
X41975564Y-43847347D01*
X41944823Y-43801340D01*
X41946700Y-43791905D01*
X41946700Y-43648699D01*
X41918762Y-43508244D01*
X41863959Y-43375938D01*
X41784398Y-43256866D01*
X41683136Y-43155604D01*
X41564064Y-43076043D01*
X41431758Y-43021240D01*
X41291303Y-42993302D01*
X41148097Y-42993302D01*
X41007642Y-43021240D01*
X40875336Y-43076043D01*
X40756264Y-43155604D01*
X40655002Y-43256866D01*
X40575441Y-43375938D01*
X40520638Y-43508244D01*
X40492700Y-43648699D01*
X38193225Y-43648699D01*
X38312058Y-43625062D01*
X38444364Y-43570259D01*
X38563436Y-43490698D01*
X38664698Y-43389436D01*
X38744259Y-43270364D01*
X38799062Y-43138058D01*
X38827000Y-42997603D01*
X38827000Y-42854397D01*
X38799062Y-42713942D01*
X38744259Y-42581636D01*
X38664698Y-42462564D01*
X38563436Y-42361302D01*
X38444364Y-42281741D01*
X38312058Y-42226938D01*
X38171603Y-42199000D01*
X38028397Y-42199000D01*
X37887942Y-42226938D01*
X37755636Y-42281741D01*
X37636564Y-42361302D01*
X37535302Y-42462564D01*
X37455741Y-42581636D01*
X37400938Y-42713942D01*
X37373000Y-42854397D01*
X33694000Y-42854397D01*
X33694000Y-36902000D01*
X33949170Y-36902000D01*
X33918003Y-36960309D01*
X33862137Y-37144475D01*
X33843273Y-37336000D01*
X33862137Y-37527525D01*
X33918003Y-37711691D01*
X34008724Y-37881418D01*
X34130814Y-38030186D01*
X34279582Y-38152276D01*
X34449309Y-38242997D01*
X34633475Y-38298863D01*
X34777007Y-38313000D01*
X35672993Y-38313000D01*
X35816525Y-38298863D01*
X36000691Y-38242997D01*
X36170418Y-38152276D01*
X36319186Y-38030186D01*
X36441276Y-37881418D01*
X36531997Y-37711691D01*
X36587863Y-37527525D01*
X36606727Y-37336000D01*
X36587863Y-37144475D01*
X36531997Y-36960309D01*
X36500830Y-36902000D01*
X37969170Y-36902000D01*
X37938003Y-36960309D01*
X37882137Y-37144475D01*
X37863273Y-37336000D01*
X37882137Y-37527525D01*
X37938003Y-37711691D01*
X38028724Y-37881418D01*
X38150814Y-38030186D01*
X38299582Y-38152276D01*
X38338415Y-38173032D01*
X38272628Y-38238819D01*
X38182123Y-38374269D01*
X38119782Y-38524773D01*
X38088000Y-38684548D01*
X38088000Y-38847452D01*
X38119782Y-39007227D01*
X38182123Y-39157731D01*
X38272628Y-39293181D01*
X38384447Y-39405000D01*
X38282397Y-39405000D01*
X38141942Y-39432938D01*
X38009636Y-39487741D01*
X37890564Y-39567302D01*
X37789302Y-39668564D01*
X37709741Y-39787636D01*
X37654938Y-39919942D01*
X37627000Y-40060397D01*
X37627000Y-40203603D01*
X37654938Y-40344058D01*
X37709741Y-40476364D01*
X37789302Y-40595436D01*
X37890564Y-40696698D01*
X38009636Y-40776259D01*
X38141942Y-40831062D01*
X38282397Y-40859000D01*
X38425603Y-40859000D01*
X38566058Y-40831062D01*
X38698364Y-40776259D01*
X38817436Y-40696698D01*
X38918698Y-40595436D01*
X38998259Y-40476364D01*
X39053062Y-40344058D01*
X39081000Y-40203603D01*
X39081000Y-40060397D01*
X39053062Y-39919942D01*
X38998259Y-39787636D01*
X38918698Y-39668564D01*
X38843134Y-39593000D01*
X38996452Y-39593000D01*
X39156227Y-39561218D01*
X39306731Y-39498877D01*
X39359680Y-39463497D01*
X40560700Y-39463497D01*
X40560700Y-39606703D01*
X40588638Y-39747158D01*
X40643441Y-39879464D01*
X40723002Y-39998536D01*
X40824264Y-40099798D01*
X40943336Y-40179359D01*
X41075642Y-40234162D01*
X41216097Y-40262100D01*
X41359303Y-40262100D01*
X41499758Y-40234162D01*
X41632064Y-40179359D01*
X41751136Y-40099798D01*
X41852398Y-39998536D01*
X41931959Y-39879464D01*
X41986762Y-39747158D01*
X42014700Y-39606703D01*
X42014700Y-39521678D01*
X46894800Y-39521678D01*
X46894800Y-39675522D01*
X46924813Y-39826409D01*
X46983687Y-39968542D01*
X47069158Y-40096459D01*
X47177941Y-40205242D01*
X47305858Y-40290713D01*
X47447991Y-40349587D01*
X47598878Y-40379600D01*
X47752722Y-40379600D01*
X47903609Y-40349587D01*
X48045742Y-40290713D01*
X48173659Y-40205242D01*
X48282442Y-40096459D01*
X48367913Y-39968542D01*
X48426787Y-39826409D01*
X48456800Y-39675522D01*
X48456800Y-39521678D01*
X48426787Y-39370791D01*
X48367913Y-39228658D01*
X48282442Y-39100741D01*
X48173659Y-38991958D01*
X48045742Y-38906487D01*
X47903609Y-38847613D01*
X47752722Y-38817600D01*
X47598878Y-38817600D01*
X47447991Y-38847613D01*
X47305858Y-38906487D01*
X47177941Y-38991958D01*
X47069158Y-39100741D01*
X46983687Y-39228658D01*
X46924813Y-39370791D01*
X46894800Y-39521678D01*
X42014700Y-39521678D01*
X42014700Y-39463497D01*
X41986762Y-39323042D01*
X41931959Y-39190736D01*
X41852398Y-39071664D01*
X41751136Y-38970402D01*
X41632064Y-38890841D01*
X41499758Y-38836038D01*
X41359303Y-38808100D01*
X41216097Y-38808100D01*
X41075642Y-38836038D01*
X40943336Y-38890841D01*
X40824264Y-38970402D01*
X40723002Y-39071664D01*
X40643441Y-39190736D01*
X40588638Y-39323042D01*
X40560700Y-39463497D01*
X39359680Y-39463497D01*
X39442181Y-39408372D01*
X39557372Y-39293181D01*
X39647877Y-39157731D01*
X39710218Y-39007227D01*
X39742000Y-38847452D01*
X39742000Y-38684548D01*
X39710218Y-38524773D01*
X39647877Y-38374269D01*
X39606938Y-38313000D01*
X39992993Y-38313000D01*
X40136525Y-38298863D01*
X40320691Y-38242997D01*
X40490418Y-38152276D01*
X40639186Y-38030186D01*
X40761276Y-37881418D01*
X40851997Y-37711691D01*
X40907863Y-37527525D01*
X40916889Y-37435880D01*
X40935302Y-37463436D01*
X41036564Y-37564698D01*
X41155636Y-37644259D01*
X41287942Y-37699062D01*
X41428397Y-37727000D01*
X41571603Y-37727000D01*
X41712058Y-37699062D01*
X41844364Y-37644259D01*
X41963436Y-37564698D01*
X42064698Y-37463436D01*
X42144259Y-37344364D01*
X42199062Y-37212058D01*
X42227000Y-37071603D01*
X42227000Y-36928397D01*
X42221749Y-36902000D01*
X42569866Y-36902000D01*
X42535302Y-36936564D01*
X42455741Y-37055636D01*
X42400938Y-37187942D01*
X42373000Y-37328397D01*
X42373000Y-37471603D01*
X42400938Y-37612058D01*
X42455741Y-37744364D01*
X42535302Y-37863436D01*
X42636564Y-37964698D01*
X42755636Y-38044259D01*
X42887942Y-38099062D01*
X43028397Y-38127000D01*
X43171603Y-38127000D01*
X43312058Y-38099062D01*
X43444364Y-38044259D01*
X43563436Y-37964698D01*
X43573000Y-37955134D01*
X43573000Y-38071603D01*
X43600938Y-38212058D01*
X43655741Y-38344364D01*
X43735302Y-38463436D01*
X43836564Y-38564698D01*
X43955636Y-38644259D01*
X44087942Y-38699062D01*
X44228397Y-38727000D01*
X44371603Y-38727000D01*
X44512058Y-38699062D01*
X44644364Y-38644259D01*
X44763436Y-38564698D01*
X44864698Y-38463436D01*
X44944259Y-38344364D01*
X44999062Y-38212058D01*
X45027000Y-38071603D01*
X45027000Y-37928397D01*
X44999062Y-37787942D01*
X44944259Y-37655636D01*
X44879645Y-37558934D01*
X44899062Y-37512058D01*
X44927000Y-37371603D01*
X44927000Y-37228397D01*
X44899062Y-37087942D01*
X44844259Y-36955636D01*
X44808421Y-36902000D01*
X50491579Y-36902000D01*
X50455741Y-36955636D01*
X50400938Y-37087942D01*
X50373000Y-37228397D01*
X50373000Y-37371603D01*
X50373278Y-37373000D01*
X50328397Y-37373000D01*
X50187942Y-37400938D01*
X50055636Y-37455741D01*
X49936564Y-37535302D01*
X49835302Y-37636564D01*
X49755741Y-37755636D01*
X49700938Y-37887942D01*
X49673000Y-38028397D01*
X49673000Y-38171603D01*
X49700938Y-38312058D01*
X49755741Y-38444364D01*
X49835302Y-38563436D01*
X49936564Y-38664698D01*
X50055636Y-38744259D01*
X50187942Y-38799062D01*
X50328397Y-38827000D01*
X50471603Y-38827000D01*
X50612058Y-38799062D01*
X50744364Y-38744259D01*
X50863436Y-38664698D01*
X50964698Y-38563436D01*
X51044259Y-38444364D01*
X51081689Y-38354000D01*
X53721000Y-38354000D01*
X53721000Y-44323000D01*
X53723440Y-44347776D01*
X53730667Y-44371601D01*
X53742403Y-44393557D01*
X53758197Y-44412803D01*
X53777443Y-44428597D01*
X53799399Y-44440333D01*
X53823224Y-44447560D01*
X53848000Y-44450000D01*
X56134616Y-44450000D01*
X56150938Y-44532058D01*
X56205741Y-44664364D01*
X56285302Y-44783436D01*
X56386564Y-44884698D01*
X56505636Y-44964259D01*
X56637942Y-45019062D01*
X56778397Y-45047000D01*
X56921603Y-45047000D01*
X57062058Y-45019062D01*
X57194364Y-44964259D01*
X57313436Y-44884698D01*
X57414698Y-44783436D01*
X57494259Y-44664364D01*
X57549062Y-44532058D01*
X57577000Y-44391603D01*
X57577000Y-44248397D01*
X57549062Y-44107942D01*
X57494259Y-43975636D01*
X57414698Y-43856564D01*
X57373134Y-43815000D01*
X58176894Y-43815000D01*
X58356500Y-43994606D01*
X58356500Y-44513500D01*
X58358940Y-44538276D01*
X58366167Y-44562101D01*
X58377903Y-44584057D01*
X58393697Y-44603303D01*
X58412943Y-44619097D01*
X58434899Y-44630833D01*
X58458724Y-44638060D01*
X58483500Y-44640500D01*
X59245500Y-44640500D01*
X59270276Y-44638060D01*
X59294101Y-44630833D01*
X59316057Y-44619097D01*
X59335303Y-44603303D01*
X59351097Y-44584057D01*
X59362833Y-44562101D01*
X59370060Y-44538276D01*
X59372500Y-44513500D01*
X59372500Y-43688000D01*
X59370060Y-43663224D01*
X59362833Y-43639399D01*
X59351097Y-43617443D01*
X59336558Y-43599471D01*
X59267459Y-43528397D01*
X61573000Y-43528397D01*
X61573000Y-43671603D01*
X61600938Y-43812058D01*
X61655741Y-43944364D01*
X61735302Y-44063436D01*
X61836564Y-44164698D01*
X61955636Y-44244259D01*
X62087942Y-44299062D01*
X62228397Y-44327000D01*
X62371603Y-44327000D01*
X62512058Y-44299062D01*
X62644364Y-44244259D01*
X62687382Y-44215516D01*
X62736564Y-44264698D01*
X62855636Y-44344259D01*
X62987942Y-44399062D01*
X63128397Y-44427000D01*
X63271603Y-44427000D01*
X63412058Y-44399062D01*
X63544364Y-44344259D01*
X63663436Y-44264698D01*
X63764698Y-44163436D01*
X63844259Y-44044364D01*
X63899062Y-43912058D01*
X63927000Y-43771603D01*
X63927000Y-43628397D01*
X63899062Y-43487942D01*
X63844259Y-43355636D01*
X63764698Y-43236564D01*
X63663436Y-43135302D01*
X63544364Y-43055741D01*
X63412058Y-43000938D01*
X63271603Y-42973000D01*
X63128397Y-42973000D01*
X62987942Y-43000938D01*
X62855636Y-43055741D01*
X62812618Y-43084484D01*
X62763436Y-43035302D01*
X62644364Y-42955741D01*
X62512058Y-42900938D01*
X62371603Y-42873000D01*
X62228397Y-42873000D01*
X62087942Y-42900938D01*
X61955636Y-42955741D01*
X61836564Y-43035302D01*
X61735302Y-43136564D01*
X61655741Y-43255636D01*
X61600938Y-43387942D01*
X61573000Y-43528397D01*
X59267459Y-43528397D01*
X57150000Y-41350440D01*
X57150000Y-38354000D01*
X57147560Y-38329224D01*
X57140333Y-38305399D01*
X57128597Y-38283443D01*
X57112803Y-38264197D01*
X57093557Y-38248403D01*
X57071601Y-38236667D01*
X57047776Y-38229440D01*
X57023000Y-38227000D01*
X53848000Y-38227000D01*
X53823224Y-38229440D01*
X53799399Y-38236667D01*
X53777443Y-38248403D01*
X53758197Y-38264197D01*
X53742403Y-38283443D01*
X53730667Y-38305399D01*
X53723440Y-38329224D01*
X53721000Y-38354000D01*
X51081689Y-38354000D01*
X51099062Y-38312058D01*
X51127000Y-38171603D01*
X51127000Y-38028397D01*
X51126722Y-38027000D01*
X51171603Y-38027000D01*
X51312058Y-37999062D01*
X51444364Y-37944259D01*
X51563436Y-37864698D01*
X51664698Y-37763436D01*
X51744259Y-37644364D01*
X51799062Y-37512058D01*
X51827000Y-37371603D01*
X51827000Y-37228397D01*
X51799062Y-37087942D01*
X51744259Y-36955636D01*
X51708421Y-36902000D01*
X57112891Y-36902000D01*
X57140000Y-36904670D01*
X57167108Y-36902000D01*
X57167109Y-36902000D01*
X57248211Y-36894012D01*
X57352263Y-36862448D01*
X57448158Y-36811191D01*
X57532211Y-36742211D01*
X57601191Y-36658158D01*
X57640000Y-36585552D01*
X57678809Y-36658158D01*
G37*
%TD.AperFunction*%
%TD*%
D16*
%TO.N,GND*%
X56642000Y-41529000D02*
X56644440Y-41553776D01*
X56651667Y-41577601D01*
X56663403Y-41599557D01*
X56679197Y-41618803D01*
X58928000Y-43867606D01*
X58928000Y-44196000D01*
X58801000Y-44196000D01*
X58801000Y-43815000D01*
X58798560Y-43790224D01*
X58791333Y-43766399D01*
X58779597Y-43744443D01*
X58756651Y-43718574D01*
X58312151Y-43337574D01*
X58291751Y-43323303D01*
X58268959Y-43313285D01*
X58244650Y-43307907D01*
X58229500Y-43307000D01*
X56515000Y-43307000D01*
X56490224Y-43309440D01*
X56466399Y-43316667D01*
X56444443Y-43328403D01*
X56425197Y-43344197D01*
X56409403Y-43363443D01*
X56397667Y-43385399D01*
X56390440Y-43409224D01*
X56388000Y-43434000D01*
X56388000Y-43754342D01*
X56386564Y-43755302D01*
X56285302Y-43856564D01*
X56228216Y-43942000D01*
X54229000Y-43942000D01*
X54229000Y-41656000D01*
X54226560Y-41631224D01*
X54219333Y-41607399D01*
X54207597Y-41585443D01*
X54191803Y-41566197D01*
X54172557Y-41550403D01*
X54150601Y-41538667D01*
X54126776Y-41531440D01*
X54102000Y-41529000D01*
X53721000Y-41529000D01*
X53721000Y-41275000D01*
X54102000Y-41275000D01*
X54126776Y-41272560D01*
X54150601Y-41265333D01*
X54172557Y-41253597D01*
X54191803Y-41237803D01*
X54207597Y-41218557D01*
X54219333Y-41196601D01*
X54226560Y-41172776D01*
X54229000Y-41148000D01*
X54229000Y-38735000D01*
X56642000Y-38735000D01*
X56642000Y-41529000D01*
%TA.AperFunction,Conductor*%
D17*
G36*
X56642000Y-41529000D02*
G01*
X56644440Y-41553776D01*
X56651667Y-41577601D01*
X56663403Y-41599557D01*
X56679197Y-41618803D01*
X58928000Y-43867606D01*
X58928000Y-44196000D01*
X58801000Y-44196000D01*
X58801000Y-43815000D01*
X58798560Y-43790224D01*
X58791333Y-43766399D01*
X58779597Y-43744443D01*
X58756651Y-43718574D01*
X58312151Y-43337574D01*
X58291751Y-43323303D01*
X58268959Y-43313285D01*
X58244650Y-43307907D01*
X58229500Y-43307000D01*
X56515000Y-43307000D01*
X56490224Y-43309440D01*
X56466399Y-43316667D01*
X56444443Y-43328403D01*
X56425197Y-43344197D01*
X56409403Y-43363443D01*
X56397667Y-43385399D01*
X56390440Y-43409224D01*
X56388000Y-43434000D01*
X56388000Y-43754342D01*
X56386564Y-43755302D01*
X56285302Y-43856564D01*
X56228216Y-43942000D01*
X54229000Y-43942000D01*
X54229000Y-41656000D01*
X54226560Y-41631224D01*
X54219333Y-41607399D01*
X54207597Y-41585443D01*
X54191803Y-41566197D01*
X54172557Y-41550403D01*
X54150601Y-41538667D01*
X54126776Y-41531440D01*
X54102000Y-41529000D01*
X53721000Y-41529000D01*
X53721000Y-41275000D01*
X54102000Y-41275000D01*
X54126776Y-41272560D01*
X54150601Y-41265333D01*
X54172557Y-41253597D01*
X54191803Y-41237803D01*
X54207597Y-41218557D01*
X54219333Y-41196601D01*
X54226560Y-41172776D01*
X54229000Y-41148000D01*
X54229000Y-38735000D01*
X56642000Y-38735000D01*
X56642000Y-41529000D01*
G37*
%TD.AperFunction*%
%TD*%
M02*
