%TF.GenerationSoftware,KiCad,Pcbnew,(5.1.9)-1*%
%TF.CreationDate,2021-05-29T14:53:35+02:00*%
%TF.ProjectId,Speed_sensor,53706565-645f-4736-956e-736f722e6b69,1.0*%
%TF.SameCoordinates,Original*%
%TF.FileFunction,Legend,Top*%
%TF.FilePolarity,Positive*%
%FSLAX46Y46*%
G04 Gerber Fmt 4.6, Leading zero omitted, Abs format (unit mm)*
G04 Created by KiCad (PCBNEW (5.1.9)-1) date 2021-05-29 14:53:35*
%MOMM*%
%LPD*%
G01*
G04 APERTURE LIST*
%ADD10C,0.125000*%
%ADD11C,0.300000*%
%ADD12C,0.200000*%
%ADD13C,0.120000*%
%ADD14C,0.152400*%
G04 APERTURE END LIST*
D10*
X46482047Y-43342690D02*
X46482047Y-42842690D01*
X46672523Y-42842690D01*
X46720142Y-42866500D01*
X46743952Y-42890309D01*
X46767761Y-42937928D01*
X46767761Y-43009357D01*
X46743952Y-43056976D01*
X46720142Y-43080785D01*
X46672523Y-43104595D01*
X46482047Y-43104595D01*
X47243952Y-42866500D02*
X47196333Y-42842690D01*
X47124904Y-42842690D01*
X47053476Y-42866500D01*
X47005857Y-42914119D01*
X46982047Y-42961738D01*
X46958238Y-43056976D01*
X46958238Y-43128404D01*
X46982047Y-43223642D01*
X47005857Y-43271261D01*
X47053476Y-43318880D01*
X47124904Y-43342690D01*
X47172523Y-43342690D01*
X47243952Y-43318880D01*
X47267761Y-43295071D01*
X47267761Y-43128404D01*
X47172523Y-43128404D01*
X52728857Y-41326571D02*
X52705047Y-41350380D01*
X52633619Y-41374190D01*
X52586000Y-41374190D01*
X52514571Y-41350380D01*
X52466952Y-41302761D01*
X52443142Y-41255142D01*
X52419333Y-41159904D01*
X52419333Y-41088476D01*
X52443142Y-40993238D01*
X52466952Y-40945619D01*
X52514571Y-40898000D01*
X52586000Y-40874190D01*
X52633619Y-40874190D01*
X52705047Y-40898000D01*
X52728857Y-40921809D01*
X52943142Y-41374190D02*
X52943142Y-40874190D01*
X52943142Y-41112285D02*
X53228857Y-41112285D01*
X53228857Y-41374190D02*
X53228857Y-40874190D01*
X53728857Y-40898000D02*
X53681238Y-40874190D01*
X53609809Y-40874190D01*
X53538380Y-40898000D01*
X53490761Y-40945619D01*
X53466952Y-40993238D01*
X53443142Y-41088476D01*
X53443142Y-41159904D01*
X53466952Y-41255142D01*
X53490761Y-41302761D01*
X53538380Y-41350380D01*
X53609809Y-41374190D01*
X53657428Y-41374190D01*
X53728857Y-41350380D01*
X53752666Y-41326571D01*
X53752666Y-41159904D01*
X53657428Y-41159904D01*
X42894261Y-40112190D02*
X42656166Y-40112190D01*
X42632357Y-40350285D01*
X42656166Y-40326476D01*
X42703785Y-40302666D01*
X42822833Y-40302666D01*
X42870452Y-40326476D01*
X42894261Y-40350285D01*
X42918071Y-40397904D01*
X42918071Y-40516952D01*
X42894261Y-40564571D01*
X42870452Y-40588380D01*
X42822833Y-40612190D01*
X42703785Y-40612190D01*
X42656166Y-40588380D01*
X42632357Y-40564571D01*
X43060928Y-40112190D02*
X43227595Y-40612190D01*
X43394261Y-40112190D01*
X51219147Y-53828190D02*
X51528671Y-53828190D01*
X51362004Y-54018666D01*
X51433433Y-54018666D01*
X51481052Y-54042476D01*
X51504861Y-54066285D01*
X51528671Y-54113904D01*
X51528671Y-54232952D01*
X51504861Y-54280571D01*
X51481052Y-54304380D01*
X51433433Y-54328190D01*
X51290576Y-54328190D01*
X51242957Y-54304380D01*
X51219147Y-54280571D01*
X51671528Y-53828190D02*
X51838195Y-54328190D01*
X52004861Y-53828190D01*
X43040323Y-36853014D02*
X43421276Y-36853014D01*
X43230800Y-37043490D02*
X43230800Y-36662538D01*
X52387523Y-41691714D02*
X52768476Y-41691714D01*
X52578000Y-41882190D02*
X52578000Y-41501238D01*
X48450523Y-41501214D02*
X48831476Y-41501214D01*
X48641000Y-41691690D02*
X48641000Y-41310738D01*
D11*
X52451000Y-44668214D02*
X52522428Y-44739642D01*
X52451000Y-44811071D01*
X52379571Y-44739642D01*
X52451000Y-44668214D01*
X52451000Y-44811071D01*
X58991500Y-54637714D02*
X59062928Y-54709142D01*
X58991500Y-54780571D01*
X58920071Y-54709142D01*
X58991500Y-54637714D01*
X58991500Y-54780571D01*
D10*
X56616623Y-44892114D02*
X56997576Y-44892114D01*
X56807100Y-45082590D02*
X56807100Y-44701638D01*
X49212523Y-54709214D02*
X49593476Y-54709214D01*
X49403000Y-54899690D02*
X49403000Y-54518738D01*
X39331923Y-55128314D02*
X39712876Y-55128314D01*
X39522400Y-55318790D02*
X39522400Y-54937838D01*
D11*
X46110100Y-38246614D02*
X46181528Y-38318042D01*
X46110100Y-38389471D01*
X46038671Y-38318042D01*
X46110100Y-38246614D01*
X46110100Y-38389471D01*
X53882500Y-39842214D02*
X53953928Y-39913642D01*
X53882500Y-39985071D01*
X53811071Y-39913642D01*
X53882500Y-39842214D01*
X53882500Y-39985071D01*
X67623900Y-39859514D02*
X67695328Y-39930942D01*
X67623900Y-40002371D01*
X67552471Y-39930942D01*
X67623900Y-39859514D01*
X67623900Y-40002371D01*
X57785000Y-51208714D02*
X57856428Y-51280142D01*
X57785000Y-51351571D01*
X57713571Y-51280142D01*
X57785000Y-51208714D01*
X57785000Y-51351571D01*
X43824100Y-53600914D02*
X43895528Y-53672342D01*
X43824100Y-53743771D01*
X43752671Y-53672342D01*
X43824100Y-53600914D01*
X43824100Y-53743771D01*
X37690000Y-52635714D02*
X37761428Y-52707142D01*
X37690000Y-52778571D01*
X37618571Y-52707142D01*
X37690000Y-52635714D01*
X37690000Y-52778571D01*
D12*
X43770476Y-43430000D02*
X43694285Y-43391904D01*
X43580000Y-43391904D01*
X43465714Y-43430000D01*
X43389523Y-43506190D01*
X43351428Y-43582380D01*
X43313333Y-43734761D01*
X43313333Y-43849047D01*
X43351428Y-44001428D01*
X43389523Y-44077619D01*
X43465714Y-44153809D01*
X43580000Y-44191904D01*
X43656190Y-44191904D01*
X43770476Y-44153809D01*
X43808571Y-44115714D01*
X43808571Y-43849047D01*
X43656190Y-43849047D01*
X44151428Y-44191904D02*
X44151428Y-43391904D01*
X44608571Y-44191904D01*
X44608571Y-43391904D01*
X44989523Y-44191904D02*
X44989523Y-43391904D01*
X45180000Y-43391904D01*
X45294285Y-43430000D01*
X45370476Y-43506190D01*
X45408571Y-43582380D01*
X45446666Y-43734761D01*
X45446666Y-43849047D01*
X45408571Y-44001428D01*
X45370476Y-44077619D01*
X45294285Y-44153809D01*
X45180000Y-44191904D01*
X44989523Y-44191904D01*
D11*
X40218571Y-47657142D02*
X41361428Y-47657142D01*
X40790000Y-48228571D02*
X40790000Y-47085714D01*
D13*
%TO.C,R2*%
X43673500Y-39623276D02*
X43673500Y-40132724D01*
X44718500Y-39623276D02*
X44718500Y-40132724D01*
%TO.C,C22*%
X65232349Y-42836466D02*
X65068534Y-42672651D01*
X65741466Y-42327349D02*
X65577651Y-42163534D01*
%TO.C,U6*%
X40022000Y-51500000D02*
X40022000Y-50100000D01*
X37702000Y-50100000D02*
X37702000Y-52000000D01*
%TO.C,Y1*%
X60726000Y-53835000D02*
X61826000Y-53835000D01*
X60726000Y-55735000D02*
X61826000Y-55735000D01*
X59326000Y-53885000D02*
X59326000Y-55685000D01*
%TO.C,C1*%
X45727233Y-37822600D02*
X46019767Y-37822600D01*
X45727233Y-36802600D02*
X46019767Y-36802600D01*
%TO.C,C2*%
X49522767Y-37822600D02*
X49230233Y-37822600D01*
X49522767Y-36802600D02*
X49230233Y-36802600D01*
%TO.C,C4*%
X42289000Y-54502267D02*
X42289000Y-54209733D01*
X43309000Y-54502267D02*
X43309000Y-54209733D01*
%TO.C,C6*%
X48748733Y-51818000D02*
X49041267Y-51818000D01*
X48748733Y-50798000D02*
X49041267Y-50798000D01*
%TO.C,C7*%
X48748733Y-53850000D02*
X49041267Y-53850000D01*
X48748733Y-52830000D02*
X49041267Y-52830000D01*
%TO.C,C8*%
X56706000Y-53368733D02*
X56706000Y-53661267D01*
X55686000Y-53368733D02*
X55686000Y-53661267D01*
%TO.C,C9*%
X64472000Y-51299665D02*
X64472000Y-51531335D01*
X65192000Y-51299665D02*
X65192000Y-51531335D01*
%TO.C,C10*%
X55519835Y-44511000D02*
X55288165Y-44511000D01*
X55519835Y-45231000D02*
X55288165Y-45231000D01*
%TO.C,C11*%
X58420000Y-41263835D02*
X58420000Y-41032165D01*
X57700000Y-41263835D02*
X57700000Y-41032165D01*
%TO.C,C12*%
X58970000Y-40660835D02*
X58970000Y-40429165D01*
X59690000Y-40660835D02*
X59690000Y-40429165D01*
%TO.C,C13*%
X57910000Y-52950165D02*
X57910000Y-53181835D01*
X57190000Y-52950165D02*
X57190000Y-53181835D01*
%TO.C,C14*%
X51560000Y-51542733D02*
X51560000Y-51835267D01*
X52580000Y-51542733D02*
X52580000Y-51835267D01*
%TO.C,C15*%
X59613835Y-53319000D02*
X59382165Y-53319000D01*
X59613835Y-52599000D02*
X59382165Y-52599000D01*
%TO.C,C16*%
X64430000Y-54669165D02*
X64430000Y-54900835D01*
X63710000Y-54669165D02*
X63710000Y-54900835D01*
%TO.C,C17*%
X60748165Y-43208000D02*
X60979835Y-43208000D01*
X60748165Y-42488000D02*
X60979835Y-42488000D01*
%TO.C,C18*%
X55288165Y-38669000D02*
X55519835Y-38669000D01*
X55288165Y-39389000D02*
X55519835Y-39389000D01*
%TO.C,C19*%
X55519835Y-43241000D02*
X55288165Y-43241000D01*
X55519835Y-43961000D02*
X55288165Y-43961000D01*
%TO.C,C20*%
X52716165Y-48281000D02*
X52947835Y-48281000D01*
X52716165Y-49001000D02*
X52947835Y-49001000D01*
%TO.C,C21*%
X50057267Y-49151000D02*
X49764733Y-49151000D01*
X50057267Y-48131000D02*
X49764733Y-48131000D01*
%TO.C,D1*%
X41573000Y-37474000D02*
X41573000Y-39934000D01*
X41573000Y-39934000D02*
X43043000Y-39934000D01*
X43043000Y-39934000D02*
X43043000Y-37474000D01*
%TO.C,D2*%
X47663000Y-41225800D02*
X45203000Y-41225800D01*
X45203000Y-41225800D02*
X45203000Y-42695800D01*
X45203000Y-42695800D02*
X47663000Y-42695800D01*
%TO.C,D3*%
X50827000Y-38587600D02*
X50827000Y-41047600D01*
X52297000Y-38587600D02*
X50827000Y-38587600D01*
X52297000Y-41047600D02*
X52297000Y-38587600D01*
%TO.C,D4*%
X39080000Y-55864000D02*
X39080000Y-53864000D01*
X39080000Y-53864000D02*
X35180000Y-53864000D01*
X39080000Y-55864000D02*
X35180000Y-55864000D01*
%TO.C,D5*%
X52860000Y-54465000D02*
X50400000Y-54465000D01*
X52860000Y-55935000D02*
X52860000Y-54465000D01*
X50400000Y-55935000D02*
X52860000Y-55935000D01*
%TO.C,L2*%
X54202200Y-52430000D02*
X54001800Y-52430000D01*
X54202200Y-51710000D02*
X54001800Y-51710000D01*
%TO.C,L3*%
X54908267Y-51056000D02*
X54565733Y-51056000D01*
X54908267Y-50036000D02*
X54565733Y-50036000D01*
%TO.C,L4*%
X63346200Y-42488000D02*
X63145800Y-42488000D01*
X63346200Y-43208000D02*
X63145800Y-43208000D01*
%TO.C,R3*%
X53211824Y-37860500D02*
X52702376Y-37860500D01*
X53211824Y-36815500D02*
X52702376Y-36815500D01*
%TO.C,R6*%
X35392379Y-52706000D02*
X35727621Y-52706000D01*
X35392379Y-53466000D02*
X35727621Y-53466000D01*
%TO.C,R7*%
X35392379Y-52196000D02*
X35727621Y-52196000D01*
X35392379Y-51436000D02*
X35727621Y-51436000D01*
%TO.C,R8*%
X35727621Y-50926000D02*
X35392379Y-50926000D01*
X35727621Y-50166000D02*
X35392379Y-50166000D01*
%TO.C,R9*%
X36235621Y-49783000D02*
X35900379Y-49783000D01*
X36235621Y-49023000D02*
X35900379Y-49023000D01*
%TO.C,R10*%
X42458621Y-50420000D02*
X42123379Y-50420000D01*
X42458621Y-51180000D02*
X42123379Y-51180000D01*
%TO.C,R12*%
X47457379Y-50354500D02*
X47792621Y-50354500D01*
X47457379Y-49594500D02*
X47792621Y-49594500D01*
D14*
%TO.C,U1*%
X47175567Y-40779700D02*
X48176033Y-40779700D01*
X48176033Y-38417500D02*
X47175567Y-38417500D01*
D13*
%TO.C,U4*%
X57391300Y-50222840D02*
X57391300Y-50772840D01*
X63611300Y-44552840D02*
X63061300Y-44552840D01*
X63611300Y-45102840D02*
X63611300Y-44552840D01*
X63611300Y-50772840D02*
X63061300Y-50772840D01*
X63611300Y-50222840D02*
X63611300Y-50772840D01*
X57391300Y-44552840D02*
X57941300Y-44552840D01*
X57391300Y-45102840D02*
X57391300Y-44552840D01*
%TO.C,U5*%
X52338000Y-46950000D02*
X52338000Y-47450000D01*
X52338000Y-47450000D02*
X51838000Y-47450000D01*
X51838000Y-47450000D02*
X51838000Y-47450000D01*
X50638000Y-47450000D02*
X50138000Y-47450000D01*
X50138000Y-47450000D02*
X50138000Y-46950000D01*
X50138000Y-46950000D02*
X50138000Y-46950000D01*
X50138000Y-45750000D02*
X50138000Y-45250000D01*
X50138000Y-45250000D02*
X50638000Y-45250000D01*
X50638000Y-45250000D02*
X50638000Y-45250000D01*
X52338000Y-45750000D02*
X52338000Y-45250000D01*
X52338000Y-45250000D02*
X52338000Y-45250000D01*
%TO.C,Y2*%
X56104000Y-42815000D02*
X56604000Y-42815000D01*
X56604000Y-42815000D02*
X56604000Y-42315000D01*
X55804000Y-39815000D02*
X54204000Y-39815000D01*
X54204000Y-39815000D02*
X54204000Y-41915000D01*
%TO.C,C5*%
X53732165Y-47858000D02*
X53963835Y-47858000D01*
X53732165Y-47138000D02*
X53963835Y-47138000D01*
%TO.C,H17*%
X45134000Y-47498000D02*
G75*
G03*
X45134000Y-47498000I-1700000J0D01*
G01*
%TO.C,H18*%
X48690000Y-45339000D02*
G75*
G03*
X48690000Y-45339000I-1700000J0D01*
G01*
%TO.C,J1*%
X32625000Y-46126000D02*
X32625000Y-37186000D01*
X38135000Y-46126000D02*
X36335000Y-46126000D01*
X32625000Y-46126000D02*
X34085000Y-46126000D01*
X32625000Y-37186000D02*
X34085000Y-37186000D01*
X38135000Y-37186000D02*
X36335000Y-37186000D01*
%TO.C,AE1*%
X65700000Y-37500000D02*
X65700000Y-37200000D01*
X65700000Y-37200000D02*
X66000000Y-37200000D01*
X67100000Y-41400000D02*
X67800000Y-41400000D01*
X67800000Y-41400000D02*
X67800000Y-40300000D01*
D14*
%TO.C,U3*%
X44443650Y-50253900D02*
X44824650Y-50253900D01*
X44824650Y-50253900D02*
X44824650Y-50507900D01*
X44824650Y-50507900D02*
X44443650Y-50507900D01*
X44443650Y-50507900D02*
X44443650Y-50253900D01*
D13*
%TO.C,R1*%
X41928000Y-41806379D02*
X41928000Y-42141621D01*
X42688000Y-41806379D02*
X42688000Y-42141621D01*
%TO.C,R4*%
X49404000Y-42504379D02*
X49404000Y-42839621D01*
X50164000Y-42504379D02*
X50164000Y-42839621D01*
%TO.C,R5*%
X52491621Y-43306000D02*
X52156379Y-43306000D01*
X52491621Y-42546000D02*
X52156379Y-42546000D01*
%TO.C,R11*%
X54380000Y-54232379D02*
X54380000Y-54567621D01*
X53620000Y-54232379D02*
X53620000Y-54567621D01*
%TO.C,L1*%
X46347748Y-54408000D02*
X46870252Y-54408000D01*
X46347748Y-55828000D02*
X46870252Y-55828000D01*
%TO.C,C3*%
X36187835Y-47455500D02*
X35956165Y-47455500D01*
X36187835Y-48175500D02*
X35956165Y-48175500D01*
%TD*%
M02*
