M48
; DRILL file {KiCad (5.1.9)-1} date 05/29/21 14:53:30
; FORMAT={-:-/ absolute / inch / decimal}
; #@! TF.CreationDate,2021-05-29T14:53:30+02:00
; #@! TF.GenerationSoftware,Kicad,Pcbnew,(5.1.9)-1
; #@! TF.FileFunction,Plated,1,4,PTH
FMAT,2
INCH
T1C0.0079
T2C0.0100
T3C0.0118
T4C0.0236
T5C0.0787
%
G90
G05
T1
X1.345Y-2.09
X1.35Y-1.995
X1.35Y-2.04
X1.355Y-1.97
X1.355Y-2.16
X1.3765Y-2.0665
X1.385Y-2.195
X1.42Y-2.16
X1.5Y-1.69
X1.51Y-1.58
X1.605Y-1.79
X1.61Y-2.0
X1.615Y-1.495
X1.6228Y-1.7213
X1.6235Y-1.519
X1.6255Y-1.5565
X1.629Y-1.7425
X1.6339Y-1.4567
X1.64Y-1.975
X1.6415Y-1.78
X1.655Y-2.105
X1.655Y-2.175
X1.685Y-2.075
X1.6969Y-1.4724
X1.715Y-2.18
X1.725Y-2.015
X1.7402Y-1.4685
X1.7406Y-1.6378
X1.7441Y-1.4961
X1.7551Y-1.97
X1.7693Y-1.6059
X1.77Y-2.045
X1.7815Y-1.561
X1.805Y-2.1221
X1.825Y-1.965
X1.8406Y-1.4984
X1.8449Y-2.1386
X1.8602Y-2.122
X1.8713Y-1.4791
X1.8752Y-1.4587
X1.8827Y-1.9433
X1.8913Y-2.0673
X1.895Y-1.9025
X1.9075Y-2.1685
X1.9102Y-1.4984
X1.9175Y-1.875
X1.9177Y-2.1244
X1.926Y-1.9677
X1.9327Y-2.0736
X1.9488Y-2.1728
X1.955Y-1.815
X1.955Y-1.84
X1.955Y-2.195
X1.9583Y-1.9874
X1.9591Y-2.1287
X1.96Y-1.86
X1.9625Y-1.9475
X1.9701Y-1.7614
X1.9736Y-1.5768
X1.9839Y-1.9898
X1.9843Y-1.5
X1.9909Y-2.1
X1.9921Y-2.0295
X2.0087Y-1.7583
X2.01Y-1.83
X2.0118Y-1.4685
X2.02Y-2.065
X2.03Y-1.925
X2.04Y-1.885
X2.0449Y-1.7591
X2.05Y-2.1
X2.075Y-1.885
X2.1Y-1.845
X2.1Y-2.1988
X2.1209Y-1.4992
X2.13Y-1.9
X2.13Y-1.9281
X2.1339Y-1.7669
X2.145Y-1.695
X2.1524Y-1.4697
X2.1559Y-2.1851
X2.165Y-1.7882
X2.165Y-1.885
X2.175Y-1.64
X2.175Y-1.695
X2.175Y-2.12
X2.1823Y-1.585
X2.185Y-1.56
X2.1941Y-1.8697
X2.1976Y-1.7874
X2.198Y-1.9016
X2.1995Y-2.1805
X2.2123Y-1.9277
X2.2236Y-1.8046
X2.23Y-2.045
X2.2303Y-1.5362
X2.2382Y-1.7449
X2.2445Y-2.1335
X2.2638Y-1.4616
X2.2638Y-1.5039
X2.265Y-1.595
X2.2657Y-1.5453
X2.2717Y-1.7362
X2.2845Y-2.136
X2.285Y-1.57
X2.2898Y-2.1118
X2.31Y-2.1125
X2.312Y-1.4606
X2.3157Y-2.0634
X2.335Y-1.55
X2.36Y-1.57
X2.3642Y-1.4616
X2.3723Y-2.0458
X2.3736Y-1.663
X2.4104Y-1.4596
X2.4104Y-1.498
X2.4124Y-1.5384
X2.4163Y-1.5846
X2.4183Y-1.6329
X2.4339Y-2.0621
X2.4528Y-1.7165
X2.4557Y-1.6378
X2.4567Y-1.4587
X2.4645Y-2.06
X2.4882Y-1.7205
X2.4921Y-1.4587
X2.497Y-1.6368
X2.5118Y-1.7598
X2.5228Y-2.2024
X2.5236Y-1.6348
X2.5246Y-1.4596
X2.5272Y-2.0461
X2.5462Y-1.8425
X2.5472Y-1.7913
X2.5476Y-2.1799
X2.5531Y-2.0732
X2.555Y-1.975
X2.561Y-1.4596
X2.5732Y-1.7059
X2.575Y-2.015
X2.5846Y-1.7913
X2.5866Y-1.8386
X2.5866Y-2.0472
X2.5886Y-1.747
X2.5906Y-1.878
X2.5906Y-1.9213
X2.5915Y-1.4596
X2.5945Y-1.9685
X2.5945Y-2.1299
X2.5945Y-2.189
X2.6087Y-1.672
X2.6094Y-1.7071
X2.623Y-1.4587
X2.6506Y-1.4587
X2.6506Y-1.7116
X2.6516Y-1.6791
X2.6516Y-1.8376
X2.6526Y-1.7461
X2.6535Y-1.878
X2.6535Y-1.9213
X2.6535Y-1.9685
X2.6535Y-2.0197
X2.6535Y-2.0709
X2.6535Y-2.1299
X2.6535Y-2.189
X2.6545Y-1.6427
X2.6545Y-1.7884
T2
X1.877Y-1.559
T3
X1.3625Y-1.8825
X1.48Y-1.8825
X1.53Y-2.005
X1.53Y-2.095
X1.68Y-1.725
X1.7Y-1.69
X1.925Y-1.715
X1.9981Y-1.7159
X2.05Y-1.72
T5
X1.71Y-1.87
X1.85Y-1.785
T4
G00X1.3711Y-1.4699
M15
G01X1.4026Y-1.4699
M16
G05
G00X1.3711Y-1.8101
M15
G01X1.4026Y-1.8101
M16
G05
G00X1.5293Y-1.4699
M15
G01X1.5726Y-1.4699
M16
G05
G00X1.5293Y-1.8101
M15
G01X1.5726Y-1.8101
M16
G05
T0
M30
